<svg xmlns="http://www.w3.org/2000/svg" viewBox="0 0 243.11 128.25"><defs><style>.cls-1{fill:#1d1d1b;}.cls-2{fill:#000100;}</style></defs><title>logo</title><g id="Layer_2" data-name="Layer 2"><g id="Layer_1-2" data-name="Layer 1"><path class="cls-1" d="M232.86,123.26,212.58,103s1.31-1.32,4.25-4.25,6.95-2.33,9.86.58l14.36,14.37C246.94,119.56,238.91,129.3,232.86,123.26Z"/><path class="cls-1" d="M115.57,64h0Z"/><path class="cls-1" d="M117.42,79.34c-.21-.87-.41-1.74-.59-2.61C117,77.61,117.21,78.47,117.42,79.34Z"/><path class="cls-1" d="M116.43,74.47c-.05-.27-.1-.54-.14-.81C116.33,73.93,116.38,74.2,116.43,74.47Z"/><path class="cls-2" d="M170.26,4.2l.88-1.65.69-.07,1.45-.13.76-.06.46-.82L175,.65l-.43-.06-.42-.06-1.2-.29A61.38,61.38,0,0,0,155.48,4.5a63.19,63.19,0,0,0-14.21,8s.1.43.4.23a2.34,2.34,0,0,1,1.72-.43,13.06,13.06,0,0,1,2.9.3l1.81.32.36-.36a2.62,2.62,0,0,0,.6-1,4.18,4.18,0,0,1,1-1.42l.77-.81.83,0a2.31,2.31,0,0,0,1.39-.38,10.21,10.21,0,0,1,2.59-1c.27-.06,1.81-.2,3.43-.32L162,7.37l.31-.3c.17-.16.53-.56.8-.88.48-.58.5-.59,1-.59a10.34,10.34,0,0,1,2.27.31.61.61,0,0,1,.33.36,2,2,0,0,0,.27.55,1,1,0,0,1,.16.77c-.05.44,0,.48.12.4a12.62,12.62,0,0,0,1.15-1.11A9.19,9.19,0,0,0,170.26,4.2Z"/><path class="cls-2" d="M182.16.4l-.51,1A3.81,3.81,0,0,0,181,3.61,5.26,5.26,0,0,0,181,5a9.32,9.32,0,0,0,1.81.56,7.87,7.87,0,0,0,.2-.89c.16-.81.2-.9.64-1.33l.47-.46,3.19,1.42c1.75.79,3.64,1.66,4.22,1.94l1,.52,2.63-.2,2.62-.22.73-.72a6.17,6.17,0,0,1,.79-.72s1.74.81,3.79,1.79l3.73,1.8h3.37l.68-.1A63.59,63.59,0,0,0,196.5,2.3,50.5,50.5,0,0,0,182.61,0Z"/><path class="cls-2" d="M242.05,53.51a63.54,63.54,0,0,0-17.56-34.59l-.89-.27s-.79-.25-1.73-.6c-1.31-.49-2.16-1.54-3.19-2-2.18-.95-4.06-1.23-5-2l-.48-.4-3.71-.29-3.72-.3-.83.83a4.15,4.15,0,0,0-.83,1,9.17,9.17,0,0,0,.39,1l.38.9.71,0a2.13,2.13,0,0,1,.73.1s.06.63.13,1.32.12,1.26.12,1.27-.55-.3-1.2-.69c-.93-.55-1.2-.68-1.27-.57l-.81,1.41c-.62,1.12-.75,1.27-.92,1.22a4.93,4.93,0,0,0-.8-.12,3.26,3.26,0,0,1-.8-.13,2,2,0,0,0-.45-.12c-.18,0-.3-.14-.43-.41s-.27-.42-1.08-.27a1.78,1.78,0,0,0-.84.4l-.3.29-.45-.34c-.43-.32-.49-.35-1.28-.35s-.84,0-1.06.67c-.06.19,0,.22.44.28l.5.07-.45.56c-.41.53-.43.58-.3.79s.2.33-.23.33a9.55,9.55,0,0,1-2.56-.65,2.88,2.88,0,0,0-2.06-.12c-.42.17-1,.76-2.33,2.25l-1,1.14.79.79.79.79h.57a5.85,5.85,0,0,1,1.32.22c.64.19.76.26.84.5s.24.33,2,.21l1-.06,1.17-.93a4.11,4.11,0,0,1,2.83-1.26c.65-.11.66-.11,1.73.32s1.12.42,1.64.36c1.53-.18,1.74-.19,1.67-.08s.21.82.8,1.72a15.34,15.34,0,0,1,1,2,16.79,16.79,0,0,0,1,2,2.48,2.48,0,0,1,.59,1.48c.08.7.09.73.33.71a13.35,13.35,0,0,1,1.48.08,7.87,7.87,0,0,0,1.28.06,2,2,0,0,0-.32-.63,3.32,3.32,0,0,0-1.1-1.07c-.61-.42-.75-.57-.9-1s-.48-1.26-.86-2.24-.68-1.8-.66-1.81a2.84,2.84,0,0,1,.48-.2c.52-.2.51-.21,1,.74.16.3.51.89.79,1.29.49.74.52.76,1.68,1.35l1.18.61,0,.86c.08,1.3.24,1.49,1.7,2l1.15.42.85-.45c1.2-.64,1.21-.65,1.48-1.14l.25-.45-.42-.56-.42-.56h2.18l.85.93a5.45,5.45,0,0,0,2.31,1.64c1.18.58,1.46.76,1.42.9s-.07.44-.11.76l-.07.59.88.88.88.89-.34.35a1.61,1.61,0,0,1-.42.35,53.29,53.29,0,0,1-5.15-2.41l-1.32-.74-2.22.12c-1.23.07-2.42.15-2.64.18l-.41.06,0,.92c0,.51.06,1,.08,1.13s.56.55,1.68,1.28a17.51,17.51,0,0,0,3.39,1.8,28.11,28.11,0,0,1,4.63,2.47,5.83,5.83,0,0,1-.06,1.11,4.07,4.07,0,0,1-.64,2,4.6,4.6,0,0,1-.59,1,6.24,6.24,0,0,1-.87-.53,19,19,0,0,1-2.62-2.42l-1.82-1.89h-.51c-.49,0-.55,0-2.07-1.23l-1.57-1.22-.72,0-.72,0-.21.85-.21.85-.35,0c-.64-.06-.69-.1-.7-.55a2,2,0,0,0-.07-.59c0-.09-1.35-1.12-2.92-2.28s-2.83-2.14-2.82-2.16a9.23,9.23,0,0,1,.65-.78,2.21,2.21,0,0,1,1.46-1,2.61,2.61,0,0,0,.81-.3,5.21,5.21,0,0,0-.48-.75l-.47-.69-.54,0c-.49,0-.64-.11-1.71-.85l-1.19-.81-1.15.28-1.15.28-.72-.58L196,29.9l-.76-.64-1,.06a10.37,10.37,0,0,1-4.23-.64l-1.09-.42-1.35.12-1.35.12-1.45,1-1.45,1-1.35.23a4.11,4.11,0,0,0-2.05.66,6.93,6.93,0,0,1-1.45.65,1.53,1.53,0,0,0-1.15.76l-.39.54-1.27-.05-1.24-.06-1.35,1.2A7.31,7.31,0,0,0,171.65,36c0,.15-.23,1-.44,1.88l-.37,1.6-1.32,1.4c-1.28,1.35-1.32,1.41-1.48,2.06a7.6,7.6,0,0,0-.17,1.62,4.24,4.24,0,0,0,.5,2.21,60.72,60.72,0,0,0,3.28,6.57L173.12,56l.57.35a2.7,2.7,0,0,0,1.66.41l1.06.07,1.38,1.09A5.6,5.6,0,0,0,179.44,59l2.27.15,2.1.15a1.66,1.66,0,0,1,.45.56l.34.55.52-.06.52-.07.92,1.07.93,1.06.41,0,.82-.12.4-.07.25,1.79.25,1.78-.62.89a10.78,10.78,0,0,1-1.37,1.53l-.74.64.29,1.67c.15.93.39,3,.52,4.69.25,3,.25,3,.05,3.72-.38,1.37-.38,1.37-1.69,2.24l-1.19.79-1.43,4.26L182,90.38l.44,2.17.44,2.17-.28,1.87-.28,1.88-.88,1.15-.88,1.15-.07,1.14a7.36,7.36,0,0,1-.3,1.82l-.23.67.88.26.88.26,1-.45,1-.45h2.48l2.08.67,2.08.67,1.31-.66c.73-.37,2.3-1.25,3.49-2l2.17-1.29,1.07-.11a4.14,4.14,0,0,0,1.15-.23s.12-.83.2-1.71l.13-1.61.57-.66.58-.67,1-.12a3.44,3.44,0,0,0,2.61-1l.92-.76h1.56L209.9,92c3.14-2.82,2.88-2.45,3.19-4.5.09-.57.26-1.52.39-2.11.23-1.06.24-1.08,1.31-2.66l1.06-1.59.67-.07c.36,0,.83-.06,1-.06a5.62,5.62,0,0,0,1.55-.51,16.58,16.58,0,0,0,3.41-2.17l2.26-1.65.74-1.26c1.33-2.26,1.8-3.08,1.8-3.17a2.3,2.3,0,0,0-.75-.36l-.75-.26-.38.4-.37.4-.93-.75c-1.17-.95-1.11-.91-1.2-.65s-.12-.21-.2-1.11a4.62,4.62,0,0,1,0-1.5c.23-.44.12-.74-.53-1.42a8.48,8.48,0,0,1-1.82-3.38,8.16,8.16,0,0,1-.61-2.91,7.19,7.19,0,0,1,0-2.29,6.77,6.77,0,0,0,.06-1.69c-.06-1.09,0-4.44.07-5.16l.05-.41.75.17a5.16,5.16,0,0,1,.81.24,18,18,0,0,1-.18,2.34l-.25,2.27.48,1,.48,1v1.77a15.59,15.59,0,0,0,.8,5.78l.52,1.52,1.21,1.53c.66.83,1.21,1.54,1.23,1.55a3,3,0,0,0,.57-.37c.53-.41.54-.41,1.43-.41h.88l2.85-3.15,2.85-3.15.17-.82c.09-.45.17-.89.18-1a15.57,15.57,0,0,0-2-2.88c-1-1.34-1.1-1.37-1.93-.77a1.61,1.61,0,0,1-.62.33,8.19,8.19,0,0,1-.18-1,3.73,3.73,0,0,0-.56-1.67c-.36-.63-.47-.76-.65-.74s-.27-.06-.38-.23-.16-.4-.1-1.13c0-.48.13-1.14.19-1.46.12-.59.12-.6.75-.94a2.83,2.83,0,0,1,.65-.31c.1.14,1.1,3,1.28,3.68l.23.84,1.35,1.16c.74.64,2.07,1.85,2.95,2.7l1.59,1.54.44,1.4c.25.77.59,2.11.76,3l.32,1.55.69.27.7.26,0,2c0,1.09-.15,3.73-.28,5.86s-.24,3.9-.22,3.91l.46.24c.23.12.42.26.42.31l.55-.3A49.68,49.68,0,0,0,243,64.55,59,59,0,0,0,242.05,53.51Z"/><path class="cls-1" d="M45.39,74.13C38.12,81.4,48.35,89,54.28,83l59.45-59.43a68.71,68.71,0,0,0-8.88-8.92Z"/><path class="cls-1" d="M115.51,64.15a51.44,51.44,0,1,1-19.7-40.44l9-9a64,64,0,1,0,19.08,26.44C121.46,34.71,115.51,52.26,115.51,64.15Z"/><path class="cls-2" d="M116.26,70.1a68.87,68.87,0,0,1,.15-14,23,23,0,0,1,.59-3.45s.37,1.23.74,2.73.87,3.76,1.11,5l.44,2.31-.08,2.19-.08,2.19.94,1.71a18,18,0,0,1,.94,1.82c0,.06-.21.85-.46,1.74L120.09,74,120,77l-.1,3,.61,1.74a35.17,35.17,0,0,1,1.56,7s1.35-.63,1.19-1.15l-.28-.93.17-1.36c.12-1,.21-1.39.33-1.46l.77-.5.61-.4,0-.55c0-.3,0-1-.08-1.65l0-1.1,1-.77L126.8,78V75.89l2.41-3.14c1.32-1.73,2.44-3.19,2.49-3.24a2.3,2.3,0,0,1,1,.19l.93.27.39-.44c.25-.27,1.41-2.31,3-5.28l2.61-4.83,1.44-.29,1.44-.29.41-.46c.8-.91.77-.84.65-1.57a7.44,7.44,0,0,0-1-2.3l-.87-1.62-1.2-.75-1.2-.75,0-1.85,0-1.84-1.78-.94-1.77-.94,0-2.44,0-2.44.4-.74.41-.74-.39-.66c-.39-.63-.47-.7-1.48-1.27l-1.08-.61-.24-1.05-.24-1,.17-1.81a10.45,10.45,0,0,0,.09-2c-.12-.2-2.24-3-2.27-3l-1.55.6a4.88,4.88,0,0,1-2.47.6,4.27,4.27,0,0,1-.94-.05l-.53,0a63.79,63.79,0,0,0-9.51,25.49,54.52,54.52,0,0,0-.59,9.2,52,52,0,0,0,.6,9.05C117.2,80.22,117.08,78.07,116.26,70.1Z"/><path class="cls-2" d="M120.49,81.74,119.88,80l.1-3,.11-3,.46-1.62c.25-.89.46-1.68.46-1.74a18,18,0,0,0-.94-1.82l-.94-1.71.08-2.19.08-2.19-.44-2.31c-.24-1.26-.74-3.53-1.11-5s-.71-2.73-.74-2.73a23,23,0,0,0-.59,3.45,68.87,68.87,0,0,0-.15,14c.82,8,6.1,20.51,6.1,20.51l-.31-1.92A35.17,35.17,0,0,0,120.49,81.74Z"/><path class="cls-2" d="M212.58,103l1.16-1.16a50.88,50.88,0,0,1-82.89-23.26l-.09.36c-.26,1.18-.55,2.34-.87,3.5-.08.27-.15.54-.23.81-.56,1.92-1.21,3.81-1.93,5.66l-.14.35Q126.43,92.18,125,95h0l-.38.76h0l-.06.11h0l-.08.16-.14.27h0l0,.06a64,64,0,0,0,55.32,31.76,66.78,66.78,0,0,0,24.17-4.74,64.35,64.35,0,0,0,18-11.14Z"/></g></g></svg>