<?xml version="1.0" encoding="utf-8"?>
<!-- Generator: Adobe Illustrator 19.0.0, SVG Export Plug-In . SVG Version: 6.00 Build 0)  -->
<svg version="1.1" id="Layer_1" xmlns="http://www.w3.org/2000/svg" xmlns:xlink="http://www.w3.org/1999/xlink" x="0px" y="0px"
	 viewBox="0 0 500 500" style="enable-background:new 0 0 500 500;" xml:space="preserve">
<path id="XMLID_3_" d="M195,179.9c39.9,15.9,57.7,65.5,57.7,65.5s-47,23.8-87,7.9S108,187.7,108,187.7S155,163.9,195,179.9z"/>
<path id="XMLID_5_" d="M344.1,231.4c-39.2,17.6-87.2-4.3-87.2-4.3s15.7-50.3,54.9-67.9s87.2,4.3,87.2,4.3S383.4,213.9,344.1,231.4z"
	/>
<polygon id="XMLID_4_" points="260.9,349 239.1,349 239.1,237.7 252.6,242.1 "/>
<rect id="XMLID_6_" x="234.3" y="231.3" transform="matrix(0.4768 -0.879 0.879 0.4768 -86.1967 336.6217)" width="10.8" height="18.9"/>
<polygon id="XMLID_13_" points="238.1,240.7 248.1,244.6 272.7,231.2 265.7,218.3 258.7,222.1 252.6,227.1 "/>
<g id="XMLID_27_">
	<path id="XMLID_29_" d="M250,349c-78.3,0-146,18.6-178.3,45.5c2.8,3.5,8.2,10.5,8.2,10.5c2.2,8,72.1,81.3,175.5,81.3
		s148.2-65.5,164.3-81.5c3-3.3,5.8-6.7,8.6-10.2C396,367.6,328.3,349,250,349z"/>
</g>
<g id="XMLID_7_">
	<path id="XMLID_33_" d="M250,500C112.2,500,0,387.9,0,250S112.2,0,250,0s250,112.2,250,250S387.9,500,250,500z M250,27.3
		C127.2,27.3,27.3,127.2,27.3,250c0,122.8,99.9,222.7,222.7,222.7S472.7,372.8,472.7,250C472.7,127.2,372.8,27.3,250,27.3z"/>
	<path id="XMLID_21_" d="M250,493.2C115.9,493.2,6.8,384.1,6.8,250C6.8,115.9,115.9,6.8,250,6.8S493.2,115.9,493.2,250
		C493.2,384.1,384.1,493.2,250,493.2z M250,20.5c-126.6,0-229.5,103-229.5,229.5s103,229.5,229.5,229.5s229.5-103,229.5-229.5
		S376.6,20.5,250,20.5z"/>
</g>
</svg>
