<?xml version="1.0" encoding="utf-8"?>
<!-- Generator: Adobe Illustrator 19.0.0, SVG Export Plug-In . SVG Version: 6.00 Build 0)  -->
<svg version="1.1" id="Layer_1" xmlns="http://www.w3.org/2000/svg" xmlns:xlink="http://www.w3.org/1999/xlink" x="0px" y="0px"
	 viewBox="0 0 500 500" style="enable-background:new 0 0 500 500;" xml:space="preserve">
<path id="XMLID_48_" d="M250.1,0C112.3,0,0.2,112.1,0.2,249.9s112.1,249.9,249.9,249.9S500,387.7,500,249.9S387.9,0,250.1,0z
	 M250.1,472.5c-122.8,0-222.6-99.9-222.6-222.6c0-122.8,99.9-222.6,222.6-222.6s222.6,99.9,222.6,222.6
	C472.7,372.7,372.9,472.5,250.1,472.5z"/>
<path id="XMLID_40_" d="M421.5,306.5l-5.5-1.6c-22.6-6.7-41.5-22.9-51.7-43.9c0.7,0.2,1.5,0.3,2.3,0.5c3.9,0.7,7.8,1.1,11.6,1.1
	c13.8,0,26.6-4.9,37.5-14.5c3.3-2.9,3.6-7.8,0.7-11.1c-2.8-3.3-7.8-3.6-11.1-0.7c-24.5,21.4-52.1,3.9-53.3,3.1l0,0
	c-9.7-9.5-24.1-13.6-37.9-9.6c-12.2,3.5-25-3.5-28.5-15.6l-0.8-2.7c4.1,1.4,8.3,2.2,12.6,2.2c4.9,0,9.7-0.9,14.3-2.8
	c3.9-1.6,6-6,4.6-10c-1.5-4.2-6.3-6.3-10.4-4.6c-5.9,2.5-12.2,2.3-18-0.4c-5.7-2.7-9.9-7.6-11.7-13.7l-11.1-37.7
	c-1.2-4.2-1.9-8.5-2-12.9h-15.8c-0.1,4.5-0.9,8.9-2.5,13.2c-2.6,7.1-6.8,18.2-10.1,26.5c-2.9,7.3-8.4,13.2-15.4,16.7
	c-13.8,6.8-37.8,13.8-63.2-2.1c-3.8-2.4-8.9-1.1-11,2.9c-2,3.7-0.6,8.3,2.9,10.5c12.8,8,26.6,12,40.8,12c5.9,0,11.8-0.7,17.8-2.1
	c-8.7,7.2-18.6,13.1-29.4,17.2c-19.7,7.6-36.8,20.1-49.8,35.9c-13.5,1.6-60.5,9.5-67.9,44.8c-0.9,4.2,1.8,8.4,6.1,9.3
	c0.5,0.1,1.1,0.2,1.6,0.2c3.6,0,6.9-2.5,7.7-6.2c2.4-11.6,12.4-20.6,29.6-26.7c3.6-1.3,7.2-2.3,10.6-3.1
	c-5.4,9.6-9.5,20.1-12.1,31.1l-4.6,19.4c-1,4.2,1.6,8.4,5.8,9.4c0.6,0.1,1.2,0.2,1.8,0.2c3.5,0,6.8-2.4,7.6-6l4.6-19.4
	c6.7-28.1,24.5-51.9,48.8-66.4c-2.5,14.6-1.5,36.1,15.7,59.1c1.5,2.1,3.9,3.1,6.3,3.1c1.8,0,3.6-0.6,5.1-1.9
	c3.2-2.7,3.5-7.5,1.1-10.8c-20.3-27.2-12.5-51.1-9.3-58.5c23.7-9.8,43.4-26.7,56.6-48.2l-2.8,17.1c-1.8,11.4,1.8,23.2,10.4,30.9
	c4,3.6,6.2,8.8,5.9,14.2c-0.2,5.4-2.8,10.3-7.1,13.6l-22.2,17c-3.3,2.5-4.3,7.2-2,10.6c1.5,2.4,4,3.6,6.6,3.6c1.7,0,3.3-0.5,4.8-1.6
	l13.3-10.2c1.5,8.6,1.6,21.2-7.3,31.9c-2.7,3.3-2.6,8.2,0.5,11.1c1.5,1.4,3.4,2.1,5.3,2.1c2.2,0,4.4-0.9,6-2.8
	c16.5-19.5,12.1-42.8,8.9-53.1c5.3-5.8,8.5-13.3,8.9-21.4c0.4-10-3.6-19.7-11-26.5c-4.5-4.1-6.6-10.2-5.6-16.2l4.8-29.9l10.7,36.5
	c2.2,7.6,6.6,14,12.3,18.7c4.1,5,27.8,35.5,14.2,57.7c-2.1,3.4-1.6,7.9,1.5,10.5c1.5,1.2,3.2,1.8,5,1.8c2.6,0,5.2-1.3,6.7-3.7
	c9-14.4,8.9-32.6-0.3-52.5c-0.7-1.6-1.5-3.2-2.3-4.7c3.6,0,7.3-0.5,11-1.5c11.6-3.4,23.9,2.9,28,14.2c5.7,15.6,15.3,29.3,27.5,40.1
	c-0.5,2-1,4.4-1.3,7.2c-1,10.1,1.3,20.7,6.5,30.7c1.4,2.7,4.1,4.2,7,4.2c1.4,0,2.8-0.4,4-1.1c3.6-2.1,4.7-6.9,2.8-10.6
	c-4.1-8-5-14.9-4.8-20c7.2,4.4,15.1,7.9,23.3,10.4l5.8,1.7c0.7,0.2,1.5,0.3,2.2,0.3c3.5,0,6.7-2.4,7.6-6
	C428.1,311.8,425.5,307.7,421.5,306.5z"/>
<g id="XMLID_62_">
	<path id="XMLID_63_" d="M207.5,35.6c3.1,0,6.1-0.2,9.2-0.5c17.2,18.1,27.6,40.9,30.1,65.5h17.1c2.8-23.7,13.1-45.7,29.5-63.2
		c2.5,0.3,5,0.4,7.4,0.4c4.4,0,8.8-0.4,13.1-1.2c-11.1-3.3-22.5-5.8-34.2-7.3c-10.5,11.8-18.6,25.2-24,39.6
		c-4.6-12.8-19-33.4-24.3-40.8c-12.9,1.1-25.5,3.2-37.7,6.4C198.2,35.3,202.8,35.6,207.5,35.6z"/>
</g>
<g id="XMLID_31_">
	<path id="XMLID_39_" d="M49.1,146.5c30.7,8,76,2,108-0.8C189,143,217.7,130,250.2,132c31.1,1.9,61.4,10.2,92.6,11
		c14.9,0.4,29.7-1.2,44.2-4.7c15.9-3.9,37.3,1.3,54,4.1c7.7,1.3,13.9-1.8,17.8-6.7c7.7-9.5-20.4-29.3-26.3-29
		c-23.6,1.2-50.1-1.8-74.4,0.1c-32,2.5-63.9-6.3-95.5-9.7c-31.4-3.4-58.7,2.5-89.1,9.7c-34.5,8.1-81.4,13.9-114.8,5.1
		c-22.4-5.9-28.8,25.9-6.4,31.8L49.1,146.5z"/>
</g>
</svg>
