<?xml version="1.0" encoding="utf-8"?>
<!-- Generator: Adobe Illustrator 19.0.0, SVG Export Plug-In . SVG Version: 6.00 Build 0)  -->
<svg version="1.1" id="Layer_1" xmlns="http://www.w3.org/2000/svg" xmlns:xlink="http://www.w3.org/1999/xlink" x="0px" y="0px"
	 viewBox="0 0 500 500" style="enable-background:new 0 0 500 500;" xml:space="preserve">
<style type="text/css">
	.st0{fill:#010101;}
</style>
<path id="XMLID_69_" d="M250.1,0C112.2,0,0,112.2,0,250.1s112.2,250.1,250.1,250.1S500.2,388,500.2,250.1S388,0,250.1,0z M250.1,473
	C127.3,473,27.3,373,27.3,250.1c0-122.9,100-222.8,222.8-222.8S473,127.2,473,250.1C473,373,373,473,250.1,473z"/>
<g id="XMLID_46_">
	<path id="XMLID_47_" class="st0" d="M0.3,261.3c-0.2,0.9-0.3,1.9-0.3,2.9c0,1.7,0.3,3.2,0.8,4.8C0.6,266.4,0.4,263.9,0.3,261.3z"/>
	<path id="XMLID_49_" class="st0" d="M472.9,246.7c-13.5-2.5-25.9-9.4-35-20c-3.1-3.6-7.6-5.7-12.4-5.7c-4.8,0-9.3,2.1-12.4,5.7
		c-11.6,13.4-28.4,21.1-46,21.1s-34.5-7.7-46-21.1c-3.1-3.6-7.6-5.7-12.4-5.7c-4.8,0-9.3,2.1-12.4,5.7c-11.6,13.4-28.4,21.1-46,21.1
		c-17.7,0-34.5-7.7-46-21.1c-3.1-3.6-7.6-5.7-12.4-5.7c-4.8,0-9.3,2.1-12.4,5.7c-11.6,13.4-28.4,21.1-46,21.1
		c-17.7,0-34.5-7.7-46-21.1c-3.1-3.6-7.6-5.7-12.4-5.7c-4.8,0-9.3,2.1-12.4,5.7c-9.1,10.6-21.5,17.6-35,20c0,1.1-0.1,2.3-0.1,3.4
		c0,10,0.7,19.8,2,29.5c14.4-2,28-7.3,39.9-15.4c1.9-1.3,3.8-2.7,5.6-4.2c1.8,1.5,3.7,2.8,5.6,4.2c15.4,10.6,33.8,16.4,52.8,16.4
		c19,0,37.4-5.8,52.8-16.4c1.9-1.3,3.8-2.7,5.6-4.2c1.8,1.5,3.7,2.8,5.6,4.2c15.4,10.6,33.8,16.4,52.8,16.4c19,0,37.4-5.8,52.8-16.4
		c1.9-1.3,3.8-2.7,5.6-4.2c1.8,1.5,3.7,2.8,5.6,4.2c15.4,10.6,33.8,16.4,52.8,16.4s37.4-5.8,52.8-16.4c1.9-1.3,3.8-2.7,5.6-4.2
		c1.8,1.5,3.7,2.8,5.6,4.2c11.9,8.1,25.5,13.4,39.9,15.4c1.3-9.7,2-19.5,2-29.5C473,249,472.9,247.8,472.9,246.7z"/>
	<path id="XMLID_50_" class="st0" d="M499.5,268.9c0.5-1.5,0.8-3.1,0.8-4.7c0-1-0.1-1.9-0.3-2.8
		C499.8,263.9,499.7,266.4,499.5,268.9z"/>
</g>
<g id="XMLID_60_">
	<path id="XMLID_61_" class="st0" d="M437.8,313.8c-3.1-3.6-7.6-5.7-12.4-5.7c-4.8,0-9.3,2.1-12.4,5.7c-11.6,13.4-28.4,21.1-46,21.1
		s-34.5-7.7-46-21.1c-3.1-3.6-7.6-5.7-12.4-5.7c-4.8,0-9.3,2.1-12.4,5.7c-11.6,13.4-28.4,21.1-46,21.1s-34.5-7.7-46-21.1
		c-3.1-3.6-7.6-5.7-12.4-5.7c-4.8,0-9.3,2.1-12.4,5.7c-11.6,13.4-28.4,21.1-46,21.1s-34.5-7.7-46-21.1c-3.1-3.6-7.6-5.7-12.4-5.7
		c-4.8,0-9.3,2.1-12.4,5.7c-5.7,6.7-12.8,11.9-20.5,15.5c3.9,10.3,8.6,20.1,13.9,29.6c4.7-2.2,9.2-4.7,13.4-7.6
		c1.9-1.3,3.8-2.7,5.6-4.2c1.8,1.5,3.7,2.8,5.6,4.2c15.4,10.6,33.8,16.4,52.8,16.4c19,0,37.4-5.8,52.8-16.4c1.9-1.3,3.8-2.7,5.6-4.2
		c1.8,1.5,3.7,2.8,5.6,4.2c15.4,10.6,33.8,16.4,52.8,16.4c19,0,37.4-5.8,52.8-16.4c1.9-1.3,3.8-2.7,5.6-4.2c1.8,1.5,3.7,2.8,5.6,4.2
		c15.4,10.6,33.8,16.4,52.8,16.4s37.4-5.8,52.8-16.4c1.9-1.3,3.8-2.7,5.6-4.2c1.8,1.5,3.7,2.8,5.6,4.2c4.3,2.9,8.8,5.4,13.4,7.6
		c5.3-9.5,10-19.4,13.9-29.6C450.6,325.7,443.6,320.5,437.8,313.8z"/>
</g>
</svg>
