<?xml version="1.0" encoding="utf-8"?>
<!-- Generator: Adobe Illustrator 19.0.0, SVG Export Plug-In . SVG Version: 6.00 Build 0)  -->
<svg version="1.1" id="Layer_1" xmlns="http://www.w3.org/2000/svg" xmlns:xlink="http://www.w3.org/1999/xlink" x="0px" y="0px"
	 viewBox="0 0 500 500" style="enable-background:new 0 0 500 500;" xml:space="preserve">
<g id="XMLID_12_">
	<path id="XMLID_14_" d="M338.7,348.7l-206.5-1.9c-30.2-7.3-52.4-34.5-52.4-66.8c0-35.6,27.2-65,61.9-68.4
		C154.9,166,196.6,134,245,134c37.3,0,71.3,19,90.9,50.3c0.7,0,1.3,0,2,0c45.4,0,82.3,36.9,82.3,82.3c0,40.2-29.4,74.1-67.8,81
		L338.7,348.7z M147.6,321.5l190.9,0c29.9-0.4,54.3-25,54.3-55c0-30.3-24.7-55-55-55c-2.5,0-5,0.2-7.6,0.5l-9.6,1.3l-4.4-8.6
		c-13.8-26.8-41.1-43.5-71.3-43.5c-39,0-72.2,27.8-78.9,66.2l-2.1,12.1l-12.3-0.9c-1-0.1-2-0.1-3.1-0.1c-22.9,0-41.5,18.6-41.5,41.5
		c0,22.2,17.3,40.3,39.4,41.4L147.6,321.5z"/>
</g>
<g id="XMLID_16_">
	<path id="XMLID_36_" d="M250,500C112.2,500,0,387.9,0,250S112.2,0,250,0s250,112.2,250,250S387.9,500,250,500z M250,27.3
		C127.2,27.3,27.3,127.2,27.3,250c0,122.8,99.9,222.7,222.7,222.7S472.7,372.8,472.7,250C472.7,127.2,372.8,27.3,250,27.3z"/>
	<path id="XMLID_17_" d="M250,493.2C115.9,493.2,6.8,384.1,6.8,250C6.8,115.9,115.9,6.8,250,6.8S493.2,115.9,493.2,250
		C493.2,384.1,384.1,493.2,250,493.2z M250,20.5c-126.6,0-229.5,103-229.5,229.5s103,229.5,229.5,229.5s229.5-103,229.5-229.5
		S376.6,20.5,250,20.5z"/>
</g>
</svg>
