<?xml version="1.0" encoding="utf-8"?>
<!-- Generator: Adobe Illustrator 16.0.0, SVG Export Plug-In . SVG Version: 6.00 Build 0)  -->
<!DOCTYPE svg PUBLIC "-//W3C//DTD SVG 1.1//EN" "http://www.w3.org/Graphics/SVG/1.1/DTD/svg11.dtd">
<svg version="1.1" id="Layer_1" xmlns="http://www.w3.org/2000/svg" xmlns:xlink="http://www.w3.org/1999/xlink" x="0px" y="0px"
	 width="500px" height="500px" viewBox="0 0 500 500" enable-background="new 0 0 500 500" xml:space="preserve">
<path id="XMLID_69_" fill="#539A37" d="M250.1,0C112.2,0,0,112.2,0,250.1s112.2,250.1,250.1,250.1c137.9,0,250.1-112.2,250.1-250.1
	S388,0,250.1,0z M250.1,473C127.3,473,27.3,373,27.3,250.1s100-222.8,222.8-222.8S473,127.2,473,250.1S373,473,250.1,473z"/>
<g id="XMLID_46_">
	<path id="XMLID_47_" fill="#539A37" d="M0.3,261.3c-0.2,0.9-0.3,1.9-0.3,2.9c0,1.7,0.3,3.2,0.8,4.8C0.6,266.4,0.4,263.9,0.3,261.3z
		"/>
	<path id="XMLID_49_" fill="#539A37" d="M472.9,246.7c-13.5-2.5-25.899-9.4-35-20c-3.1-3.6-7.6-5.7-12.399-5.7
		c-4.801,0-9.301,2.1-12.4,5.7c-11.6,13.4-28.4,21.1-46,21.1s-34.5-7.7-46-21.1c-3.1-3.6-7.6-5.7-12.4-5.7
		c-4.8,0-9.3,2.1-12.399,5.7c-11.6,13.4-28.4,21.1-46,21.1c-17.7,0-34.5-7.7-46-21.1c-3.1-3.6-7.6-5.7-12.4-5.7
		c-4.8,0-9.3,2.1-12.399,5.7c-11.601,13.4-28.4,21.1-46,21.1c-17.7,0-34.5-7.7-46-21.1C84.4,223.1,79.9,221,75.1,221
		s-9.3,2.1-12.399,5.7c-9.101,10.6-21.5,17.6-35,20c0,1.1-0.101,2.3-0.101,3.4c0,10,0.7,19.8,2,29.5c14.4-2,28-7.3,39.9-15.399
		c1.899-1.3,3.8-2.7,5.6-4.2c1.8,1.5,3.7,2.8,5.601,4.2C96.1,274.8,114.5,280.6,133.5,280.6s37.399-5.8,52.8-16.399
		c1.9-1.3,3.8-2.7,5.6-4.2c1.801,1.5,3.7,2.8,5.601,4.2c15.399,10.6,33.8,16.399,52.8,16.399s37.4-5.8,52.8-16.399
		c1.9-1.3,3.8-2.7,5.6-4.2c1.801,1.5,3.7,2.8,5.601,4.2c15.399,10.6,33.8,16.399,52.8,16.399s37.4-5.8,52.8-16.399
		c1.9-1.3,3.8-2.7,5.601-4.2c1.8,1.5,3.699,2.8,5.6,4.2C443,272.3,456.6,277.6,471,279.6c1.3-9.699,2-19.5,2-29.5
		C473,249,472.9,247.8,472.9,246.7z"/>
	<path id="XMLID_50_" fill="#539A37" d="M499.5,268.9c0.5-1.5,0.8-3.101,0.8-4.7c0-1-0.101-1.9-0.3-2.8
		C499.8,263.9,499.699,266.4,499.5,268.9z"/>
</g>
<g id="XMLID_60_">
	<path id="XMLID_61_" fill="#539A37" d="M437.8,313.8c-3.101-3.6-7.601-5.7-12.4-5.7s-9.3,2.101-12.399,5.7
		C401.4,327.2,384.6,334.9,367,334.9c-17.601,0-34.5-7.7-46-21.101c-3.101-3.6-7.601-5.7-12.4-5.7s-9.3,2.101-12.399,5.7
		c-11.601,13.4-28.4,21.101-46,21.101c-17.601,0-34.5-7.7-46-21.101c-3.101-3.6-7.601-5.7-12.4-5.7s-9.3,2.101-12.4,5.7
		C167.8,327.2,151,334.9,133.4,334.9c-17.6,0-34.5-7.7-46-21.101c-3.1-3.6-7.6-5.7-12.399-5.7s-9.3,2.101-12.4,5.7
		c-5.7,6.7-12.8,11.9-20.5,15.5C46,339.6,50.7,349.4,56,358.9c4.7-2.2,9.2-4.7,13.399-7.601c1.9-1.3,3.801-2.7,5.601-4.2
		c1.8,1.5,3.7,2.801,5.6,4.2c15.4,10.601,33.8,16.4,52.8,16.4s37.4-5.8,52.801-16.4c1.899-1.3,3.8-2.7,5.6-4.2
		c1.8,1.5,3.7,2.801,5.6,4.2c15.4,10.601,33.801,16.4,52.801,16.4s37.399-5.8,52.8-16.4c1.899-1.3,3.8-2.7,5.6-4.2
		c1.8,1.5,3.7,2.801,5.6,4.2C329.6,361.9,348,367.7,367,367.7s37.399-5.8,52.8-16.4c1.899-1.3,3.8-2.7,5.6-4.2
		c1.8,1.5,3.7,2.801,5.601,4.2c4.3,2.9,8.8,5.4,13.399,7.601c5.3-9.5,10-19.4,13.9-29.601C450.6,325.7,443.6,320.5,437.8,313.8z"/>
</g>
</svg>
