<?xml version="1.0" encoding="utf-8"?>
<!-- Generator: Adobe Illustrator 16.0.0, SVG Export Plug-In . SVG Version: 6.00 Build 0)  -->
<!DOCTYPE svg PUBLIC "-//W3C//DTD SVG 1.1//EN" "http://www.w3.org/Graphics/SVG/1.1/DTD/svg11.dtd">
<svg version="1.1" id="Layer_1" xmlns="http://www.w3.org/2000/svg" xmlns:xlink="http://www.w3.org/1999/xlink" x="0px" y="0px"
	 width="500px" height="500px" viewBox="0 0 500 500" enable-background="new 0 0 500 500" xml:space="preserve">
<path id="XMLID_48_" fill="#539A37" d="M250.1,0C112.3,0,0.2,112.1,0.2,249.9c0,137.8,112.1,249.9,249.899,249.9
	S500,387.7,500,249.9C500,112.1,387.9,0,250.1,0z M250.1,472.5c-122.8,0-222.6-99.9-222.6-222.6c0-122.8,99.899-222.6,222.6-222.6
	s222.6,99.9,222.6,222.6C472.699,372.7,372.9,472.5,250.1,472.5z"/>
<path id="XMLID_40_" fill="#539A37" d="M421.5,306.5l-5.5-1.6c-22.601-6.7-41.5-22.9-51.7-43.9c0.7,0.2,1.5,0.3,2.3,0.5
	c3.899,0.7,7.8,1.1,11.6,1.1c13.8,0,26.601-4.899,37.5-14.5c3.3-2.9,3.601-7.8,0.7-11.1c-2.8-3.3-7.8-3.6-11.1-0.7
	c-24.5,21.4-52.101,3.9-53.3,3.1l0,0c-9.7-9.5-24.101-13.6-37.9-9.6c-12.2,3.5-25-3.5-28.5-15.6l-0.8-2.7c4.1,1.4,8.3,2.2,12.6,2.2
	c4.9,0,9.7-0.9,14.3-2.8c3.9-1.6,6-6,4.601-10c-1.5-4.2-6.3-6.3-10.4-4.6c-5.899,2.5-12.199,2.3-18-0.4
	c-5.699-2.7-9.899-7.6-11.699-13.7L265.1,144.5c-1.2-4.2-1.899-8.5-2-12.9h-15.8c-0.1,4.5-0.9,8.9-2.5,13.2
	c-2.6,7.1-6.8,18.2-10.1,26.5c-2.9,7.3-8.4,13.2-15.4,16.7c-13.8,6.8-37.8,13.8-63.2-2.1c-3.8-2.4-8.899-1.1-11,2.9
	c-2,3.7-0.6,8.3,2.9,10.5c12.8,8,26.6,12,40.8,12c5.9,0,11.8-0.7,17.8-2.1c-8.7,7.2-18.6,13.1-29.399,17.2
	c-19.7,7.6-36.801,20.1-49.801,35.9c-13.5,1.601-60.5,9.5-67.899,44.8c-0.9,4.2,1.8,8.4,6.1,9.301c0.5,0.1,1.101,0.199,1.601,0.199
	c3.6,0,6.899-2.5,7.699-6.199C77.3,298.8,87.3,289.8,104.5,283.7c3.6-1.3,7.2-2.3,10.6-3.101C109.7,290.2,105.6,300.7,103,311.7
	L98.4,331.1c-1,4.2,1.601,8.4,5.801,9.4c0.6,0.1,1.199,0.2,1.8,0.2c3.5,0,6.8-2.4,7.6-6l4.601-19.4
	c6.699-28.1,24.5-51.899,48.8-66.4c-2.5,14.6-1.5,36.1,15.7,59.1c1.5,2.1,3.899,3.1,6.3,3.1c1.8,0,3.6-0.6,5.1-1.899
	c3.2-2.7,3.5-7.5,1.101-10.8c-20.301-27.2-12.5-51.101-9.301-58.5c23.7-9.8,43.4-26.7,56.601-48.2l-2.8,17.1
	c-1.801,11.4,1.8,23.2,10.399,30.9c4,3.6,6.2,8.8,5.9,14.2c-0.2,5.399-2.8,10.3-7.101,13.6l-22.199,17c-3.301,2.5-4.301,7.2-2,10.6
	c1.5,2.4,4,3.601,6.6,3.601c1.7,0,3.3-0.5,4.8-1.601l13.3-10.199c1.5,8.6,1.601,21.199-7.3,31.899c-2.7,3.3-2.6,8.2,0.5,11.101
	c1.5,1.399,3.4,2.1,5.3,2.1c2.2,0,4.4-0.9,6-2.8c16.5-19.5,12.101-42.8,8.9-53.101c5.3-5.8,8.5-13.3,8.9-21.399
	c0.399-10-3.601-19.7-11-26.5c-4.5-4.1-6.601-10.2-5.601-16.2l4.8-29.9l10.7,36.5c2.2,7.6,6.601,14,12.3,18.7
	c4.101,5,27.8,35.5,14.2,57.7c-2.1,3.4-1.6,7.9,1.5,10.5c1.5,1.2,3.2,1.8,5,1.8c2.6,0,5.2-1.3,6.7-3.7c9-14.399,8.899-32.6-0.3-52.5
	c-0.7-1.6-1.5-3.2-2.301-4.7c3.601,0,7.301-0.5,11-1.5c11.601-3.4,23.9,2.9,28,14.2C352.4,274.7,362,288.4,374.199,299.2
	c-0.5,2-1,4.399-1.3,7.2c-1,10.1,1.3,20.699,6.5,30.699c1.4,2.7,4.101,4.2,7,4.2c1.4,0,2.8-0.399,4-1.1
	c3.601-2.101,4.7-6.9,2.8-10.601c-4.1-8-5-14.899-4.8-20c7.2,4.4,15.101,7.9,23.3,10.4l5.801,1.7c0.699,0.2,1.5,0.3,2.199,0.3
	c3.5,0,6.7-2.4,7.601-6C428.1,311.8,425.5,307.7,421.5,306.5z"/>
<g id="XMLID_62_">
	<path id="XMLID_63_" fill="#539A37" d="M207.5,35.6c3.1,0,6.1-0.2,9.2-0.5c17.199,18.1,27.6,40.9,30.1,65.5h17.1
		C266.7,76.9,277,54.9,293.4,37.4c2.5,0.3,5,0.4,7.4,0.4c4.399,0,8.8-0.4,13.1-1.2c-11.1-3.3-22.5-5.8-34.199-7.3
		c-10.5,11.8-18.601,25.2-24,39.6c-4.601-12.8-19-33.4-24.301-40.8c-12.899,1.1-25.5,3.2-37.699,6.4
		C198.2,35.3,202.8,35.6,207.5,35.6z"/>
</g>
<g id="XMLID_31_">
	<path id="XMLID_39_" fill="#539A37" d="M49.1,146.5c30.7,8,76,2,108-0.8C189,143,217.7,130,250.2,132c31.1,1.9,61.399,10.2,92.6,11
		c14.899,0.4,29.7-1.2,44.2-4.7c15.899-3.9,37.3,1.3,54,4.1c7.699,1.3,13.899-1.8,17.8-6.7c7.7-9.5-20.4-29.3-26.3-29
		c-23.601,1.2-50.101-1.8-74.4,0.1c-32,2.5-63.899-6.3-95.5-9.7c-31.399-3.4-58.7,2.5-89.1,9.7c-34.5,8.1-81.4,13.9-114.8,5.1
		c-22.4-5.9-28.801,25.9-6.4,31.8L49.1,146.5z"/>
</g>
</svg>
