<?xml version="1.0" encoding="utf-8"?>
<!-- Generator: Adobe Illustrator 16.0.0, SVG Export Plug-In . SVG Version: 6.00 Build 0)  -->
<!DOCTYPE svg PUBLIC "-//W3C//DTD SVG 1.1//EN" "http://www.w3.org/Graphics/SVG/1.1/DTD/svg11.dtd">
<svg version="1.1" id="Layer_1" xmlns="http://www.w3.org/2000/svg" xmlns:xlink="http://www.w3.org/1999/xlink" x="0px" y="0px"
	 width="500px" height="500px" viewBox="0 0 500 500" enable-background="new 0 0 500 500" xml:space="preserve">
<g id="XMLID_12_">
	<path id="XMLID_14_" d="M338.699,348.7L132.2,346.8c-30.2-7.3-52.4-34.5-52.4-66.8c0-35.6,27.2-65,61.9-68.4
		C154.9,166,196.6,134,245,134c37.3,0,71.3,19,90.899,50.3c0.7,0,1.3,0,2,0c45.4,0,82.3,36.9,82.3,82.3
		c0,40.2-29.399,74.101-67.8,81L338.699,348.7z M147.6,321.5h190.9c29.899-0.4,54.3-25,54.3-55c0-30.3-24.7-55-55-55
		c-2.5,0-5,0.2-7.601,0.5l-9.6,1.3l-4.4-8.6c-13.8-26.8-41.1-43.5-71.3-43.5c-39,0-72.199,27.8-78.899,66.2l-2.101,12.1l-12.3-0.9
		c-1-0.1-2-0.1-3.1-0.1c-22.9,0-41.5,18.6-41.5,41.5c0,22.2,17.3,40.3,39.399,41.4L147.6,321.5z"/>
</g>
<g id="XMLID_16_">
	<path id="XMLID_36_" d="M250,500C112.2,500,0,387.9,0,250C0,112.1,112.2,0,250,0s250,112.2,250,250S387.9,500,250,500z M250,27.3
		C127.2,27.3,27.3,127.2,27.3,250S127.2,472.7,250,472.7S472.699,372.8,472.699,250S372.8,27.3,250,27.3z"/>
	<path id="XMLID_17_" d="M250,493.2C115.9,493.2,6.8,384.1,6.8,250C6.8,115.9,115.9,6.8,250,6.8
		c134.1,0,243.199,109.1,243.199,243.2C493.199,384.1,384.1,493.2,250,493.2z M250,20.5C123.4,20.5,20.5,123.5,20.5,250
		s103,229.5,229.5,229.5s229.5-103,229.5-229.5S376.6,20.5,250,20.5z"/>
</g>
</svg>
