<?xml version="1.0" encoding="utf-8"?>
<!-- Generator: Adobe Illustrator 16.0.0, SVG Export Plug-In . SVG Version: 6.00 Build 0)  -->
<!DOCTYPE svg PUBLIC "-//W3C//DTD SVG 1.1//EN" "http://www.w3.org/Graphics/SVG/1.1/DTD/svg11.dtd">
<svg version="1.1" id="Layer_1" xmlns="http://www.w3.org/2000/svg" xmlns:xlink="http://www.w3.org/1999/xlink" x="0px" y="0px"
	 width="500px" height="500px" viewBox="0 0 500 500" enable-background="new 0 0 500 500" xml:space="preserve">
<g id="XMLID_51_">
	<path id="XMLID_56_" d="M250,500C112.1,500,0,387.9,0,250C0,112.1,112.1,0,250,0C387.9,0,500,112.2,500,250S387.9,500,250,500z
		 M250,27.3C127.2,27.3,27.3,127.2,27.3,250S127.2,472.7,250,472.7S472.699,372.8,472.699,250S372.8,27.3,250,27.3z"/>
	<path id="XMLID_52_" d="M250,493.2C115.9,493.2,6.8,384.1,6.8,250C6.8,115.9,115.9,6.8,250,6.8
		c134.1,0,243.199,109.1,243.199,243.2C493.199,384.1,384.1,493.2,250,493.2z M250,20.5C123.4,20.5,20.5,123.5,20.5,250
		s103,229.5,229.5,229.5s229.5-103,229.5-229.5S376.6,20.5,250,20.5z"/>
</g>
<polygon id="XMLID_1_" points="136.9,253.8 253.8,94 363.1,249.5 289.7,238.6 308.699,406 197.8,406 215.8,240.2 "/>
</svg>
