<?xml version="1.0" encoding="utf-8"?>
<!-- Generator: Adobe Illustrator 16.0.0, SVG Export Plug-In . SVG Version: 6.00 Build 0)  -->
<!DOCTYPE svg PUBLIC "-//W3C//DTD SVG 1.1//EN" "http://www.w3.org/Graphics/SVG/1.1/DTD/svg11.dtd">
<svg version="1.1" id="Layer_1" xmlns="http://www.w3.org/2000/svg" xmlns:xlink="http://www.w3.org/1999/xlink" x="0px" y="0px"
	 width="4185.654px" height="3240px" viewBox="0 0 4185.654 3240" enable-background="new 0 0 4185.654 3240" xml:space="preserve">
<g id="Layer_1_1_" display="none">
	<g id="mountains" display="inline">
		<g>
			<polygon fill="#9BA1A4" points="699.001,1410.064 768.516,1346.202 876.652,1292.988 988.65,1236.73 1100.648,1143.982 
				1114.809,1136.38 1131.546,1112.053 1149.566,1101.408 1198.484,1109.012 1253.842,1071 1288.599,1095.326 1327.219,1121.176 
				1423.77,1156.146 1454.664,1178.952 1497.146,1183.515 1542.203,1183.515 1567.949,1171.352 1609.145,1174.392 
				1633.604,1159.188 1717.281,1134.859 1730.154,1153.105 1752.039,1177.433 1779.072,1189.597 1856.313,1239.771 
				1907.807,1259.537 1946.427,1276.264 2021.092,1302.111 2088.033,1341.645 2193.594,1410.064 2330.052,1489.13 2408.578,1518.02 
				2501.266,1552.989 2630.001,1603.166 699.001,1612.284 			"/>
			<polygon fill="#FFFFFE" points="1248.691,1095.326 1277.013,1118.135 1310.482,1136.38 1369.701,1160.707 1377.426,1175.911 
				1403.172,1175.911 1440.505,1218.485 1440.505,1227.608 1524.182,1265.619 1580.823,1259.537 1615.581,1296.029 
				1636.179,1302.111 1717.281,1329.479 1741.74,1329.479 1795.809,1343.161 1837.003,1349.243 1781.646,1355.325 
				1762.338,1344.686 1695.396,1346.202 1673.512,1341.645 1643.902,1331 1668.362,1349.243 1691.534,1355.325 1636.179,1355.325 
				1602.71,1355.325 1589.835,1361.407 1520.318,1361.407 1506.158,1352.284 1379.999,1353.809 1368.413,1334.038 
				1345.241,1326.438 1436.643,1327.959 1422.48,1309.714 1412.183,1274.741 1392.874,1265.619 1352.966,1276.264 
				1325.932,1282.346 1302.76,1276.264 1262.852,1261.059 1231.956,1248.896 1216.509,1261.059 1198.484,1271.701 
				1163.727,1273.223 1208.784,1242.813 1244.829,1224.567 1251.266,1216.965 1298.896,1213.924 1286.024,1198.72 
				1284.736,1186.556 1260.277,1172.87 1298.896,1172.87 1304.048,1162.229 1289.887,1148.543 1270.576,1136.38 1247.404,1113.572 
							"/>
			<polygon fill="#FFFFFE" points="1137.98,1128.777 1184.324,1128.777 1179.177,1142.462 1149.566,1165.27 1152.141,1174.392 
				1149.566,1192.638 1157.292,1197.198 1158.578,1203.28 1163.727,1203.28 1171.451,1216.965 1179.177,1220.006 1184.324,1226.088 
				1161.152,1223.047 1150.854,1215.444 1127.682,1212.403 1114.809,1209.362 1110.947,1203.28 1116.096,1186.556 
				1126.395,1177.433 1137.98,1168.311 1140.555,1163.748 1144.417,1162.229 1156.004,1148.543 1152.141,1142.462 
				1140.555,1139.421 1136.693,1134.859 			"/>
			<polygon fill="#FFFFFE" points="1709.557,1162.229 1714.706,1168.311 1721.143,1168.311 1725.006,1188.075 1741.74,1204.802 
				1753.326,1204.802 1757.188,1213.924 1772.637,1220.006 1782.936,1247.375 1795.809,1247.375 1809.969,1241.293 1846.014,1264.1 
				1862.749,1267.141 1878.197,1283.865 1900.083,1286.906 1916.816,1296.029 1927.116,1297.55 1942.564,1308.193 
				1952.863,1326.438 1963.161,1332.521 1978.609,1326.438 2010.794,1326.438 2030.104,1344.686 2040.4,1361.407 2024.953,1361.407 
				1997.919,1355.325 1961.876,1340.12 1943.852,1338.604 1909.094,1321.878 1884.635,1315.796 1878.197,1334.038 
				1867.898,1326.438 1855.025,1334.038 1849.878,1332.521 1856.313,1327.959 1856.313,1317.314 1871.761,1303.632 
				1840.865,1300.591 1824.13,1292.988 1802.244,1294.51 1793.232,1283.865 1761.051,1274.741 1731.441,1268.659 1699.259,1271.701 
				1676.087,1277.782 1659.352,1282.346 1692.821,1267.141 1701.833,1254.979 1710.844,1254.979 1719.855,1244.332 
				1730.154,1238.252 1714.706,1236.73 1721.143,1229.129 1713.419,1210.883 1718.568,1200.239 1709.557,1180.474 			"/>
			<polygon fill="#375259" points="1234.531,1107.49 1238.393,1115.094 1239.68,1127.258 1248.691,1140.941 1229.382,1143.982 
				1228.094,1153.105 1242.256,1168.311 1242.256,1175.911 1234.531,1166.788 1224.232,1156.146 1204.923,1157.666 
				1188.188,1162.229 1174.026,1162.229 1176.601,1153.105 1192.05,1142.462 1192.05,1133.339 1199.771,1131.818 1211.359,1128.777 
							"/>
			<polygon fill="#375259" points="1104.51,1160.707 1095.499,1171.352 1082.626,1175.911 1072.326,1191.115 1059.453,1207.842 
				1045.294,1218.485 1029.845,1229.129 1023.408,1236.73 993.8,1256.498 983.501,1261.059 969.341,1267.141 948.742,1282.346 
				913.984,1297.55 880.514,1315.796 871.503,1323.396 885.663,1317.314 915.271,1305.152 935.869,1294.51 956.468,1288.428 
				973.202,1299.07 987.363,1312.755 993.8,1314.275 1024.695,1331 1047.867,1344.686 1037.568,1324.918 1058.167,1327.959 
				1071.039,1334.038 1083.912,1338.604 1098.073,1340.12 1107.085,1344.686 1126.395,1344.686 1132.831,1338.604 
				1125.107,1327.959 1110.947,1317.314 1098.073,1294.51 1089.063,1282.346 1083.912,1265.619 1072.326,1245.854 
				1069.753,1235.211 1064.604,1235.211 1062.028,1226.088 1076.188,1224.567 1087.775,1221.526 1076.188,1212.403 
				1076.188,1198.72 1095.499,1185.033 1095.499,1175.911 1104.51,1172.87 1109.659,1169.829 1109.659,1162.229 			"/>
		</g>
		<g>
			<polygon fill="#9BA1A4" points="0,1356.064 69.516,1292.204 177.652,1238.988 289.65,1182.73 401.648,1089.982 415.809,1082.38 
				432.546,1058.053 450.566,1047.408 499.484,1055.012 554.842,1017 589.599,1041.326 628.219,1067.176 724.77,1102.146 
				755.664,1124.952 798.146,1129.515 843.203,1129.515 868.949,1117.352 910.145,1120.392 934.604,1105.188 1018.281,1080.859 
				1031.154,1099.105 1053.039,1123.433 1080.072,1135.597 1157.313,1185.771 1208.807,1205.537 1247.427,1222.264 
				1322.092,1248.111 1389.033,1287.645 1494.594,1356.064 1631.052,1435.13 1709.578,1464.02 1802.268,1498.989 1931.001,1549.166 
				730.001,1602.668 0,1602.668 			"/>
			<polygon fill="#FFFFFE" points="549.691,1041.326 578.013,1064.135 611.482,1082.38 670.701,1106.707 678.426,1121.911 
				704.172,1121.911 741.505,1164.485 741.505,1173.608 825.181,1211.619 881.823,1205.537 916.581,1242.029 937.179,1248.111 
				1018.281,1275.479 1042.74,1275.479 1096.809,1289.163 1138.003,1295.245 1082.646,1301.325 1063.338,1290.686 996.396,1292.204 
				974.512,1287.645 944.902,1277 969.362,1295.245 992.534,1301.325 937.179,1301.325 903.708,1301.325 890.835,1307.407 
				821.318,1307.407 807.158,1298.284 680.999,1299.808 669.413,1280.041 646.241,1272.438 737.643,1273.959 723.48,1255.714 
				713.183,1220.741 693.873,1211.619 653.966,1222.264 626.932,1228.346 603.76,1222.264 563.852,1207.059 532.956,1194.896 
				517.509,1207.059 499.484,1217.701 464.727,1219.223 509.784,1188.813 545.829,1170.567 552.266,1162.965 599.896,1159.924 
				587.023,1144.72 585.736,1132.556 561.277,1118.87 599.896,1118.87 605.048,1108.229 590.887,1094.543 571.576,1082.38 
				548.404,1059.572 			"/>
			<polygon fill="#FFFFFE" points="438.98,1074.777 485.324,1074.777 480.177,1088.462 450.566,1111.27 453.141,1120.392 
				450.566,1138.638 458.291,1143.198 459.578,1149.28 464.727,1149.28 472.451,1162.965 480.177,1166.006 485.324,1172.088 
				462.152,1169.047 451.854,1161.444 428.682,1158.403 415.809,1155.362 411.947,1149.28 417.096,1132.556 427.395,1123.433 
				438.98,1114.311 441.555,1109.748 445.417,1108.229 457.004,1094.543 453.141,1088.462 441.555,1085.421 437.693,1080.859 			"/>
			<polygon fill="#FFFFFE" points="1010.557,1108.229 1015.706,1114.311 1022.143,1114.311 1026.006,1134.075 1042.74,1150.802 
				1054.326,1150.802 1058.188,1159.924 1073.637,1166.006 1083.936,1193.375 1096.809,1193.375 1110.969,1187.293 1147.014,1210.1 
				1163.749,1213.141 1179.197,1229.865 1201.083,1232.906 1217.816,1242.029 1228.116,1243.55 1243.564,1254.193 
				1253.863,1272.438 1264.161,1278.521 1279.609,1272.438 1311.794,1272.438 1331.104,1290.686 1341.4,1307.407 1325.953,1307.407 
				1298.919,1301.325 1262.874,1286.123 1244.852,1284.604 1210.094,1267.878 1185.635,1261.796 1179.197,1280.041 
				1168.898,1272.438 1156.025,1280.041 1150.878,1278.521 1157.313,1273.959 1157.313,1263.314 1172.761,1249.632 
				1141.865,1246.591 1125.13,1238.988 1103.244,1240.51 1094.232,1229.865 1062.051,1220.741 1032.441,1214.659 1000.259,1217.701 
				977.087,1223.782 960.352,1228.346 993.821,1213.141 1002.832,1200.979 1011.844,1200.979 1020.855,1190.332 1031.154,1184.252 
				1015.706,1182.73 1022.143,1175.129 1014.419,1156.883 1019.568,1146.239 1010.557,1126.474 			"/>
			<polygon fill="#375259" points="535.531,1053.49 539.393,1061.094 540.68,1073.258 549.691,1086.941 530.382,1089.982 
				529.094,1099.105 543.256,1114.311 543.256,1121.911 535.531,1112.788 525.232,1102.146 505.923,1103.666 489.188,1108.229 
				475.026,1108.229 477.601,1099.105 493.05,1088.462 493.05,1079.339 500.771,1077.818 512.359,1074.777 			"/>
			<polygon fill="#375259" points="405.51,1106.707 396.498,1117.352 383.626,1121.911 373.326,1137.115 360.453,1153.842 
				346.294,1164.485 330.845,1175.129 324.408,1182.73 294.799,1202.498 284.5,1207.059 270.34,1213.141 249.742,1228.346 
				214.984,1243.55 181.514,1261.796 172.503,1269.396 186.663,1263.314 216.271,1251.152 236.869,1240.51 257.467,1234.428 
				274.202,1245.07 288.363,1258.755 294.799,1260.275 325.695,1277 348.867,1290.686 338.568,1270.918 359.166,1273.959 
				372.039,1280.041 384.912,1284.604 399.073,1286.123 408.085,1290.686 427.395,1290.686 433.831,1284.604 426.107,1273.959 
				411.947,1263.314 399.073,1240.51 390.063,1228.346 384.912,1211.619 373.326,1191.854 370.753,1181.211 365.603,1181.211 
				363.028,1172.088 377.188,1170.567 388.775,1167.526 377.188,1158.403 377.188,1144.72 396.498,1131.033 396.498,1121.911 
				405.51,1118.87 410.659,1115.829 410.659,1108.229 			"/>
		</g>
	</g>
	<g id="rocks" display="inline">
		<g>
			<g>
				<polygon fill="#5E2D18" points="1196.066,1516.221 1187.26,1421.861 1168.704,1410.482 1170.732,1403.221 1152.501,1403.221 
					1152.501,1392.221 1165.501,1392.221 1153.501,1365.57 1144.489,1373.555 1138.827,1347.357 1128.535,1323.221 
					1107.501,1323.221 1102.29,1313.078 1119.787,1309.229 1114.641,1304.986 1110.523,1262.211 1077.074,1236.017 
					1062.665,1258.271 1047.227,1302.221 1038.501,1302.221 1021.501,1324.416 1021.501,1398.221 1009.16,1406.282 
					1001.941,1516.221 				"/>
				<polygon fill="#492614" points="1128.501,1324.221 1118.501,1324.221 1120.816,1355.277 1131.624,1384.361 1144.489,1373.555 
					1138.827,1347.607 				"/>
				<polygon fill="#5E2D18" points="1077.074,1236 1073.594,1241.316 1083.251,1263.691 1110.523,1262.181 				"/>
				<polygon fill="#512717" points="1087.501,1323.221 1087.501,1263.221 1109.523,1262.181 				"/>
				<polygon fill="#B47857" points="1045.8,1370.586 1043.684,1316.109 1046.872,1301.686 1065.501,1259.573 1065.501,1252.221 
					1073.094,1241.316 1083.001,1263.691 1076.434,1320.813 1059.001,1335.737 				"/>
				<polygon fill="#945626" points="1151.501,1404.221 1160.501,1404.221 1164.573,1417.545 1151.501,1465.936 				"/>
				<polygon fill="#B47857" points="1021.779,1398.471 1032.708,1375.984 1049.744,1459.541 1047.167,1526 1001.501,1517.221 
					1009.41,1406.532 				"/>
				<polygon fill="#8B522D" points="1017.38,1515.334 1021.779,1398.471 1009.41,1406.032 1001.501,1516.221 				"/>
				<polygon fill="#803F21" points="1032.242,1376.038 1062.501,1398.471 1062.501,1384.221 1085.322,1423.222 1087.719,1455.052 
					1095.667,1547.679 1047.167,1526 1049.464,1459.041 				"/>
				<polygon fill="#492614" points="1085.355,1406.117 1067.501,1434.575 1067.501,1542.788 1114.251,1545.25 1095.419,1448.657 
									"/>
				<polygon fill="#A76D50" points="1038.938,1301.613 1047.53,1301.631 1025.501,1381.021 1025.501,1319.221 				"/>
				<polygon fill="#5E2D18" points="1082.751,1263.691 1087.501,1263.221 1087.501,1323.221 1110.023,1262.181 1114.391,1304.923 
					1119.662,1309.104 1102.229,1312.828 1107.469,1322.721 1118.484,1323.221 1120.809,1354.777 1083.246,1331.105 
					1063.465,1341.318 1063.499,1398.471 1032.74,1376.038 1021.779,1398.471 1025.501,1381.021 1043.335,1316.015 
					1047.28,1301.631 1045.8,1370.586 1059.063,1335.737 1076.311,1320.813 				"/>
				<polygon fill="#8B522D" points="1080.279,1337.281 1068.501,1344.485 1064.77,1386.438 1088.501,1438.657 1092.059,1364.557 
									"/>
				<polygon fill="#5E2D18" points="1178.798,1322.887 1145.841,1371.482 1139.751,1368.875 1122.999,1382.891 1111.837,1444.291 
					1098.529,1448.657 1082.664,1500.781 1084.001,1541.868 1219.546,1580.25 1230.277,1517.431 1238.716,1486.957 
					1227.76,1474.896 1222.132,1440.709 1218.402,1435.432 1211.624,1442.657 1208.766,1397.698 1203.087,1388.369 
					1198.585,1386.444 1204.65,1355.668 1194.247,1336.939 				"/>
				<polygon fill="#5E2D18" points="1194.887,1427.689 1169.247,1398.985 1151.835,1404.694 1144.093,1432.416 1141.872,1445.084 
					1144.534,1467.656 1151.48,1471.678 1152.159,1516.99 1160.255,1517.262 1165.087,1488.921 1176.749,1480.797 
					1184.428,1456.528 1190.344,1459.061 1198.284,1446.538 				"/>
				<polygon fill="#B47857" points="1178.3,1327.133 1179.712,1347.945 1168.509,1374.115 1166.389,1391.698 1148.111,1397.974 
					1132.73,1424.547 1140.912,1382.918 1164.255,1345.652 				"/>
				<polygon fill="#B47857" points="1141.254,1371.646 1128.1,1382.633 1117.51,1427.113 1136.908,1388.375 				"/>
				<polygon fill="#803F21" points="1154.536,1408.063 1165.327,1403.104 1172.111,1428.816 1158.243,1493.133 1153.007,1458.502 
					1146.239,1439.409 				"/>
				<polygon fill="#492614" points="1123.607,1423.424 1141.887,1445.073 1144.54,1467.651 1159.177,1516.829 1172.646,1566.24 
					1115.924,1550.907 				"/>
				<polygon fill="#B47857" points="1111.837,1444.291 1123.607,1423.424 1118.948,1501.86 1102.2,1485.567 				"/>
				<polygon fill="#8B522D" points="1098.529,1448.657 1111.837,1444.291 1102.2,1485.567 1084.251,1540.291 1082.664,1500.781 				
					"/>
				<polygon fill="#945626" points="1214.673,1462.596 1219.546,1481.055 1203.893,1517.615 1185.507,1570.612 1194.18,1517.476 
					1195.57,1494.442 1203.934,1489.823 				"/>
				<polygon fill="#492614" points="1210.887,1445.868 1200.48,1447.803 1204.57,1455.298 1211.007,1451.987 				"/>
				<polygon fill="#803F21" points="1188.521,1429.908 1172.65,1444.605 1169.93,1477.605 				"/>
				<polygon fill="#492614" points="1197.253,1454.907 1194.79,1467.49 1185.223,1463.396 1164.573,1554.123 1169.93,1566.24 
					1189.462,1487.932 1202.857,1468.893 				"/>
				<polygon fill="#492614" points="1198.585,1386.444 1194.911,1429.906 1198.284,1446.538 1211.624,1442.657 1208.766,1397.698 
					1203.087,1388.369 				"/>
				<polygon fill="#8B522D" points="1183.398,1344.689 1193.934,1362.888 1176.941,1393.021 1181.499,1362.125 				"/>
				<polygon fill="#512717" points="1047.227,1302.221 1021.779,1398.471 1032.74,1376.038 1044.15,1384.361 				"/>
				<polygon fill="#B47857" points="1025.501,1319.221 1021.501,1324.416 1021.779,1398.471 1025.001,1386.281 				"/>
				<polygon fill="#512717" points="1110.023,1262.181 1077.074,1236 1073.094,1241.316 1082.751,1263.691 				"/>
				<polygon fill="#5E2D18" points="1110.023,1262.181 1087.501,1323.221 1102.229,1312.828 1119.662,1309.104 1114.391,1304.923 
									"/>
			</g>
			<g>
				<polygon fill="#5E2D18" points="1241.148,1612.221 1249.956,1517.861 1268.512,1506.482 1266.482,1499.221 1284.716,1499.221 
					1284.716,1488.221 1271.716,1488.221 1283.716,1461.569 1292.729,1469.555 1298.389,1443.357 1308.68,1419.221 
					1329.716,1419.221 1334.927,1409.078 1317.43,1405.229 1322.575,1400.986 1326.691,1358.211 1360.141,1332.017 
					1374.552,1354.271 1389.989,1398.221 1398.716,1398.221 1415.716,1420.416 1415.716,1494.221 1428.055,1502.282 
					1435.274,1612.221 				"/>
				<polygon fill="#492614" points="1308.716,1420.221 1318.716,1420.221 1316.4,1451.277 1305.594,1480.36 1292.729,1469.555 
					1298.389,1443.607 				"/>
				<polygon fill="#5E2D18" points="1360.141,1332 1363.622,1337.316 1353.968,1359.691 1326.691,1358.181 				"/>
				<polygon fill="#512717" points="1349.716,1419.221 1349.716,1359.221 1327.691,1358.181 				"/>
				<polygon fill="#B47857" points="1391.417,1466.584 1393.534,1412.109 1390.344,1397.686 1371.716,1355.573 1371.716,1348.221 
					1364.122,1337.316 1354.218,1359.691 1360.782,1416.813 1378.216,1431.737 				"/>
				<polygon fill="#945626" points="1285.716,1500.221 1276.716,1500.221 1272.643,1513.546 1285.716,1561.936 				"/>
				<polygon fill="#B47857" points="1415.436,1494.471 1404.509,1471.985 1387.471,1555.541 1389.475,1613.221 1437.001,1631.25 
					1427.805,1502.532 				"/>
				<polygon fill="#8B522D" points="1419.93,1624.774 1415.436,1494.471 1427.805,1502.032 1437.001,1631.25 				"/>
				<polygon fill="#803F21" points="1404.975,1472.038 1374.716,1494.471 1374.716,1480.221 1351.893,1519.222 1349.497,1551.052 
					1345.282,1611.721 1389.538,1612.221 1387.753,1555.041 				"/>
				<polygon fill="#492614" points="1351.859,1502.118 1369.716,1530.575 1369.716,1612.221 1330.173,1611.721 1341.798,1544.657 
									"/>
				<polygon fill="#A76D50" points="1398.277,1397.613 1389.686,1397.631 1411.716,1477.021 1411.716,1415.221 				"/>
				<polygon fill="#5E2D18" points="1354.468,1359.691 1349.716,1359.221 1349.716,1419.221 1327.191,1358.181 1322.825,1400.923 
					1317.555,1405.104 1334.989,1408.828 1329.747,1418.721 1318.73,1419.221 1316.407,1450.777 1353.971,1427.105 
					1373.753,1437.318 1373.718,1494.471 1404.475,1472.038 1415.436,1494.471 1411.716,1477.021 1393.882,1412.015 
					1389.936,1397.631 1391.417,1466.584 1378.152,1431.737 1360.907,1416.813 				"/>
				<polygon fill="#8B522D" points="1356.936,1433.281 1368.716,1440.485 1372.446,1482.438 1348.716,1534.657 1345.157,1460.557 
									"/>
				<polygon fill="#5E2D18" points="1258.419,1418.887 1291.376,1467.482 1297.466,1464.875 1314.219,1478.891 1325.38,1540.291 
					1338.688,1544.657 1354.552,1596.781 1353.927,1613.613 1206.938,1613.431 1198.501,1582.957 1209.456,1570.896 
					1215.087,1536.709 1218.813,1531.432 1225.591,1538.657 1228.452,1493.698 1234.13,1484.37 1238.634,1482.444 
					1232.566,1451.668 1242.969,1432.938 				"/>
				<polygon fill="#5E2D18" points="1242.329,1523.689 1267.969,1494.985 1285.382,1500.694 1293.124,1528.416 1295.344,1541.084 
					1292.684,1563.656 1285.734,1567.678 1285.057,1612.99 1276.962,1613.262 1272.13,1584.922 1260.468,1576.798 
					1252.788,1552.528 1246.874,1555.061 1238.934,1542.538 				"/>
				<polygon fill="#B47857" points="1258.917,1423.133 1257.505,1443.945 1268.708,1470.114 1270.827,1487.698 1289.104,1493.975 
					1304.486,1520.547 1296.303,1478.916 1272.964,1441.652 				"/>
				<polygon fill="#B47857" points="1295.964,1467.645 1309.118,1478.633 1319.706,1523.113 1300.307,1484.375 				"/>
				<polygon fill="#803F21" points="1282.68,1504.063 1271.889,1499.104 1265.104,1524.816 1278.973,1589.134 1284.21,1554.503 
					1290.977,1535.409 				"/>
				<polygon fill="#492614" points="1313.607,1519.424 1295.329,1541.073 1292.677,1563.651 1278.042,1612.829 1317.93,1613.059 
									"/>
				<polygon fill="#B47857" points="1325.38,1540.291 1313.607,1519.424 1318.268,1597.86 1335.016,1581.567 				"/>
				<polygon fill="#8B522D" points="1338.688,1544.657 1325.38,1540.291 1335.016,1581.567 1353.927,1613.613 1354.552,1596.781 
									"/>
				<polygon fill="#945626" points="1222.544,1558.596 1217.671,1577.055 1233.323,1613.615 1243.038,1613.476 1241.646,1590.442 
					1233.282,1585.823 				"/>
				<polygon fill="#492614" points="1226.329,1541.868 1236.736,1543.803 1232.645,1551.299 1226.21,1547.987 				"/>
				<polygon fill="#803F21" points="1248.693,1525.908 1264.564,1540.605 1267.286,1573.605 				"/>
				<polygon fill="#492614" points="1239.964,1550.907 1242.427,1563.49 1251.993,1559.396 1264.568,1613.091 1255.152,1613.473 
					1247.755,1583.932 1234.359,1564.893 				"/>
				<polygon fill="#492614" points="1238.634,1482.444 1242.305,1525.906 1238.934,1542.538 1225.591,1538.657 1228.452,1493.698 
					1234.13,1484.37 				"/>
				<polygon fill="#8B522D" points="1253.816,1440.689 1243.282,1458.887 1260.273,1489.021 1255.718,1458.123 				"/>
				<polygon fill="#512717" points="1389.989,1398.221 1415.436,1494.471 1404.475,1472.038 1393.064,1480.36 				"/>
				<polygon fill="#B47857" points="1411.716,1415.221 1415.716,1420.416 1415.436,1494.471 1412.216,1482.281 				"/>
				<polygon fill="#512717" points="1327.191,1358.181 1360.141,1332 1364.122,1337.316 1354.468,1359.691 				"/>
				<polygon fill="#5E2D18" points="1327.191,1358.181 1349.716,1419.221 1334.989,1408.828 1317.555,1405.104 1322.825,1400.923 
									"/>
			</g>
		</g>
		<polygon fill="#5E2D18" points="1101.077,1312.765 1119.662,1309.104 1128.535,1323.221 1118.501,1324.221 1107.264,1324.221 		
			"/>
		<polygon fill="#5E2D18" points="1336.13,1408.765 1317.544,1405.104 1308.671,1419.221 1318.706,1420.221 1329.941,1420.221 		"/>
	</g>
	<g id="sea" display="inline">
		<g>
			<polygon opacity="0.9" fill="#FFFFFF" enable-background="new    " points="4186.374,1506.577 4169.374,1501.293 
				4131.374,1492.048 4091.374,1500.634 3916.374,1500.634 3838.374,1487.425 3762.374,1478.179 3655.064,1506.383 
				3587.374,1497.332 3489.374,1500.634 3357.374,1486.104 3273.374,1497.332 3069.374,1497.332 3041.374,1492.048 
				3005.374,1500.634 2934.374,1500.634 2874.374,1492.048 2836.374,1478.179 2796.374,1491.388 2698.374,1499.313 
				2536.374,1499.313 2502.374,1491.388 2476.374,1499.313 2393.374,1505.916 2303.374,1491.388 2260.374,1499.313 
				2219.374,1499.313 2173.374,1491.388 2092.374,1506.577 			"/>
		</g>
		<polygon opacity="0.9" fill="#4EBDC8" enable-background="new    " points="4187.374,1502.179 4170.374,1494.179 
			4132.374,1480.179 4092.374,1493.179 3917.374,1493.179 3839.374,1473.179 3763.374,1459.179 3656.064,1501.884 
			3588.374,1488.179 3490.374,1493.179 3358.374,1471.179 3274.374,1488.179 3070.374,1488.179 3042.374,1480.179 
			3006.374,1493.179 2935.374,1493.179 2875.374,1480.179 2837.374,1459.179 2797.374,1479.179 2699.374,1491.179 
			2537.374,1491.179 2503.374,1479.179 2477.374,1491.179 2394.374,1501.179 2304.374,1479.179 2261.374,1491.179 
			2220.374,1491.179 2174.374,1479.179 2093.374,1502.179 		"/>
		<polygon fill="#FFFFFF" points="1125.654,3240 4185.654,3240 4185.654,1502.179 2778.001,1503 1046.619,1516.176 		"/>
		<g opacity="0.9">
			
				<linearGradient id="SVGID_1_" gradientUnits="userSpaceOnUse" x1="1047.2249" y1="-2219.2104" x2="1047.2246" y2="-3957.0322" gradientTransform="matrix(1 0 0 1 1569.4297 5459.2109)">
				<stop  offset="0" style="stop-color:#020304"/>
				<stop  offset="0.2277" style="stop-color:#04464C"/>
				<stop  offset="0.4052" style="stop-color:#055F68"/>
				<stop  offset="0.5718" style="stop-color:#07737F"/>
				<stop  offset="0.5844" style="stop-color:#0A7883"/>
				<stop  offset="0.7232" style="stop-color:#1CA0AC"/>
				<stop  offset="0.7917" style="stop-color:#28B3BF"/>
				<stop  offset="0.8657" style="stop-color:#3AB7C3"/>
				<stop  offset="0.9989" style="stop-color:#4EBDC8"/>
			</linearGradient>
			<polygon fill="url(#SVGID_1_)" points="4185.654,3240 1050.654,3240 1047.654,1516.186 2086.837,1512.893 2093.266,1502.179 
				4185.654,1502.179 			"/>
		</g>
		
			<linearGradient id="SVGID_2_" gradientUnits="userSpaceOnUse" x1="-332.6223" y1="36.7197" x2="-332.6224" y2="-753.0864" gradientTransform="matrix(0.8071 0.5904 -1.0499 1.4354 3133.5515 2728.5537)">
			<stop  offset="0.2203" style="stop-color:#99D4DD;stop-opacity:0"/>
			<stop  offset="1" style="stop-color:#99D4DD"/>
		</linearGradient>
		<polygon opacity="0.3" fill="url(#SVGID_2_)" enable-background="new    " points="2874.055,2619.638 2792.458,2559.95 
			3553.458,1491.334 3587.503,1489.865 3651.585,1502.117 3658.271,1502.117 3701.453,1484.62 		"/>
		
			<linearGradient id="SVGID_3_" gradientUnits="userSpaceOnUse" x1="-5962.2012" y1="209.2764" x2="-5962.2017" y2="-573.6978" gradientTransform="matrix(0.4535 0.3317 -1.3188 1.803 5454.2842 4486.3833)">
			<stop  offset="0.2203" style="stop-color:#99D4DD;stop-opacity:0"/>
			<stop  offset="1" style="stop-color:#99D4DD"/>
		</linearGradient>
		<polygon opacity="0.3" fill="url(#SVGID_3_)" enable-background="new    " points="2502.729,2906.743 2456.88,2873.207 
			3453.956,1487.505 3490.471,1494.214 3531.115,1491.968 		"/>
		
			<linearGradient id="SVGID_4_" gradientUnits="userSpaceOnUse" x1="-2939.6541" y1="169.8628" x2="-2939.6543" y2="-628.187" gradientTransform="matrix(0.6155 0.4502 -0.7904 1.0806 4514.8857 3466.0564)">
			<stop  offset="0.2203" style="stop-color:#99D4DD;stop-opacity:0"/>
			<stop  offset="1" style="stop-color:#99D4DD"/>
		</linearGradient>
		<polygon opacity="0.3" fill="url(#SVGID_4_)" enable-background="new    " points="2606.314,2351.813 2544.087,2306.293 
			3129.844,1488.954 3237.102,1489.446 		"/>
		
			<linearGradient id="SVGID_5_" gradientUnits="userSpaceOnUse" x1="-916.2639" y1="-1586.2695" x2="-916.264" y2="-2378.5898" gradientTransform="matrix(0.8071 0.5904 -0.2366 0.3235 3101.1694 2772.7385)">
			<stop  offset="0.2203" style="stop-color:#99D4DD;stop-opacity:0"/>
			<stop  offset="1" style="stop-color:#99D4DD"/>
		</linearGradient>
		<polygon opacity="0.3" fill="url(#SVGID_5_)" enable-background="new    " points="2780.721,1750.623 2699.124,1690.938 
			2852.91,1467.825 2878.259,1483.738 2935.02,1492.594 2968.385,1494.459 		"/>
		
			<linearGradient id="SVGID_6_" gradientUnits="userSpaceOnUse" x1="-554.7639" y1="101.9712" x2="-554.764" y2="-687.8555" gradientTransform="matrix(0.8071 0.5904 -0.9764 1.3349 3157.0708 2696.2793)">
			<stop  offset="0.2203" style="stop-color:#99D4DD;stop-opacity:0"/>
			<stop  offset="1" style="stop-color:#99D4DD"/>
		</linearGradient>
		<polygon opacity="0.3" fill="url(#SVGID_6_)" enable-background="new    " points="2657.007,2539.431 2575.408,2479.743 
			3280.805,1488.271 3358.986,1471.636 3426.503,1483.857 		"/>
		
			<linearGradient id="SVGID_7_" gradientUnits="userSpaceOnUse" x1="-7864.2285" y1="-128.1504" x2="-7864.229" y2="-920.1025" gradientTransform="matrix(0.4072 0.2978 -0.5904 0.8071 5725.2466 4558.8125)">
			<stop  offset="0.2203" style="stop-color:#99D4DD;stop-opacity:0"/>
			<stop  offset="1" style="stop-color:#99D4DD"/>
		</linearGradient>
		<polygon opacity="0.3" fill="url(#SVGID_7_)" enable-background="new    " points="2621.966,2130.509 2580.802,2100.398 
			3020.178,1488.045 3043.27,1480.674 3088.749,1490.75 		"/>
		
			<linearGradient id="SVGID_8_" gradientUnits="userSpaceOnUse" x1="-21171.1895" y1="-6.353" x2="-21171.1895" y2="-832.8848" gradientTransform="matrix(0.1954 0.1429 -0.7322 1.001 6884.5996 5324.7529)">
			<stop  offset="0.2203" style="stop-color:#99D4DD;stop-opacity:0"/>
			<stop  offset="1" style="stop-color:#99D4DD"/>
		</linearGradient>
		<polygon opacity="0.2" fill="url(#SVGID_8_)" enable-background="new    " points="2760.064,2298.636 2740.311,2284.188 
			3332.658,1477.323 3359.73,1472.227 3369.675,1474.513 		"/>
		
			<linearGradient id="SVGID_9_" gradientUnits="userSpaceOnUse" x1="-22017.6719" y1="-1010.1724" x2="-22017.6719" y2="-1705.5161" gradientTransform="matrix(0.2003 0.1465 -0.3133 0.4283 6761.8232 5435.978)">
			<stop  offset="0.2203" style="stop-color:#99D4DD;stop-opacity:0"/>
			<stop  offset="1" style="stop-color:#99D4DD"/>
		</linearGradient>
		<polygon opacity="0.2" fill="url(#SVGID_9_)" enable-background="new    " points="2682.277,1788.05 2662.033,1773.24 
			2866.578,1476.899 2878.686,1483.738 2893.296,1485.237 		"/>
		
			<linearGradient id="SVGID_10_" gradientUnits="userSpaceOnUse" x1="-45350.4297" y1="-156.4849" x2="-45350.4297" y2="-948.1724" gradientTransform="matrix(0.0983 0.0719 -0.7322 1.001 7407.8818 5707.5601)">
			<stop  offset="0.2203" style="stop-color:#99D4DD;stop-opacity:0"/>
			<stop  offset="1" style="stop-color:#99D4DD"/>
		</linearGradient>
		<polygon opacity="0.3" fill="url(#SVGID_10_)" enable-background="new    " points="3070.389,2294.521 3060.447,2287.248 
			3634.417,1498.767 3650.021,1502.012 		"/>
		
			<linearGradient id="SVGID_11_" gradientUnits="userSpaceOnUse" x1="-47132.8984" y1="-34.3291" x2="-47132.8984" y2="-844.2231" gradientTransform="matrix(0.0983 0.0719 -0.7322 1.001 7407.8818 5707.5601)">
			<stop  offset="0.2203" style="stop-color:#99D4DD;stop-opacity:0"/>
			<stop  offset="1" style="stop-color:#99D4DD"/>
		</linearGradient>
		<polygon opacity="0.3" fill="url(#SVGID_11_)" enable-background="new    " points="2805.395,2288.395 2795.453,2281.121 
			3379.749,1476.077 3400.236,1479.034 		"/>
		
			<linearGradient id="SVGID_12_" gradientUnits="userSpaceOnUse" x1="-49222.7969" y1="68.2017" x2="-49222.7969" y2="-686.1499" gradientTransform="matrix(0.0983 0.0719 -0.7322 1.001 7407.8818 5707.5601)">
			<stop  offset="0.2203" style="stop-color:#99D4DD;stop-opacity:0"/>
			<stop  offset="1" style="stop-color:#99D4DD"/>
		</linearGradient>
		<polygon opacity="0.3" fill="url(#SVGID_12_)" enable-background="new    " points="2525.081,2240.907 2515.141,2233.638 
			3051.102,1483.738 3084.068,1490.666 		"/>
		
			<linearGradient id="SVGID_13_" gradientUnits="userSpaceOnUse" x1="-7059.8809" y1="-2250.041" x2="-7059.8809" y2="-3034.0146" gradientTransform="matrix(0.3795 0.2776 -0.2909 0.3977 5808.6162 4643.3271)">
			<stop  offset="0.2203" style="stop-color:#99D4DD;stop-opacity:0"/>
			<stop  offset="1" style="stop-color:#99D4DD"/>
		</linearGradient>
		<polygon opacity="0.3" fill="url(#SVGID_13_)" enable-background="new    " points="3804.548,1803.741 3766.184,1775.683 
			3962.343,1494.3 4036.023,1494.459 		"/>
		<polygon opacity="0.4" fill="#99D4DD" enable-background="new    " points="2115.193,1508.244 2173.4,1492.928 2201.469,1500.586 
			2197.908,1506.714 		"/>
		<polygon opacity="0.4" fill="#99D4DD" enable-background="new    " points="2210.163,1495.99 2219.354,1499.054 
			2228.544,1499.054 2213.227,1506.714 2204.035,1505.182 2206.143,1501.352 		"/>
		<polygon opacity="0.4" fill="#99D4DD" enable-background="new    " points="2254.585,1499.054 2263.773,1499.054 
			2285.219,1492.928 2269.9,1508.244 2259.178,1506.714 		"/>
		<polygon opacity="0.4" fill="#99D4DD" enable-background="new    " points="2504.26,1488.332 2533.109,1500.586 2549.76,1502.117 
			2536.428,1514.373 2499.667,1506.714 2478.841,1504.031 		"/>
		<polygon opacity="0.4" fill="#99D4DD" enable-background="new    " points="2416.951,1506.714 2395.507,1509.778 
			2378.656,1506.714 2378.656,1515.905 2393.975,1520.5 2413.887,1515.905 2429.206,1506.714 		"/>
		<polygon opacity="0.4" fill="#99D4DD" enable-background="new    " points="2830.525,1471.484 2861.163,1488.332 
			2815.21,1479.142 		"/>
		<polygon opacity="0.4" fill="#99D4DD" enable-background="new    " points="2804.486,1485.27 2758.533,1492.928 
			2771.208,1502.117 2827.464,1492.928 		"/>
		<polygon opacity="0.4" fill="#99D4DD" enable-background="new    " points="2708.766,1501.352 2701.184,1502.117 
			2671.747,1501.352 2683.477,1506.714 2714.113,1512.841 2721.771,1499.054 		"/>
		<polygon opacity="0.4" fill="#99D4DD" enable-background="new    " points="4134.06,1489.865 4157.034,1499.054 
			4168.982,1504.444 4147.747,1504.444 4131.688,1502.117 4105.271,1504.444 4104.954,1497.524 		"/>
		<polygon opacity="0.4" fill="#99D4DD" enable-background="new    " points="3904.294,1499.054 3839.96,1482.204 
			3780.221,1474.546 3757.244,1485.27 3792.475,1486.801 		"/>
		<polygon opacity="0.4" fill="#99D4DD" enable-background="new    " points="4082.479,1502.117 4044.146,1502.117 
			4048.279,1509.778 4069.725,1509.778 		"/>
		
			<linearGradient id="SVGID_14_" gradientUnits="userSpaceOnUse" x1="1677.7371" y1="-3607.2183" x2="2354.1316" y2="-3607.2183" gradientTransform="matrix(1 0 0 1 1569.4297 5459.2109)">
			<stop  offset="0.2203" style="stop-color:#99D4DD;stop-opacity:0"/>
			<stop  offset="1" style="stop-color:#99D4DD"/>
		</linearGradient>
		<polygon opacity="0.3" fill="url(#SVGID_14_)" enable-background="new    " points="3379.561,2244.757 3247.167,2180.689 
			3763.372,1459.229 3923.561,1493.813 		"/>
		
			<linearGradient id="SVGID_15_" gradientUnits="userSpaceOnUse" x1="-19365.5176" y1="-283.4346" x2="-19365.5176" y2="-1074.5801" gradientTransform="matrix(0.1954 0.1429 -0.7322 1.001 6884.5996 5324.7529)">
			<stop  offset="0.2203" style="stop-color:#99D4DD;stop-opacity:0"/>
			<stop  offset="1" style="stop-color:#99D4DD"/>
		</linearGradient>
		<polygon opacity="0.2" fill="url(#SVGID_15_)" enable-background="new    " points="3319.158,2281.784 3299.402,2267.334 
			3870.309,1481.918 3897.367,1489.066 		"/>
		
			<linearGradient id="SVGID_16_" gradientUnits="userSpaceOnUse" x1="-42843.5859" y1="-736.415" x2="-42843.5859" y2="-1544.2554" gradientTransform="matrix(0.1004 0.0734 -0.4998 0.6834 7398.2822 5678.9883)">
			<stop  offset="0.2203" style="stop-color:#99D4DD;stop-opacity:0"/>
			<stop  offset="1" style="stop-color:#99D4DD"/>
		</linearGradient>
		<polygon opacity="0.3" fill="url(#SVGID_16_)" enable-background="new    " points="3470.229,2034.938 3460.083,2024.448 
			3858.341,1479.142 3875.189,1483.738 		"/>
		<polygon opacity="0.4" fill="#99D4DD" enable-background="new    " points="3702.102,1499.054 3656.146,1512.841 
			3617.997,1505.948 3650.021,1525.095 		"/>
		<polygon opacity="0.4" fill="#99D4DD" enable-background="new    " points="3523.736,1502.117 3488.751,1504.444 
			3447.012,1497.155 3460.083,1520.5 3543.391,1512.841 		"/>
		<polygon opacity="0.4" fill="#99D4DD" enable-background="new    " points="3262.484,1499.054 3205.809,1499.054 
			3169.314,1505.948 3220.548,1512.074 		"/>
		<polygon opacity="0.4" fill="#99D4DD" enable-background="new    " points="3060.447,1502.117 3043.552,1494.3 3013.8,1508.826 		
			"/>
		<polygon opacity="0.4" fill="#99D4DD" enable-background="new    " points="3080.857,1501.563 3048.038,1509.778 
			3098.587,1512.841 3119.861,1502.884 		"/>
		<polygon opacity="0.4" fill="#99D4DD" enable-background="new    " points="3355.923,1485.27 3336.009,1494.459 
			3392.277,1489.865 		"/>
		<polygon opacity="0.4" fill="#99D4DD" enable-background="new    " points="3680.884,1512.841 3712.566,1520.5 3650.021,1534.284 
					"/>
		<g>
			<g>
				<g>
					<g>
						<g>
							<defs>
								<rect id="SVGID_17_" x="889.373" y="1308.179" width="1205.001" height="479"/>
							</defs>
							<clipPath id="SVGID_18_">
								<use xlink:href="#SVGID_17_"  overflow="visible"/>
							</clipPath>
							<polygon opacity="0.9" clip-path="url(#SVGID_18_)" fill="#FFFFFF" enable-background="new    " points="3141.374,1516.179 
								3124.374,1508.179 3086.374,1494.179 3046.374,1507.179 2871.374,1507.179 2793.374,1487.179 2717.374,1473.179 
								2610.064,1515.884 2542.374,1502.179 2444.374,1507.179 2312.374,1485.179 2228.374,1502.179 2024.374,1502.179 
								1996.374,1494.179 1960.374,1507.179 1889.374,1507.179 1829.374,1494.179 1791.374,1473.179 1751.374,1493.179 
								1653.374,1505.179 1491.374,1505.179 1457.374,1493.179 1431.374,1505.179 1348.374,1515.179 1258.374,1493.179 
								1215.374,1505.179 1174.374,1505.179 1128.374,1493.179 1047.374,1516.179 							"/>
						</g>
					</g>
				</g>
			</g>
			<g>
				<g>
					<g>
						<g>
							<defs>
								<rect id="SVGID_19_" x="889.373" y="1308.179" width="1205.001" height="479"/>
							</defs>
							<clipPath id="SVGID_20_">
								<use xlink:href="#SVGID_19_"  overflow="visible"/>
							</clipPath>
							<polygon opacity="0.9" clip-path="url(#SVGID_20_)" fill="#4EBDC8" enable-background="new    " points="3142.374,1516.179 
								3125.374,1508.179 3087.374,1494.179 3047.374,1507.179 2872.374,1507.179 2794.374,1487.179 2718.374,1473.179 
								2611.064,1515.884 2543.374,1502.179 2445.374,1507.179 2313.374,1485.179 2229.374,1502.179 2025.374,1502.179 
								1997.374,1494.179 1961.374,1507.179 1890.374,1507.179 1830.374,1494.179 1792.374,1473.179 1752.374,1493.179 
								1654.374,1505.179 1492.374,1505.179 1458.374,1493.179 1432.374,1505.179 1349.374,1515.179 1259.374,1493.179 
								1216.374,1505.179 1175.374,1505.179 1129.374,1493.179 1048.374,1516.179 							"/>
						</g>
					</g>
				</g>
			</g>
			<g>
				<g>
					<g>
						<g>
							<defs>
								<rect id="SVGID_21_" x="889.373" y="1308.179" width="1205.001" height="479"/>
							</defs>
							<clipPath id="SVGID_22_">
								<use xlink:href="#SVGID_21_"  overflow="visible"/>
							</clipPath>
							<polygon opacity="0.4" clip-path="url(#SVGID_22_)" fill="#99D4DD" enable-background="new    " points="1070.192,1522.244 
								1128.399,1506.928 1156.469,1514.586 1152.908,1520.714 							"/>
						</g>
					</g>
				</g>
			</g>
			<g>
				<g>
					<g>
						<g>
							<defs>
								<rect id="SVGID_23_" x="889.373" y="1308.179" width="1205.001" height="479"/>
							</defs>
							<clipPath id="SVGID_24_">
								<use xlink:href="#SVGID_23_"  overflow="visible"/>
							</clipPath>
							<polygon opacity="0.4" clip-path="url(#SVGID_24_)" fill="#99D4DD" enable-background="new    " points="1165.162,1509.99 
								1174.352,1513.054 1183.542,1513.054 1168.225,1520.714 1159.035,1519.182 1161.143,1515.352 							"/>
						</g>
					</g>
				</g>
			</g>
			<g>
				<g>
					<g>
						<g>
							<defs>
								<rect id="SVGID_25_" x="889.373" y="1308.179" width="1205.001" height="479"/>
							</defs>
							<clipPath id="SVGID_26_">
								<use xlink:href="#SVGID_25_"  overflow="visible"/>
							</clipPath>
							<polygon opacity="0.4" clip-path="url(#SVGID_26_)" fill="#99D4DD" enable-background="new    " points="1209.583,1513.054 
								1218.771,1513.054 1240.219,1506.928 1224.899,1522.244 1214.178,1520.714 							"/>
						</g>
					</g>
				</g>
			</g>
			<g>
				<g>
					<g>
						<g>
							<defs>
								<rect id="SVGID_27_" x="889.373" y="1308.179" width="1205.001" height="479"/>
							</defs>
							<clipPath id="SVGID_28_">
								<use xlink:href="#SVGID_27_"  overflow="visible"/>
							</clipPath>
							<polygon opacity="0.4" clip-path="url(#SVGID_28_)" fill="#99D4DD" enable-background="new    " points="1459.26,1502.332 
								1488.109,1514.586 1504.76,1516.117 1491.427,1528.373 1454.667,1520.714 1433.84,1518.031 							"/>
						</g>
					</g>
				</g>
			</g>
			<g>
				<g>
					<g>
						<g>
							<defs>
								<rect id="SVGID_29_" x="889.373" y="1308.179" width="1205.001" height="479"/>
							</defs>
							<clipPath id="SVGID_30_">
								<use xlink:href="#SVGID_29_"  overflow="visible"/>
							</clipPath>
							<polygon opacity="0.4" clip-path="url(#SVGID_30_)" fill="#99D4DD" enable-background="new    " points="1371.951,1520.714 
								1350.506,1523.778 1333.656,1520.714 1333.656,1529.905 1348.975,1534.5 1368.887,1529.905 1384.205,1520.714 							"/>
						</g>
					</g>
				</g>
			</g>
			<g>
				<g>
					<g>
						<g>
							<defs>
								<rect id="SVGID_31_" x="889.373" y="1308.179" width="1205.001" height="479"/>
							</defs>
							<clipPath id="SVGID_32_">
								<use xlink:href="#SVGID_31_"  overflow="visible"/>
							</clipPath>
							<polygon opacity="0.4" clip-path="url(#SVGID_32_)" fill="#99D4DD" enable-background="new    " points="1785.527,1485.484 
								1816.162,1502.332 1770.208,1493.142 							"/>
						</g>
					</g>
				</g>
			</g>
			<g>
				<g>
					<g>
						<g>
							<defs>
								<rect id="SVGID_33_" x="889.373" y="1308.179" width="1205.001" height="479"/>
							</defs>
							<clipPath id="SVGID_34_">
								<use xlink:href="#SVGID_33_"  overflow="visible"/>
							</clipPath>
							<polygon opacity="0.4" clip-path="url(#SVGID_34_)" fill="#99D4DD" enable-background="new    " points="1759.486,1499.27 
								1713.533,1506.928 1726.208,1516.117 1782.463,1506.928 							"/>
						</g>
					</g>
				</g>
			</g>
			<g>
				<g>
					<g>
						<g>
							<defs>
								<rect id="SVGID_35_" x="889.373" y="1308.179" width="1205.001" height="479"/>
							</defs>
							<clipPath id="SVGID_36_">
								<use xlink:href="#SVGID_35_"  overflow="visible"/>
							</clipPath>
							<polygon opacity="0.4" clip-path="url(#SVGID_36_)" fill="#99D4DD" enable-background="new    " points="1663.766,1515.352 
								1656.184,1516.117 1626.746,1515.352 1638.477,1520.714 1669.113,1526.841 1676.771,1513.054 							"/>
						</g>
					</g>
				</g>
			</g>
			<g>
				<g>
					<g>
						<g>
							<defs>
								<rect id="SVGID_37_" x="889.373" y="1308.179" width="1205.001" height="479"/>
							</defs>
							<clipPath id="SVGID_38_">
								<use xlink:href="#SVGID_37_"  overflow="visible"/>
							</clipPath>
							<polygon opacity="0.4" clip-path="url(#SVGID_38_)" fill="#99D4DD" enable-background="new    " points="2217.484,1513.054 
								2160.809,1513.054 2124.314,1519.948 2175.548,1526.074 							"/>
						</g>
					</g>
				</g>
			</g>
			<g>
				<g>
					<g>
						<g>
							<defs>
								<rect id="SVGID_39_" x="889.373" y="1308.179" width="1205.001" height="479"/>
							</defs>
							<clipPath id="SVGID_40_">
								<use xlink:href="#SVGID_39_"  overflow="visible"/>
							</clipPath>
							<polygon opacity="0.4" clip-path="url(#SVGID_40_)" fill="#99D4DD" enable-background="new    " points="2015.449,1516.117 
								1998.552,1508.3 1968.8,1522.826 							"/>
						</g>
					</g>
				</g>
			</g>
			<g>
				<g>
					<g>
						<g>
							<defs>
								<rect id="SVGID_41_" x="889.373" y="1308.179" width="1205.001" height="479"/>
							</defs>
							<clipPath id="SVGID_42_">
								<use xlink:href="#SVGID_41_"  overflow="visible"/>
							</clipPath>
							<polygon opacity="0.4" clip-path="url(#SVGID_42_)" fill="#99D4DD" enable-background="new    " points="2035.857,1515.563 
								2003.037,1523.778 2053.587,1526.841 2074.861,1516.884 							"/>
						</g>
					</g>
				</g>
			</g>
		</g>
	</g>
	<g id="searocks" display="inline">
		<polygon fill="#00292D" points="2347.302,3021 2512.831,2962.405 2848.29,3066.412 2558.243,3066.412 2328.257,3085.455 		"/>
		<polygon fill="#1C1C1C" points="2821.938,3240 2848.29,3066.412 2558.243,3066.412 2328.257,3085.455 2348.708,3240 		"/>
		<polygon fill="#00292D" points="3699.165,3001.674 3768.409,3041.931 3972.919,2987.18 3876.302,3048.373 4113.017,3059.645 
			4185.521,2967.063 4185.521,2926.664 3834.432,2934.039 		"/>
		<polygon fill="#1C1C1C" points="4185.654,3205.365 4181.685,3240 3711.444,3240 3699.165,3001.674 3768.409,3041.931 
			3972.919,2987.18 3876.302,3048.373 4113.017,3059.645 4185.521,2967.063 		"/>
		<polygon fill="#042325" points="3598.085,3081.463 3505.737,3059.252 3398.191,3115.362 3598.085,3143.418 3649.521,3101.334 		
			"/>
		<polygon fill="#1B1B1B" points="3649.311,3102.025 3628.438,3240 3408.139,3240 3398.191,3115.822 3598.259,3143.418 		"/>
	</g>
	
		<linearGradient id="ground_1_" gradientUnits="userSpaceOnUse" x1="-523.2351" y1="-2219.2114" x2="-523.2354" y2="-3950.2114" gradientTransform="matrix(1 0 0 1 1569.4297 5459.2109)">
		<stop  offset="0.1599" style="stop-color:#292618"/>
		<stop  offset="0.5657" style="stop-color:#544519"/>
		<stop  offset="0.6605" style="stop-color:#54461A"/>
		<stop  offset="0.755" style="stop-color:#524A1C"/>
		<stop  offset="0.8495" style="stop-color:#4C5021"/>
		<stop  offset="0.9434" style="stop-color:#3C582C"/>
		<stop  offset="0.9743" style="stop-color:#345B2F"/>
	</linearGradient>
	<polygon id="ground" display="inline" fill="url(#ground_1_)" points="2092.389,3240 0,3240 0,1516.176 515.001,1516.176 
		602.018,1509 932.501,1516.176 1046.619,1516.176 1238.619,1575 1407.619,1610 1570.619,1679 1724.619,1944 1909.619,2101 
		2050.619,2246 2092.389,2499.781 	"/>
	<g id="trees" display="inline">
		
			<image overflow="visible" enable-background="new    " width="778" height="1144" xlink:href="B130F940.png"  transform="matrix(-0.7738 0 0 0.7738 602.0168 666.001)">
		</image>
	</g>
</g>
<g id="guide" display="none">
</g>
<g enable-background="new    ">
	<polygon fill="#E7FDFF" points="3702.81,1346.764 3702.81,1411.513 3914.339,1411.513 3901.381,1364.027 	"/>
	<polygon fill="#FDFFFE" points="3918.655,1463.313 3914.339,1411.513 3590.577,1411.513 3547.407,1463.313 	"/>
	<path fill="#536C6D" d="M4052.469,1476.273c0,0-548.232,4.316-651.834-25.906l17.264,56.117h630.254L4052.469,1476.273z"/>
	<path fill="#E6F2F4" d="M3387.686,1411.513c0,0,168.353,51.791,487.799,38.854l21.579-12.979h168.363l-4.327,38.852
		c0,0-548.221,12.938-660.465-25.873L3387.686,1411.513z"/>
	<path fill="#545F72" d="M3702.81,1364.027h94.967c19.073,0,34.527,15.46,34.527,34.527H3702.81V1364.027z"/>
	<polygon fill="#545F72" points="3694.178,1329.5 3694.178,1346.764 3931.602,1368.343 3931.602,1351.08 	"/>
	<rect x="3780.513" y="1299.278" fill="#545F72" width="34.538" height="12.948"/>
	<rect x="3789.145" y="1312.226" fill="#FDFFFE" width="17.264" height="30.222"/>
	<path fill="#545F72" d="M3818.098,1325.185h19.813c1.682,0,3.047,1.364,3.047,3.046v18.533h-25.906v-18.533
		C3815.052,1326.549,3816.417,1325.185,3818.098,1325.185z"/>
	<path fill="#A3D1D6" d="M3629.43,1420.145c4.78,0,8.632,3.849,8.632,8.632v4.316c0,4.78-3.852,8.632-8.632,8.632
		c-4.787,0-8.632-3.852-8.632-8.632v-4.316C3620.799,1423.994,3624.643,1420.145,3629.43,1420.145z"/>
	<path fill="#A3D1D6" d="M3668.275,1420.145c4.78,0,8.632,3.849,8.632,8.632v4.316c0,4.78-3.852,8.632-8.632,8.632
		c-4.79,0-8.632-3.852-8.632-8.632v-4.316C3659.643,1423.994,3663.485,1420.145,3668.275,1420.145z"/>
	<path fill="#A3D1D6" d="M3707.128,1424.472c4.781,0,8.632,3.85,8.632,8.632v4.314c0,4.783-3.851,8.632-8.632,8.632
		c-4.785,0-8.632-3.849-8.632-8.632v-4.314C3698.496,1428.322,3702.343,1424.472,3707.128,1424.472z"/>
	<path fill="#A3D1D6" d="M3745.975,1424.472c4.787,0,8.633,3.85,8.633,8.632v4.314c0,4.783-3.846,8.632-8.633,8.632
		c-4.781,0-8.631-3.849-8.631-8.632v-4.314C3737.344,1428.322,3741.194,1424.472,3745.975,1424.472z"/>
	<path fill="#A3D1D6" d="M3784.83,1424.472c4.781,0,8.632,3.85,8.632,8.632v4.314c0,4.783-3.851,8.632-8.632,8.632
		s-8.632-3.849-8.632-8.632v-4.314C3776.198,1428.322,3780.049,1424.472,3784.83,1424.472z"/>
	<g>
		<defs>
			<rect id="SVGID_43_" x="3701.817" y="1362.917" width="131.339" height="36.558"/>
		</defs>
		<clipPath id="SVGID_44_">
			<use xlink:href="#SVGID_43_"  overflow="visible"/>
		</clipPath>
		<g clip-path="url(#SVGID_44_)">
			<defs>
				<path id="SVGID_45_" d="M3702.81,1364.027h94.967c19.073,0,34.527,15.46,34.527,34.527H3702.81V1364.027z"/>
			</defs>
			<clipPath id="SVGID_46_">
				<use xlink:href="#SVGID_45_"  overflow="visible"/>
			</clipPath>
			<g clip-path="url(#SVGID_46_)" enable-background="new    ">
				<g>
					<defs>
						<rect id="SVGID_47_" x="3387.686" y="1299.278" width="678.359" height="211.226"/>
					</defs>
					<clipPath id="SVGID_48_">
						<use xlink:href="#SVGID_47_"  overflow="visible"/>
					</clipPath>
					<g opacity="0.3" clip-path="url(#SVGID_48_)" enable-background="new    ">
						<g>
							<defs>
								<rect id="SVGID_49_" x="3387.686" y="1299.278" width="678.359" height="211.226"/>
							</defs>
							<clipPath id="SVGID_50_">
								<use xlink:href="#SVGID_49_"  overflow="visible"/>
							</clipPath>
							<g clip-path="url(#SVGID_50_)">
								<defs>
									<polygon id="SVGID_51_" points="3698.929,1477.775 3690.012,1471.243 3773.225,1354.401 3776.944,1354.237 
										3783.946,1355.576 3784.681,1355.576 3789.399,1353.671 									"/>
								</defs>
								<clipPath id="SVGID_52_">
									<use xlink:href="#SVGID_51_"  overflow="visible"/>
								</clipPath>
								<defs>
									
										<filter id="Adobe_OpacityMaskFilter" filterUnits="userSpaceOnUse" x="3630.91" y="1306.39" width="217.591" height="218.666">
										<feColorMatrix  type="matrix" values="1 0 0 0 0  0 1 0 0 0  0 0 1 0 0  0 0 0 1 0"/>
									</filter>
								</defs>
								<mask maskUnits="userSpaceOnUse" x="3630.91" y="1306.39" width="217.591" height="218.666" id="SVGID_53_">
									<g filter="url(#Adobe_OpacityMaskFilter)">
										
											<linearGradient id="SVGID_54_" gradientUnits="userSpaceOnUse" x1="4261.0811" y1="7770.209" x2="4261.0811" y2="7885.3545" gradientTransform="matrix(0.6075 0.4425 0.7875 -1.08 -4998.8486 7964.4072)">
											<stop  offset="0" style="stop-color:#000000"/>
											<stop  offset="0.22" style="stop-color:#000000"/>
											<stop  offset="0.32" style="stop-color:#1A1A1A"/>
											<stop  offset="0.53" style="stop-color:#5C5C5C"/>
											<stop  offset="0.83" style="stop-color:#C2C2C2"/>
											<stop  offset="1" style="stop-color:#FFFFFF"/>
										</linearGradient>
										<polygon clip-path="url(#SVGID_52_)" fill="url(#SVGID_54_)" points="3724.487,1306.39 3848.503,1396.72 
											3754.924,1525.056 3630.91,1434.725 										"/>
									</g>
								</mask>
								
									<linearGradient id="SVGID_55_" gradientUnits="userSpaceOnUse" x1="4261.0801" y1="7770.209" x2="4261.0801" y2="7885.3525" gradientTransform="matrix(0.6075 0.4425 0.7875 -1.08 -4998.8486 7964.4072)">
									<stop  offset="0" style="stop-color:#D8FFF9"/>
									<stop  offset="0.22" style="stop-color:#D8FFF9"/>
									<stop  offset="0.32" style="stop-color:#D9FFF9"/>
									<stop  offset="0.53" style="stop-color:#DCFFF9"/>
									<stop  offset="0.83" style="stop-color:#E0FFF9"/>
									<stop  offset="1" style="stop-color:#E2FFF9"/>
								</linearGradient>
								<polygon clip-path="url(#SVGID_52_)" mask="url(#SVGID_53_)" fill="url(#SVGID_55_)" points="3724.487,1306.39 
									3848.501,1396.721 3754.924,1525.056 3630.91,1434.725 								"/>
							</g>
						</g>
					</g>
					<g opacity="0.3" clip-path="url(#SVGID_48_)" enable-background="new    ">
						<g>
							<defs>
								<rect id="SVGID_56_" x="3387.686" y="1299.278" width="678.359" height="211.226"/>
							</defs>
							<clipPath id="SVGID_57_">
								<use xlink:href="#SVGID_56_"  overflow="visible"/>
							</clipPath>
							<g clip-path="url(#SVGID_57_)">
								<defs>
									<polygon id="SVGID_58_" points="3658.33,1509.166 3653.311,1505.495 3762.341,1353.983 3766.329,1354.713 
										3770.776,1354.47 									"/>
								</defs>
								<clipPath id="SVGID_59_">
									<use xlink:href="#SVGID_58_"  overflow="visible"/>
								</clipPath>
								<defs>
									
										<filter id="Adobe_OpacityMaskFilter_1_" filterUnits="userSpaceOnUse" x="3579.307" y="1297.967" width="265.472" height="267.216">
										<feColorMatrix  type="matrix" values="1 0 0 0 0  0 1 0 0 0  0 0 1 0 0  0 0 0 1 0"/>
									</filter>
								</defs>
								<mask maskUnits="userSpaceOnUse" x="3579.307" y="1297.967" width="265.472" height="267.216" id="SVGID_60_">
									<g filter="url(#Adobe_OpacityMaskFilter_1_)">
										
											<linearGradient id="SVGID_61_" gradientUnits="userSpaceOnUse" x1="11436.46" y1="7458.6836" x2="11436.46" y2="7572.8252" gradientTransform="matrix(0.3375 0.2475 0.99 -1.35 -7595.5488 8757.125)">
											<stop  offset="0" style="stop-color:#000000"/>
											<stop  offset="0.22" style="stop-color:#000000"/>
											<stop  offset="0.32" style="stop-color:#1A1A1A"/>
											<stop  offset="0.53" style="stop-color:#5C5C5C"/>
											<stop  offset="0.83" style="stop-color:#C2C2C2"/>
											<stop  offset="1" style="stop-color:#FFFFFF"/>
										</linearGradient>
										<polygon clip-path="url(#SVGID_59_)" fill="url(#SVGID_61_)" points="3694.389,1297.967 3844.78,1408.252 
											3729.699,1565.183 3579.307,1454.897 										"/>
									</g>
								</mask>
								
									<linearGradient id="SVGID_62_" gradientUnits="userSpaceOnUse" x1="11436.4561" y1="7458.6826" x2="11436.4561" y2="7572.8252" gradientTransform="matrix(0.3375 0.2475 0.99 -1.35 -7595.5488 8757.125)">
									<stop  offset="0" style="stop-color:#D8FFF9"/>
									<stop  offset="0.22" style="stop-color:#D8FFF9"/>
									<stop  offset="0.32" style="stop-color:#D9FFF9"/>
									<stop  offset="0.53" style="stop-color:#DCFFF9"/>
									<stop  offset="0.83" style="stop-color:#E0FFF9"/>
									<stop  offset="1" style="stop-color:#E2FFF9"/>
								</linearGradient>
								<polygon clip-path="url(#SVGID_59_)" mask="url(#SVGID_60_)" fill="url(#SVGID_62_)" points="3694.388,1297.967 
									3844.779,1408.252 3729.696,1565.183 3579.307,1454.896 								"/>
							</g>
						</g>
					</g>
					<g opacity="0.3" clip-path="url(#SVGID_48_)" enable-background="new    ">
						<g>
							<defs>
								<rect id="SVGID_63_" x="3387.686" y="1299.278" width="678.359" height="211.226"/>
							</defs>
							<clipPath id="SVGID_64_">
								<use xlink:href="#SVGID_63_"  overflow="visible"/>
							</clipPath>
							<g clip-path="url(#SVGID_64_)">
								<defs>
									<polygon id="SVGID_65_" points="3675.197,1469 3666.28,1462.467 3743.411,1354.063 3751.958,1352.249 3759.342,1353.576 
																			"/>
								</defs>
								<clipPath id="SVGID_66_">
									<use xlink:href="#SVGID_65_"  overflow="visible"/>
								</clipPath>
								<defs>
									
										<filter id="Adobe_OpacityMaskFilter_2_" filterUnits="userSpaceOnUse" x="3610.298" y="1308.138" width="205.025" height="204.973">
										<feColorMatrix  type="matrix" values="1 0 0 0 0  0 1 0 0 0  0 0 1 0 0  0 0 0 1 0"/>
									</filter>
								</defs>
								<mask maskUnits="userSpaceOnUse" x="3610.298" y="1308.138" width="205.025" height="204.973" id="SVGID_67_">
									<g filter="url(#Adobe_OpacityMaskFilter_2_)">
										
											<linearGradient id="SVGID_68_" gradientUnits="userSpaceOnUse" x1="4176.1055" y1="7848.7656" x2="4176.1055" y2="7963.9116" gradientTransform="matrix(0.6075 0.4425 0.735 -0.9975 -4638.9951 7454.2393)">
											<stop  offset="0" style="stop-color:#000000"/>
											<stop  offset="0.22" style="stop-color:#000000"/>
											<stop  offset="0.32" style="stop-color:#1A1A1A"/>
											<stop  offset="0.53" style="stop-color:#5C5C5C"/>
											<stop  offset="0.83" style="stop-color:#C2C2C2"/>
											<stop  offset="1" style="stop-color:#FFFFFF"/>
										</linearGradient>
										<polygon clip-path="url(#SVGID_66_)" fill="url(#SVGID_68_)" points="3698.782,1308.139 3815.323,1393.026 
											3726.837,1513.113 3610.298,1428.226 										"/>
									</g>
								</mask>
								
									<linearGradient id="SVGID_69_" gradientUnits="userSpaceOnUse" x1="4176.1025" y1="7848.7646" x2="4176.1025" y2="7963.9097" gradientTransform="matrix(0.6075 0.4425 0.735 -0.9975 -4638.9951 7454.2393)">
									<stop  offset="0" style="stop-color:#D8FFF9"/>
									<stop  offset="0.22" style="stop-color:#D8FFF9"/>
									<stop  offset="0.32" style="stop-color:#D9FFF9"/>
									<stop  offset="0.53" style="stop-color:#DCFFF9"/>
									<stop  offset="0.83" style="stop-color:#E0FFF9"/>
									<stop  offset="1" style="stop-color:#E2FFF9"/>
								</linearGradient>
								<polygon clip-path="url(#SVGID_66_)" mask="url(#SVGID_67_)" fill="url(#SVGID_69_)" points="3698.782,1308.138 
									3815.323,1393.025 3726.837,1513.11 3610.298,1428.223 								"/>
							</g>
						</g>
					</g>
					<g opacity="0.2" clip-path="url(#SVGID_48_)" enable-background="new    ">
						<g>
							<defs>
								<rect id="SVGID_70_" x="3387.686" y="1299.278" width="678.359" height="211.226"/>
							</defs>
							<clipPath id="SVGID_71_">
								<use xlink:href="#SVGID_70_"  overflow="visible"/>
							</clipPath>
							<g clip-path="url(#SVGID_71_)">
								<defs>
									<polygon id="SVGID_72_" points="3686.469,1442.665 3684.303,1441.094 3749.075,1352.868 3752.043,1352.307 
										3753.127,1352.561 									"/>
								</defs>
								<clipPath id="SVGID_73_">
									<use xlink:href="#SVGID_72_"  overflow="visible"/>
								</clipPath>
								<defs>
									
										<filter id="Adobe_OpacityMaskFilter_3_" filterUnits="userSpaceOnUse" x="3640.65" y="1320.423" width="156.132" height="154.126">
										<feColorMatrix  type="matrix" values="1 0 0 0 0  0 1 0 0 0  0 0 1 0 0  0 0 0 1 0"/>
									</filter>
								</defs>
								<mask maskUnits="userSpaceOnUse" x="3640.65" y="1320.423" width="156.132" height="154.126" id="SVGID_74_">
									<g filter="url(#Adobe_OpacityMaskFilter_3_)">
										
											<linearGradient id="SVGID_75_" gradientUnits="userSpaceOnUse" x1="34651.2031" y1="8349.8525" x2="34651.2031" y2="8470.3613" gradientTransform="matrix(0.15 0.105 0.5475 -0.75 -6009.8711 3965.8335)">
											<stop  offset="0" style="stop-color:#000000"/>
											<stop  offset="0.22" style="stop-color:#000000"/>
											<stop  offset="0.32" style="stop-color:#1A1A1A"/>
											<stop  offset="0.53" style="stop-color:#5C5C5C"/>
											<stop  offset="0.83" style="stop-color:#C2C2C2"/>
											<stop  offset="1" style="stop-color:#FFFFFF"/>
										</linearGradient>
										<polygon clip-path="url(#SVGID_73_)" fill="url(#SVGID_75_)" points="3707.581,1320.424 3796.782,1382.865 
											3729.852,1474.549 3640.651,1412.108 										"/>
									</g>
								</mask>
								
									<linearGradient id="SVGID_76_" gradientUnits="userSpaceOnUse" x1="34651.1992" y1="8349.8525" x2="34651.1992" y2="8470.3604" gradientTransform="matrix(0.15 0.105 0.5475 -0.75 -6009.8711 3965.8335)">
									<stop  offset="0" style="stop-color:#D8FFF9"/>
									<stop  offset="0.22" style="stop-color:#D8FFF9"/>
									<stop  offset="0.32" style="stop-color:#D9FFF9"/>
									<stop  offset="0.53" style="stop-color:#DCFFF9"/>
									<stop  offset="0.83" style="stop-color:#E0FFF9"/>
									<stop  offset="1" style="stop-color:#E2FFF9"/>
								</linearGradient>
								<polygon clip-path="url(#SVGID_73_)" mask="url(#SVGID_74_)" fill="url(#SVGID_76_)" points="3707.581,1320.423 
									3796.782,1382.865 3729.852,1474.549 3640.65,1412.107 								"/>
							</g>
						</g>
					</g>
					<g opacity="0.3" clip-path="url(#SVGID_48_)" enable-background="new    ">
						<g>
							<defs>
								<rect id="SVGID_77_" x="3387.686" y="1299.278" width="678.359" height="211.226"/>
							</defs>
							<clipPath id="SVGID_78_">
								<use xlink:href="#SVGID_77_"  overflow="visible"/>
							</clipPath>
							<g clip-path="url(#SVGID_78_)">
								<defs>
									<polygon id="SVGID_79_" points="3720.399,1442.22 3719.313,1441.427 3782.069,1355.21 3783.777,1355.57 									"/>
								</defs>
								<clipPath id="SVGID_80_">
									<use xlink:href="#SVGID_79_"  overflow="visible"/>
								</clipPath>
								<defs>
									
										<filter id="Adobe_OpacityMaskFilter_4_" filterUnits="userSpaceOnUse" x="3677.277" y="1325.346" width="148.536" height="146.74">
										<feColorMatrix  type="matrix" values="1 0 0 0 0  0 1 0 0 0  0 0 1 0 0  0 0 0 1 0"/>
									</filter>
								</defs>
								<mask maskUnits="userSpaceOnUse" x="3677.277" y="1325.346" width="148.536" height="146.74" id="SVGID_81_">
									<g filter="url(#Adobe_OpacityMaskFilter_4_)">
										
											<linearGradient id="SVGID_82_" gradientUnits="userSpaceOnUse" x1="75697.8828" y1="8377.541" x2="75697.8828" y2="8492.9727" gradientTransform="matrix(0.075 0.0525 0.5475 -0.75 -6458.2939 3633.4802)">
											<stop  offset="0" style="stop-color:#000000"/>
											<stop  offset="0.22" style="stop-color:#000000"/>
											<stop  offset="0.32" style="stop-color:#1A1A1A"/>
											<stop  offset="0.53" style="stop-color:#5C5C5C"/>
											<stop  offset="0.83" style="stop-color:#C2C2C2"/>
											<stop  offset="1" style="stop-color:#FFFFFF"/>
										</linearGradient>
										<polygon clip-path="url(#SVGID_80_)" fill="url(#SVGID_82_)" points="3741.115,1325.346 3825.815,1384.637 
											3761.977,1472.084 3677.277,1412.796 										"/>
									</g>
								</mask>
								
									<linearGradient id="SVGID_83_" gradientUnits="userSpaceOnUse" x1="75697.875" y1="8377.541" x2="75697.875" y2="8492.9717" gradientTransform="matrix(0.075 0.0525 0.5475 -0.75 -6458.2939 3633.4802)">
									<stop  offset="0" style="stop-color:#D8FFF9"/>
									<stop  offset="0.22" style="stop-color:#D8FFF9"/>
									<stop  offset="0.32" style="stop-color:#D9FFF9"/>
									<stop  offset="0.53" style="stop-color:#DCFFF9"/>
									<stop  offset="0.83" style="stop-color:#E0FFF9"/>
									<stop  offset="1" style="stop-color:#E2FFF9"/>
								</linearGradient>
								<polygon clip-path="url(#SVGID_80_)" mask="url(#SVGID_81_)" fill="url(#SVGID_83_)" points="3741.115,1325.346 
									3825.813,1384.637 3761.975,1472.085 3677.277,1412.796 								"/>
							</g>
						</g>
					</g>
					<g opacity="0.3" clip-path="url(#SVGID_48_)" enable-background="new    ">
						<g>
							<defs>
								<rect id="SVGID_84_" x="3387.686" y="1299.278" width="678.359" height="211.226"/>
							</defs>
							<clipPath id="SVGID_85_">
								<use xlink:href="#SVGID_84_"  overflow="visible"/>
							</clipPath>
							<g clip-path="url(#SVGID_85_)">
								<defs>
									<polygon id="SVGID_86_" points="3691.425,1441.55 3690.339,1440.755 3754.221,1352.735 3756.469,1353.047 									"/>
								</defs>
								<clipPath id="SVGID_87_">
									<use xlink:href="#SVGID_86_"  overflow="visible"/>
								</clipPath>
								<defs>
									
										<filter id="Adobe_OpacityMaskFilter_5_" filterUnits="userSpaceOnUse" x="3647.43" y="1322.098" width="151.947" height="150.086">
										<feColorMatrix  type="matrix" values="1 0 0 0 0  0 1 0 0 0  0 0 1 0 0  0 0 0 1 0"/>
									</filter>
								</defs>
								<mask maskUnits="userSpaceOnUse" x="3647.43" y="1322.098" width="151.947" height="150.086" id="SVGID_88_">
									<g filter="url(#Adobe_OpacityMaskFilter_5_)">
										
											<linearGradient id="SVGID_89_" gradientUnits="userSpaceOnUse" x1="75439.4219" y1="8359.7354" x2="75439.4219" y2="8477.8193" gradientTransform="matrix(0.075 0.0525 0.5475 -0.75 -6458.2939 3633.4802)">
											<stop  offset="0" style="stop-color:#000000"/>
											<stop  offset="0.22" style="stop-color:#000000"/>
											<stop  offset="0.32" style="stop-color:#1A1A1A"/>
											<stop  offset="0.53" style="stop-color:#5C5C5C"/>
											<stop  offset="0.83" style="stop-color:#C2C2C2"/>
											<stop  offset="1" style="stop-color:#FFFFFF"/>
										</linearGradient>
										<polygon clip-path="url(#SVGID_87_)" fill="url(#SVGID_89_)" points="3712.704,1322.098 3799.378,1382.771 
											3734.104,1472.185 3647.43,1411.513 										"/>
									</g>
								</mask>
								
									<linearGradient id="SVGID_90_" gradientUnits="userSpaceOnUse" x1="75439.4141" y1="8359.7354" x2="75439.4141" y2="8477.8193" gradientTransform="matrix(0.075 0.0525 0.5475 -0.75 -6458.2939 3633.4802)">
									<stop  offset="0" style="stop-color:#D8FFF9"/>
									<stop  offset="0.22" style="stop-color:#D8FFF9"/>
									<stop  offset="0.32" style="stop-color:#D9FFF9"/>
									<stop  offset="0.53" style="stop-color:#DCFFF9"/>
									<stop  offset="0.83" style="stop-color:#E0FFF9"/>
									<stop  offset="1" style="stop-color:#E2FFF9"/>
								</linearGradient>
								<polygon clip-path="url(#SVGID_87_)" mask="url(#SVGID_88_)" fill="url(#SVGID_90_)" points="3712.704,1322.098 
									3799.378,1382.77 3734.104,1472.185 3647.43,1411.513 								"/>
							</g>
						</g>
					</g>
					<g opacity="0.3" clip-path="url(#SVGID_48_)" enable-background="new    ">
						<g>
							<defs>
								<rect id="SVGID_91_" x="3387.686" y="1299.278" width="678.359" height="211.226"/>
							</defs>
							<clipPath id="SVGID_92_">
								<use xlink:href="#SVGID_91_"  overflow="visible"/>
							</clipPath>
							<g clip-path="url(#SVGID_92_)">
								<defs>
									<polygon id="SVGID_93_" points="3754.206,1436.779 3739.735,1429.771 3796.175,1350.884 3813.692,1354.676 									"/>
								</defs>
								<clipPath id="SVGID_94_">
									<use xlink:href="#SVGID_93_"  overflow="visible"/>
								</clipPath>
								<defs>
									
										<filter id="Adobe_OpacityMaskFilter_6_" filterUnits="userSpaceOnUse" x="3739.735" y="1350.884" width="73.957" height="85.895">
										<feColorMatrix  type="matrix" values="1 0 0 0 0  0 1 0 0 0  0 0 1 0 0  0 0 0 1 0"/>
									</filter>
								</defs>
								<mask maskUnits="userSpaceOnUse" x="3739.735" y="1350.884" width="73.957" height="85.895" id="SVGID_95_">
									<g filter="url(#Adobe_OpacityMaskFilter_6_)">
										
											<linearGradient id="SVGID_96_" gradientUnits="userSpaceOnUse" x1="4371.8721" y1="1895.7109" x2="4470.4814" y2="1895.7109" gradientTransform="matrix(0.75 0 0 -0.75 460.8318 2815.6152)">
											<stop  offset="0" style="stop-color:#000000"/>
											<stop  offset="0.22" style="stop-color:#000000"/>
											<stop  offset="0.32" style="stop-color:#1A1A1A"/>
											<stop  offset="0.53" style="stop-color:#5C5C5C"/>
											<stop  offset="0.83" style="stop-color:#C2C2C2"/>
											<stop  offset="1" style="stop-color:#FFFFFF"/>
										</linearGradient>
										<rect x="3739.735" y="1350.884" clip-path="url(#SVGID_94_)" fill="url(#SVGID_96_)" width="73.957" height="85.895"/>
									</g>
								</mask>
								
									<linearGradient id="SVGID_97_" gradientUnits="userSpaceOnUse" x1="4371.8721" y1="1895.7109" x2="4470.4814" y2="1895.7109" gradientTransform="matrix(0.75 0 0 -0.75 460.8318 2815.6152)">
									<stop  offset="0" style="stop-color:#D8FFF9"/>
									<stop  offset="0.22" style="stop-color:#D8FFF9"/>
									<stop  offset="0.32" style="stop-color:#D9FFF9"/>
									<stop  offset="0.53" style="stop-color:#DCFFF9"/>
									<stop  offset="0.83" style="stop-color:#E0FFF9"/>
									<stop  offset="1" style="stop-color:#E2FFF9"/>
								</linearGradient>
								
									<rect x="3739.735" y="1350.884" clip-path="url(#SVGID_94_)" mask="url(#SVGID_95_)" fill="url(#SVGID_97_)" width="73.957" height="85.895"/>
							</g>
						</g>
					</g>
					<g opacity="0.2" clip-path="url(#SVGID_48_)" enable-background="new    ">
						<g>
							<defs>
								<rect id="SVGID_98_" x="3387.686" y="1299.278" width="678.359" height="211.226"/>
							</defs>
							<clipPath id="SVGID_99_">
								<use xlink:href="#SVGID_98_"  overflow="visible"/>
							</clipPath>
							<g clip-path="url(#SVGID_99_)">
								<defs>
									<polygon id="SVGID_100_" points="3747.605,1440.831 3745.442,1439.244 3807.864,1353.375 3810.831,1354.147 									"/>
								</defs>
								<clipPath id="SVGID_101_">
									<use xlink:href="#SVGID_100_"  overflow="visible"/>
								</clipPath>
								<defs>
									
										<filter id="Adobe_OpacityMaskFilter_7_" filterUnits="userSpaceOnUse" x="3703.191" y="1323.082" width="149.892" height="148.041">
										<feColorMatrix  type="matrix" values="1 0 0 0 0  0 1 0 0 0  0 0 1 0 0  0 0 0 1 0"/>
									</filter>
								</defs>
								<mask maskUnits="userSpaceOnUse" x="3703.191" y="1323.082" width="149.892" height="148.041" id="SVGID_102_">
									<g filter="url(#Adobe_OpacityMaskFilter_7_)">
										
											<linearGradient id="SVGID_103_" gradientUnits="userSpaceOnUse" x1="34912.1328" y1="8390.2549" x2="34912.1328" y2="8505.6035" gradientTransform="matrix(0.15 0.105 0.5475 -0.75 -6009.8711 3965.8335)">
											<stop  offset="0" style="stop-color:#000000"/>
											<stop  offset="0.22" style="stop-color:#000000"/>
											<stop  offset="0.32" style="stop-color:#1A1A1A"/>
											<stop  offset="0.53" style="stop-color:#5C5C5C"/>
											<stop  offset="0.83" style="stop-color:#C2C2C2"/>
											<stop  offset="1" style="stop-color:#FFFFFF"/>
										</linearGradient>
										<polygon clip-path="url(#SVGID_101_)" fill="url(#SVGID_103_)" points="3767.555,1323.082 3853.085,1382.952 
											3788.719,1471.124 3703.191,1411.254 										"/>
									</g>
								</mask>
								
									<linearGradient id="SVGID_104_" gradientUnits="userSpaceOnUse" x1="34912.125" y1="8390.2539" x2="34912.125" y2="8505.5996" gradientTransform="matrix(0.15 0.105 0.5475 -0.75 -6009.8711 3965.8335)">
									<stop  offset="0" style="stop-color:#D8FFF9"/>
									<stop  offset="0.22" style="stop-color:#D8FFF9"/>
									<stop  offset="0.32" style="stop-color:#D9FFF9"/>
									<stop  offset="0.53" style="stop-color:#DCFFF9"/>
									<stop  offset="0.83" style="stop-color:#E0FFF9"/>
									<stop  offset="1" style="stop-color:#E2FFF9"/>
								</linearGradient>
								<polygon clip-path="url(#SVGID_101_)" mask="url(#SVGID_102_)" fill="url(#SVGID_104_)" points="3767.555,1323.082 
									3853.083,1382.951 3788.718,1471.123 3703.191,1411.254 								"/>
							</g>
						</g>
					</g>
					<g opacity="0.3" clip-path="url(#SVGID_48_)" enable-background="new    ">
						<g>
							<defs>
								<rect id="SVGID_105_" x="3387.686" y="1299.278" width="678.359" height="211.226"/>
							</defs>
							<clipPath id="SVGID_106_">
								<use xlink:href="#SVGID_105_"  overflow="visible"/>
							</clipPath>
							<g clip-path="url(#SVGID_106_)">
								<defs>
									<polygon id="SVGID_107_" points="3764.118,1413.839 3763.007,1412.693 3806.552,1353.068 3808.403,1353.565 									"/>
								</defs>
								<clipPath id="SVGID_108_">
									<use xlink:href="#SVGID_107_"  overflow="visible"/>
								</clipPath>
								<defs>
									
										<filter id="Adobe_OpacityMaskFilter_8_" filterUnits="userSpaceOnUse" x="3733.506" y="1332.089" width="104.397" height="102.73">
										<feColorMatrix  type="matrix" values="1 0 0 0 0  0 1 0 0 0  0 0 1 0 0  0 0 0 1 0"/>
									</filter>
								</defs>
								<mask maskUnits="userSpaceOnUse" x="3733.506" y="1332.089" width="104.397" height="102.73" id="SVGID_109_">
									<g filter="url(#Adobe_OpacityMaskFilter_8_)">
										
											<linearGradient id="SVGID_110_" gradientUnits="userSpaceOnUse" x1="75634.7578" y1="9406.9844" x2="75634.7578" y2="9524.7568" gradientTransform="matrix(0.075 0.0525 0.375 -0.51 -5353.1348 2126.7075)">
											<stop  offset="0" style="stop-color:#000000"/>
											<stop  offset="0.22" style="stop-color:#000000"/>
											<stop  offset="0.32" style="stop-color:#1A1A1A"/>
											<stop  offset="0.53" style="stop-color:#5C5C5C"/>
											<stop  offset="0.83" style="stop-color:#C2C2C2"/>
											<stop  offset="1" style="stop-color:#FFFFFF"/>
										</linearGradient>
										<polygon clip-path="url(#SVGID_108_)" fill="url(#SVGID_110_)" points="3778.432,1332.089 3837.903,1373.72 
											3792.977,1434.82 3733.507,1393.189 										"/>
									</g>
								</mask>
								
									<linearGradient id="SVGID_111_" gradientUnits="userSpaceOnUse" x1="75634.75" y1="9406.9844" x2="75634.75" y2="9524.7568" gradientTransform="matrix(0.075 0.0525 0.375 -0.51 -5353.1348 2126.7075)">
									<stop  offset="0" style="stop-color:#D8FFF9"/>
									<stop  offset="0.22" style="stop-color:#D8FFF9"/>
									<stop  offset="0.32" style="stop-color:#D9FFF9"/>
									<stop  offset="0.53" style="stop-color:#DCFFF9"/>
									<stop  offset="0.83" style="stop-color:#E0FFF9"/>
									<stop  offset="1" style="stop-color:#E2FFF9"/>
								</linearGradient>
								<polygon clip-path="url(#SVGID_108_)" mask="url(#SVGID_109_)" fill="url(#SVGID_111_)" points="3778.432,1332.089 
									3837.903,1373.72 3792.977,1434.82 3733.506,1393.189 								"/>
							</g>
						</g>
					</g>
				</g>
			</g>
		</g>
	</g>
</g>
</svg>
