<?xml version="1.0" encoding="utf-8"?>
<!-- Generator: Adobe Illustrator 16.0.0, SVG Export Plug-In . SVG Version: 6.00 Build 0)  -->
<!DOCTYPE svg PUBLIC "-//W3C//DTD SVG 1.1//EN" "http://www.w3.org/Graphics/SVG/1.1/DTD/svg11.dtd">
<svg version="1.1" id="Layer_1" xmlns="http://www.w3.org/2000/svg" xmlns:xlink="http://www.w3.org/1999/xlink" x="0px" y="0px"
	 width="4185.654px" height="3240px" viewBox="0 0 4185.654 3240" enable-background="new 0 0 4185.654 3240" xml:space="preserve">
<g id="Layer_1_1_">
	<g id="mountains" display="none">
		<g display="inline">
			<polygon fill="#9BA1A4" points="699,1410.064 768.516,1346.203 876.652,1292.988 988.65,1236.73 1100.648,1143.982 
				1114.809,1136.38 1131.545,1112.053 1149.566,1101.409 1198.484,1109.012 1253.841,1071 1288.599,1095.327 1327.219,1121.176 
				1423.77,1156.146 1454.664,1178.953 1497.146,1183.515 1542.203,1183.515 1567.949,1171.352 1609.145,1174.392 
				1633.604,1159.188 1717.281,1134.859 1730.154,1153.105 1752.039,1177.433 1779.072,1189.597 1856.313,1239.771 
				1907.807,1259.538 1946.426,1276.264 2021.091,1302.111 2088.033,1341.644 2193.594,1410.064 2330.051,1489.13 2408.578,1518.02 
				2501.266,1552.989 2630,1603.166 699,1612.285 			"/>
			<polygon fill="#FFFFFE" points="1248.691,1095.327 1277.013,1118.135 1310.482,1136.38 1369.701,1160.707 1377.425,1175.912 
				1403.171,1175.912 1440.504,1218.485 1440.504,1227.608 1524.182,1265.62 1580.823,1259.538 1615.581,1296.029 
				1636.179,1302.111 1717.281,1329.479 1741.74,1329.479 1795.809,1343.162 1837.002,1349.244 1781.646,1355.326 
				1762.337,1344.686 1695.396,1346.203 1673.512,1341.644 1643.902,1331 1668.362,1349.244 1691.534,1355.326 1636.179,1355.326 
				1602.709,1355.326 1589.834,1361.408 1520.318,1361.408 1506.158,1352.285 1379.999,1353.809 1368.413,1334.039 
				1345.241,1326.438 1436.643,1327.959 1422.48,1309.714 1412.183,1274.742 1392.873,1265.62 1352.965,1276.264 1325.932,1282.346 
				1302.76,1276.264 1262.852,1261.059 1231.956,1248.896 1216.508,1261.059 1198.484,1271.702 1163.727,1273.223 
				1208.784,1242.813 1244.829,1224.567 1251.266,1216.965 1298.896,1213.924 1286.024,1198.72 1284.736,1186.556 
				1260.277,1172.871 1298.896,1172.871 1304.047,1162.229 1289.887,1148.543 1270.576,1136.38 1247.404,1113.572 			"/>
			<polygon fill="#FFFFFE" points="1137.98,1128.777 1184.324,1128.777 1179.176,1142.462 1149.566,1165.27 1152.141,1174.392 
				1149.566,1192.638 1157.291,1197.198 1158.578,1203.28 1163.727,1203.28 1171.451,1216.965 1179.176,1220.006 1184.324,1226.088 
				1161.152,1223.047 1150.854,1215.444 1127.682,1212.403 1114.809,1209.362 1110.947,1203.28 1116.096,1186.556 
				1126.395,1177.433 1137.98,1168.311 1140.555,1163.748 1144.417,1162.229 1156.003,1148.543 1152.141,1142.462 
				1140.555,1139.421 1136.693,1134.859 			"/>
			<polygon fill="#FFFFFE" points="1709.557,1162.229 1714.706,1168.311 1721.143,1168.311 1725.005,1188.076 1741.74,1204.802 
				1753.326,1204.802 1757.188,1213.924 1772.637,1220.006 1782.936,1247.375 1795.809,1247.375 1809.969,1241.293 1846.014,1264.1 
				1862.749,1267.141 1878.197,1283.865 1900.082,1286.906 1916.816,1296.029 1927.116,1297.55 1942.564,1308.193 
				1952.863,1326.438 1963.161,1332.521 1978.609,1326.438 2010.793,1326.438 2030.104,1344.686 2040.4,1361.408 2024.953,1361.408 
				1997.919,1355.326 1961.875,1340.121 1943.852,1338.604 1909.094,1321.878 1884.635,1315.796 1878.197,1334.039 
				1867.898,1326.438 1855.025,1334.039 1849.877,1332.521 1856.313,1327.959 1856.313,1317.315 1871.761,1303.632 
				1840.865,1300.591 1824.129,1292.988 1802.244,1294.51 1793.232,1283.865 1761.05,1274.742 1731.441,1268.66 1699.258,1271.702 
				1676.086,1277.783 1659.352,1282.346 1692.821,1267.141 1701.832,1254.978 1710.844,1254.978 1719.855,1244.332 
				1730.154,1238.252 1714.706,1236.73 1721.143,1229.129 1713.418,1210.883 1718.568,1200.239 1709.557,1180.474 			"/>
			<polygon fill="#375259" points="1234.531,1107.49 1238.393,1115.094 1239.68,1127.258 1248.691,1140.941 1229.381,1143.982 
				1228.094,1153.105 1242.255,1168.311 1242.255,1175.912 1234.531,1166.789 1224.232,1156.146 1204.922,1157.666 
				1188.188,1162.229 1174.026,1162.229 1176.601,1153.105 1192.049,1142.462 1192.049,1133.339 1199.771,1131.818 
				1211.359,1128.777 			"/>
			<polygon fill="#375259" points="1104.51,1160.707 1095.498,1171.352 1082.625,1175.912 1072.326,1191.116 1059.453,1207.842 
				1045.293,1218.485 1029.845,1229.129 1023.408,1236.73 993.799,1256.498 983.5,1261.059 969.34,1267.141 948.742,1282.346 
				913.984,1297.55 880.514,1315.796 871.502,1323.397 885.663,1317.315 915.271,1305.152 935.869,1294.51 956.467,1288.428 
				973.202,1299.07 987.363,1312.755 993.799,1314.275 1024.695,1331 1047.867,1344.686 1037.568,1324.918 1058.166,1327.959 
				1071.039,1334.039 1083.912,1338.604 1098.073,1340.121 1107.084,1344.686 1126.395,1344.686 1132.831,1338.604 
				1125.107,1327.959 1110.947,1317.315 1098.073,1294.51 1089.063,1282.346 1083.912,1265.62 1072.326,1245.854 1069.752,1235.211 
				1064.604,1235.211 1062.028,1226.088 1076.188,1224.567 1087.775,1221.526 1076.188,1212.403 1076.188,1198.72 
				1095.498,1185.034 1095.498,1175.912 1104.51,1172.871 1109.659,1169.83 1109.659,1162.229 			"/>
		</g>
		<g display="inline">
			<polygon fill="#9BA1A4" points="0,1356.064 69.516,1292.205 177.652,1238.988 289.65,1182.73 401.648,1089.982 415.809,1082.38 
				432.545,1058.053 450.566,1047.409 499.484,1055.012 554.841,1017 589.599,1041.327 628.219,1067.176 724.77,1102.146 
				755.664,1124.953 798.146,1129.515 843.203,1129.515 868.949,1117.352 910.145,1120.392 934.604,1105.188 1018.281,1080.859 
				1031.154,1099.105 1053.039,1123.433 1080.072,1135.597 1157.313,1185.771 1208.807,1205.538 1247.426,1222.264 
				1322.091,1248.111 1389.033,1287.644 1494.594,1356.064 1631.051,1435.13 1709.578,1464.02 1802.268,1498.989 1931,1549.166 
				730,1602.668 0,1602.668 			"/>
			<polygon fill="#FFFFFE" points="549.691,1041.327 578.013,1064.135 611.482,1082.38 670.701,1106.707 678.425,1121.912 
				704.171,1121.912 741.504,1164.485 741.504,1173.608 825.181,1211.62 881.823,1205.538 916.581,1242.029 937.179,1248.111 
				1018.281,1275.479 1042.74,1275.479 1096.809,1289.164 1138.002,1295.246 1082.646,1301.326 1063.337,1290.685 996.396,1292.205 
				974.512,1287.644 944.902,1277 969.362,1295.246 992.534,1301.326 937.179,1301.326 903.708,1301.326 890.834,1307.408 
				821.318,1307.408 807.158,1298.285 680.999,1299.808 669.413,1280.041 646.241,1272.438 737.643,1273.959 723.48,1255.714 
				713.183,1220.742 693.873,1211.62 653.965,1222.264 626.932,1228.346 603.76,1222.264 563.852,1207.059 532.956,1194.896 
				517.508,1207.059 499.484,1217.702 464.727,1219.223 509.784,1188.813 545.829,1170.567 552.266,1162.965 599.896,1159.924 
				587.023,1144.72 585.736,1132.556 561.277,1118.871 599.896,1118.871 605.047,1108.229 590.887,1094.543 571.576,1082.38 
				548.404,1059.572 			"/>
			<polygon fill="#FFFFFE" points="438.98,1074.777 485.324,1074.777 480.176,1088.462 450.566,1111.27 453.141,1120.392 
				450.566,1138.638 458.291,1143.198 459.578,1149.28 464.727,1149.28 472.451,1162.965 480.176,1166.006 485.324,1172.088 
				462.152,1169.047 451.854,1161.444 428.682,1158.403 415.809,1155.362 411.947,1149.28 417.096,1132.556 427.395,1123.433 
				438.98,1114.311 441.555,1109.748 445.417,1108.229 457.003,1094.543 453.141,1088.462 441.555,1085.421 437.693,1080.859 			"/>
			<polygon fill="#FFFFFE" points="1010.557,1108.229 1015.706,1114.311 1022.143,1114.311 1026.005,1134.076 1042.74,1150.802 
				1054.326,1150.802 1058.188,1159.924 1073.637,1166.006 1083.936,1193.375 1096.809,1193.375 1110.969,1187.293 1147.014,1210.1 
				1163.749,1213.141 1179.197,1229.865 1201.082,1232.906 1217.816,1242.029 1228.116,1243.55 1243.564,1254.193 
				1253.863,1272.438 1264.161,1278.521 1279.609,1272.438 1311.793,1272.438 1331.104,1290.685 1341.4,1307.408 1325.953,1307.408 
				1298.919,1301.326 1262.874,1286.123 1244.852,1284.604 1210.094,1267.878 1185.635,1261.796 1179.197,1280.041 
				1168.898,1272.438 1156.025,1280.041 1150.877,1278.521 1157.313,1273.959 1157.313,1263.315 1172.761,1249.632 
				1141.865,1246.591 1125.129,1238.988 1103.244,1240.51 1094.232,1229.865 1062.05,1220.742 1032.441,1214.66 1000.258,1217.702 
				977.086,1223.783 960.352,1228.346 993.821,1213.141 1002.832,1200.978 1011.844,1200.978 1020.855,1190.332 1031.154,1184.252 
				1015.706,1182.73 1022.143,1175.129 1014.418,1156.883 1019.568,1146.239 1010.557,1126.474 			"/>
			<polygon fill="#375259" points="535.531,1053.49 539.393,1061.094 540.68,1073.258 549.691,1086.941 530.381,1089.982 
				529.094,1099.105 543.255,1114.311 543.255,1121.912 535.531,1112.789 525.232,1102.146 505.922,1103.666 489.188,1108.229 
				475.026,1108.229 477.601,1099.105 493.049,1088.462 493.049,1079.339 500.771,1077.818 512.359,1074.777 			"/>
			<polygon fill="#375259" points="405.51,1106.707 396.498,1117.352 383.625,1121.912 373.326,1137.116 360.453,1153.842 
				346.293,1164.485 330.845,1175.129 324.408,1182.73 294.799,1202.498 284.5,1207.059 270.34,1213.141 249.742,1228.346 
				214.984,1243.55 181.514,1261.796 172.503,1269.397 186.663,1263.315 216.271,1251.152 236.869,1240.51 257.467,1234.428 
				274.202,1245.07 288.363,1258.755 294.799,1260.275 325.695,1277 348.867,1290.685 338.568,1270.918 359.166,1273.959 
				372.039,1280.041 384.912,1284.604 399.073,1286.123 408.084,1290.685 427.395,1290.685 433.831,1284.604 426.107,1273.959 
				411.947,1263.315 399.073,1240.51 390.063,1228.346 384.912,1211.62 373.326,1191.854 370.752,1181.211 365.603,1181.211 
				363.028,1172.088 377.188,1170.567 388.775,1167.526 377.188,1158.403 377.188,1144.72 396.498,1131.034 396.498,1121.912 
				405.51,1118.871 410.659,1115.83 410.659,1108.229 			"/>
		</g>
	</g>
	<g id="rocks" display="none">
		<g display="inline">
			<g>
				<polygon fill="#5E2D18" points="1196.066,1516.221 1187.26,1421.861 1168.704,1410.482 1170.732,1403.221 1152.5,1403.221 
					1152.5,1392.221 1165.5,1392.221 1153.5,1365.57 1144.489,1373.555 1138.827,1347.357 1128.535,1323.221 1107.5,1323.221 
					1102.29,1313.079 1119.787,1309.229 1114.641,1304.986 1110.523,1262.211 1077.074,1236.017 1062.665,1258.271 
					1047.227,1302.221 1038.5,1302.221 1021.5,1324.416 1021.5,1398.221 1009.16,1406.283 1001.941,1516.221 				"/>
				<polygon fill="#492614" points="1128.5,1324.221 1118.5,1324.221 1120.816,1355.277 1131.623,1384.361 1144.489,1373.555 
					1138.827,1347.607 				"/>
				<polygon fill="#5E2D18" points="1077.074,1236 1073.594,1241.316 1083.25,1263.691 1110.523,1262.181 				"/>
				<polygon fill="#512717" points="1087.5,1323.221 1087.5,1263.221 1109.523,1262.181 				"/>
				<polygon fill="#B47857" points="1045.799,1370.586 1043.684,1316.109 1046.872,1301.685 1065.5,1259.574 1065.5,1252.221 
					1073.094,1241.316 1083,1263.691 1076.434,1320.813 1059,1335.737 				"/>
				<polygon fill="#945626" points="1151.5,1404.221 1160.5,1404.221 1164.573,1417.545 1151.5,1465.935 				"/>
				<polygon fill="#B47857" points="1021.779,1398.471 1032.707,1375.984 1049.744,1459.541 1047.167,1526 1001.5,1517.221 
					1009.41,1406.533 				"/>
				<polygon fill="#8B522D" points="1017.379,1515.334 1021.779,1398.471 1009.41,1406.033 1001.5,1516.221 				"/>
				<polygon fill="#803F21" points="1032.242,1376.039 1062.5,1398.471 1062.5,1384.221 1085.322,1423.222 1087.719,1455.052 
					1095.667,1547.679 1047.167,1526 1049.463,1459.041 				"/>
				<polygon fill="#492614" points="1085.355,1406.118 1067.5,1434.576 1067.5,1542.789 1114.25,1545.25 1095.418,1448.658 				"/>
				<polygon fill="#A76D50" points="1038.938,1301.613 1047.53,1301.631 1025.5,1381.022 1025.5,1319.221 				"/>
				<polygon fill="#5E2D18" points="1082.75,1263.691 1087.5,1263.221 1087.5,1323.221 1110.023,1262.181 1114.391,1304.923 
					1119.662,1309.104 1102.229,1312.829 1107.469,1322.721 1118.484,1323.221 1120.809,1354.777 1083.246,1331.105 
					1063.464,1341.318 1063.499,1398.471 1032.74,1376.039 1021.779,1398.471 1025.5,1381.022 1043.334,1316.015 1047.28,1301.631 
					1045.799,1370.586 1059.063,1335.737 1076.311,1320.813 				"/>
				<polygon fill="#8B522D" points="1080.279,1337.281 1068.5,1344.485 1064.77,1386.438 1088.5,1438.658 1092.059,1364.557 				"/>
				<polygon fill="#5E2D18" points="1178.797,1322.887 1145.84,1371.482 1139.75,1368.875 1122.998,1382.891 1111.836,1444.291 
					1098.529,1448.658 1082.664,1500.782 1084,1541.869 1219.545,1580.25 1230.277,1517.431 1238.715,1486.957 1227.76,1474.897 
					1222.131,1440.709 1218.402,1435.432 1211.624,1442.658 1208.766,1397.698 1203.086,1388.37 1198.584,1386.444 
					1204.65,1355.668 1194.247,1336.939 				"/>
				<polygon fill="#5E2D18" points="1194.887,1427.69 1169.247,1398.985 1151.834,1404.694 1144.092,1432.416 1141.872,1445.084 
					1144.534,1467.656 1151.48,1471.678 1152.159,1516.99 1160.254,1517.262 1165.086,1488.921 1176.749,1480.797 
					1184.428,1456.528 1190.344,1459.061 1198.284,1446.539 				"/>
				<polygon fill="#B47857" points="1178.299,1327.133 1179.711,1347.945 1168.508,1374.115 1166.389,1391.698 1148.111,1397.974 
					1132.73,1424.547 1140.912,1382.918 1164.254,1345.652 				"/>
				<polygon fill="#B47857" points="1141.253,1371.646 1128.1,1382.633 1117.51,1427.113 1136.908,1388.375 				"/>
				<polygon fill="#803F21" points="1154.536,1408.063 1165.327,1403.103 1172.111,1428.816 1158.243,1493.133 1153.006,1458.502 
					1146.239,1439.41 				"/>
				<polygon fill="#492614" points="1123.607,1423.424 1141.887,1445.074 1144.54,1467.651 1159.176,1516.83 1172.646,1566.24 
					1115.923,1550.908 				"/>
				<polygon fill="#B47857" points="1111.836,1444.291 1123.607,1423.424 1118.948,1501.86 1102.2,1485.567 				"/>
				<polygon fill="#8B522D" points="1098.529,1448.658 1111.836,1444.291 1102.2,1485.567 1084.25,1540.291 1082.664,1500.782 				
					"/>
				<polygon fill="#945626" points="1214.672,1462.596 1219.545,1481.055 1203.893,1517.616 1185.506,1570.612 1194.18,1517.476 
					1195.57,1494.442 1203.934,1489.823 				"/>
				<polygon fill="#492614" points="1210.887,1445.869 1200.48,1447.803 1204.57,1455.298 1211.006,1451.987 				"/>
				<polygon fill="#803F21" points="1188.521,1429.909 1172.65,1444.606 1169.93,1477.606 				"/>
				<polygon fill="#492614" points="1197.252,1454.908 1194.79,1467.49 1185.223,1463.396 1164.573,1554.123 1169.93,1566.24 
					1189.461,1487.932 1202.857,1468.893 				"/>
				<polygon fill="#492614" points="1198.584,1386.444 1194.911,1429.906 1198.284,1446.539 1211.624,1442.658 1208.766,1397.698 
					1203.086,1388.37 				"/>
				<polygon fill="#8B522D" points="1183.398,1344.69 1193.934,1362.888 1176.941,1393.021 1181.499,1362.125 				"/>
				<polygon fill="#512717" points="1047.227,1302.221 1021.779,1398.471 1032.74,1376.039 1044.15,1384.361 				"/>
				<polygon fill="#B47857" points="1025.5,1319.221 1021.5,1324.416 1021.779,1398.471 1025.001,1386.282 				"/>
				<polygon fill="#512717" points="1110.023,1262.181 1077.074,1236 1073.094,1241.316 1082.75,1263.691 				"/>
				<polygon fill="#5E2D18" points="1110.023,1262.181 1087.5,1323.221 1102.229,1312.829 1119.662,1309.104 1114.391,1304.923 				
					"/>
			</g>
			<g>
				<polygon fill="#5E2D18" points="1241.148,1612.221 1249.956,1517.861 1268.512,1506.482 1266.482,1499.221 1284.715,1499.221 
					1284.715,1488.221 1271.715,1488.221 1283.715,1461.569 1292.729,1469.555 1298.389,1443.357 1308.68,1419.221 
					1329.715,1419.221 1334.926,1409.079 1317.43,1405.229 1322.575,1400.986 1326.691,1358.211 1360.141,1332.017 
					1374.551,1354.271 1389.989,1398.221 1398.715,1398.221 1415.715,1420.416 1415.715,1494.221 1428.055,1502.283 
					1435.274,1612.221 				"/>
				<polygon fill="#492614" points="1308.715,1420.221 1318.715,1420.221 1316.4,1451.277 1305.594,1480.36 1292.729,1469.555 
					1298.389,1443.607 				"/>
				<polygon fill="#5E2D18" points="1360.141,1332 1363.622,1337.316 1353.967,1359.691 1326.691,1358.181 				"/>
				<polygon fill="#512717" points="1349.715,1419.221 1349.715,1359.221 1327.691,1358.181 				"/>
				<polygon fill="#B47857" points="1391.417,1466.584 1393.534,1412.109 1390.344,1397.685 1371.715,1355.574 1371.715,1348.221 
					1364.122,1337.316 1354.217,1359.691 1360.782,1416.813 1378.215,1431.737 				"/>
				<polygon fill="#945626" points="1285.715,1500.221 1276.715,1500.221 1272.643,1513.546 1285.715,1561.935 				"/>
				<polygon fill="#B47857" points="1415.436,1494.471 1404.508,1471.985 1387.471,1555.541 1389.475,1613.221 1437,1631.25 
					1427.805,1502.533 				"/>
				<polygon fill="#8B522D" points="1419.93,1624.774 1415.436,1494.471 1427.805,1502.033 1437,1631.25 				"/>
				<polygon fill="#803F21" points="1404.975,1472.039 1374.715,1494.471 1374.715,1480.221 1351.893,1519.222 1349.497,1551.052 
					1345.282,1611.721 1389.538,1612.221 1387.752,1555.041 				"/>
				<polygon fill="#492614" points="1351.859,1502.119 1369.715,1530.576 1369.715,1612.221 1330.172,1611.721 1341.797,1544.658 
									"/>
				<polygon fill="#A76D50" points="1398.277,1397.613 1389.686,1397.631 1411.715,1477.022 1411.715,1415.221 				"/>
				<polygon fill="#5E2D18" points="1354.467,1359.691 1349.715,1359.221 1349.715,1419.221 1327.191,1358.181 1322.825,1400.923 
					1317.555,1405.104 1334.989,1408.829 1329.747,1418.721 1318.73,1419.221 1316.407,1450.777 1353.971,1427.106 
					1373.752,1437.318 1373.717,1494.471 1404.475,1472.039 1415.436,1494.471 1411.715,1477.022 1393.881,1412.015 
					1389.936,1397.631 1391.417,1466.584 1378.152,1431.737 1360.907,1416.813 				"/>
				<polygon fill="#8B522D" points="1356.936,1433.281 1368.715,1440.485 1372.446,1482.438 1348.715,1534.658 1345.157,1460.557 
									"/>
				<polygon fill="#5E2D18" points="1258.418,1418.887 1291.375,1467.482 1297.465,1464.875 1314.219,1478.891 1325.379,1540.291 
					1338.688,1544.658 1354.551,1596.782 1353.926,1613.613 1206.938,1613.431 1198.5,1582.957 1209.456,1570.897 
					1215.086,1536.709 1218.813,1531.432 1225.59,1538.658 1228.452,1493.698 1234.129,1484.371 1238.633,1482.444 
					1232.566,1451.668 1242.969,1432.938 				"/>
				<polygon fill="#5E2D18" points="1242.329,1523.69 1267.969,1494.985 1285.381,1500.694 1293.124,1528.416 1295.344,1541.084 
					1292.684,1563.656 1285.734,1567.678 1285.057,1612.99 1276.961,1613.262 1272.129,1584.922 1260.467,1576.798 
					1252.788,1552.528 1246.874,1555.061 1238.934,1542.539 				"/>
				<polygon fill="#B47857" points="1258.917,1423.133 1257.504,1443.945 1268.708,1470.114 1270.827,1487.698 1289.104,1493.975 
					1304.486,1520.547 1296.303,1478.916 1272.963,1441.652 				"/>
				<polygon fill="#B47857" points="1295.963,1467.645 1309.118,1478.633 1319.706,1523.113 1300.307,1484.375 				"/>
				<polygon fill="#803F21" points="1282.68,1504.063 1271.889,1499.104 1265.104,1524.816 1278.973,1589.134 1284.209,1554.503 
					1290.977,1535.41 				"/>
				<polygon fill="#492614" points="1313.607,1519.424 1295.329,1541.074 1292.676,1563.651 1278.042,1612.83 1317.93,1613.059 				
					"/>
				<polygon fill="#B47857" points="1325.379,1540.291 1313.607,1519.424 1318.268,1597.86 1335.016,1581.567 				"/>
				<polygon fill="#8B522D" points="1338.688,1544.658 1325.379,1540.291 1335.016,1581.567 1353.926,1613.613 1354.551,1596.782 
									"/>
				<polygon fill="#945626" points="1222.543,1558.596 1217.67,1577.055 1233.323,1613.616 1243.038,1613.476 1241.646,1590.442 
					1233.282,1585.823 				"/>
				<polygon fill="#492614" points="1226.329,1541.869 1236.736,1543.803 1232.645,1551.299 1226.209,1547.987 				"/>
				<polygon fill="#803F21" points="1248.693,1525.909 1264.564,1540.606 1267.286,1573.606 				"/>
				<polygon fill="#492614" points="1239.963,1550.908 1242.426,1563.49 1251.993,1559.396 1264.568,1613.091 1255.152,1613.473 
					1247.754,1583.932 1234.359,1564.893 				"/>
				<polygon fill="#492614" points="1238.633,1482.444 1242.305,1525.906 1238.934,1542.539 1225.59,1538.658 1228.452,1493.698 
					1234.129,1484.371 				"/>
				<polygon fill="#8B522D" points="1253.816,1440.69 1243.282,1458.887 1260.273,1489.021 1255.717,1458.123 				"/>
				<polygon fill="#512717" points="1389.989,1398.221 1415.436,1494.471 1404.475,1472.039 1393.064,1480.36 				"/>
				<polygon fill="#B47857" points="1411.715,1415.221 1415.715,1420.416 1415.436,1494.471 1412.215,1482.282 				"/>
				<polygon fill="#512717" points="1327.191,1358.181 1360.141,1332 1364.122,1337.316 1354.467,1359.691 				"/>
				<polygon fill="#5E2D18" points="1327.191,1358.181 1349.715,1419.221 1334.989,1408.829 1317.555,1405.104 1322.825,1400.923 
									"/>
			</g>
		</g>
		<polygon display="inline" fill="#5E2D18" points="1101.077,1312.765 1119.662,1309.104 1128.535,1323.221 1118.5,1324.221 
			1107.264,1324.221 		"/>
		<polygon display="inline" fill="#5E2D18" points="1336.129,1408.765 1317.543,1405.104 1308.67,1419.221 1318.706,1420.221 
			1329.941,1420.221 		"/>
	</g>
	<g id="sea" display="none">
		<g display="inline">
			<polygon opacity="0.9" fill="#FFFFFF" enable-background="new    " points="4186.373,1506.578 4169.373,1501.293 
				4131.373,1492.048 4091.373,1500.634 3916.373,1500.634 3838.373,1487.425 3762.373,1478.179 3655.064,1506.383 
				3587.373,1497.332 3489.373,1500.634 3357.373,1486.104 3273.373,1497.332 3069.373,1497.332 3041.373,1492.048 
				3005.373,1500.634 2934.373,1500.634 2874.373,1492.048 2836.373,1478.179 2796.373,1491.388 2698.373,1499.313 
				2536.373,1499.313 2502.373,1491.388 2476.373,1499.313 2393.373,1505.916 2303.373,1491.388 2260.373,1499.313 
				2219.373,1499.313 2173.373,1491.388 2092.373,1506.578 			"/>
		</g>
		<polygon display="inline" opacity="0.9" fill="#4EBDC8" enable-background="new    " points="4187.373,1502.179 
			4170.373,1494.179 4132.373,1480.179 4092.373,1493.179 3917.373,1493.179 3839.373,1473.179 3763.373,1459.179 
			3656.064,1501.884 3588.373,1488.179 3490.373,1493.179 3358.373,1471.179 3274.373,1488.179 3070.373,1488.179 
			3042.373,1480.179 3006.373,1493.179 2935.373,1493.179 2875.373,1480.179 2837.373,1459.179 2797.373,1479.179 
			2699.373,1491.179 2537.373,1491.179 2503.373,1479.179 2477.373,1491.179 2394.373,1501.179 2304.373,1479.179 
			2261.373,1491.179 2220.373,1491.179 2174.373,1479.179 2093.373,1502.179 		"/>
		<polygon display="inline" fill="#FFFFFF" points="1125.654,3240 4185.654,3240 4185.654,1502.179 2778,1503 1046.619,1516.176 		
			"/>
		<g display="inline" opacity="0.9">
			
				<linearGradient id="SVGID_1_" gradientUnits="userSpaceOnUse" x1="1538.6348" y1="593.2" x2="1538.6345" y2="-1144.6223" gradientTransform="matrix(1 0 0 1 1078.0195 2646.8008)">
				<stop  offset="0" style="stop-color:#020304"/>
				<stop  offset="0.2277" style="stop-color:#04464C"/>
				<stop  offset="0.4052" style="stop-color:#055F68"/>
				<stop  offset="0.5718" style="stop-color:#07737F"/>
				<stop  offset="0.5844" style="stop-color:#0A7883"/>
				<stop  offset="0.7232" style="stop-color:#1CA0AC"/>
				<stop  offset="0.7917" style="stop-color:#28B3BF"/>
				<stop  offset="0.8657" style="stop-color:#3AB7C3"/>
				<stop  offset="0.9989" style="stop-color:#4EBDC8"/>
			</linearGradient>
			<polygon fill="url(#SVGID_1_)" points="4185.654,3240 1050.654,3240 1047.654,1516.186 2086.836,1512.893 2093.266,1502.179 
				4185.654,1502.179 			"/>
		</g>
		
			<linearGradient id="SVGID_2_" gradientUnits="userSpaceOnUse" x1="979.1035" y1="320.1384" x2="979.1035" y2="-469.6687" gradientTransform="matrix(0.8071 0.5904 -1.0499 1.4354 2372.4165 1547.2937)">
			<stop  offset="0.2203" style="stop-color:#99D4DD;stop-opacity:0"/>
			<stop  offset="1" style="stop-color:#99D4DD"/>
		</linearGradient>
		<polygon display="inline" opacity="0.3" fill="url(#SVGID_2_)" enable-background="new    " points="2874.055,2619.638 
			2792.457,2559.951 3553.457,1491.334 3587.502,1489.865 3651.584,1502.118 3658.271,1502.118 3701.453,1484.621 		"/>
		
			<linearGradient id="SVGID_3_" gradientUnits="userSpaceOnUse" x1="-1306.457" y1="494.1423" x2="-1306.4572" y2="-288.8328" gradientTransform="matrix(0.4535 0.3317 -1.3188 1.803 3718.584 2428.4602)">
			<stop  offset="0.2203" style="stop-color:#99D4DD;stop-opacity:0"/>
			<stop  offset="1" style="stop-color:#99D4DD"/>
		</linearGradient>
		<polygon display="inline" opacity="0.3" fill="url(#SVGID_3_)" enable-background="new    " points="2502.729,2906.744 
			2456.879,2873.207 3453.955,1487.505 3490.471,1494.214 3531.115,1491.968 		"/>
		
			<linearGradient id="SVGID_4_" gradientUnits="userSpaceOnUse" x1="-292.8018" y1="451.2634" x2="-292.8019" y2="-346.7869" gradientTransform="matrix(0.6155 0.4502 -0.7904 1.0806 3108.1675 1970.3623)">
			<stop  offset="0.2203" style="stop-color:#99D4DD;stop-opacity:0"/>
			<stop  offset="1" style="stop-color:#99D4DD"/>
		</linearGradient>
		<polygon display="inline" opacity="0.3" fill="url(#SVGID_4_)" enable-background="new    " points="2606.314,2351.813 
			2544.086,2306.293 3129.844,1488.955 3237.102,1489.446 		"/>
		
			<linearGradient id="SVGID_5_" gradientUnits="userSpaceOnUse" x1="395.4624" y1="-1325.4817" x2="395.4624" y2="-2117.8" gradientTransform="matrix(0.8071 0.5904 -0.2366 0.3235 2104.177 1913.9298)">
			<stop  offset="0.2203" style="stop-color:#99D4DD;stop-opacity:0"/>
			<stop  offset="1" style="stop-color:#99D4DD"/>
		</linearGradient>
		<polygon display="inline" opacity="0.3" fill="url(#SVGID_5_)" enable-background="new    " points="2780.721,1750.623 
			2699.123,1690.937 2852.91,1467.826 2878.258,1483.738 2935.02,1492.594 2968.385,1494.459 		"/>
		
			<linearGradient id="SVGID_6_" gradientUnits="userSpaceOnUse" x1="756.9619" y1="384.8933" x2="756.9619" y2="-404.9338" gradientTransform="matrix(0.8071 0.5904 -0.9764 1.3349 2374.6216 1544.1643)">
			<stop  offset="0.2203" style="stop-color:#99D4DD;stop-opacity:0"/>
			<stop  offset="1" style="stop-color:#99D4DD"/>
		</linearGradient>
		<polygon display="inline" opacity="0.3" fill="url(#SVGID_6_)" enable-background="new    " points="2657.006,2539.431 
			2575.408,2479.744 3280.805,1488.271 3358.986,1471.636 3426.502,1483.857 		"/>
		
			<linearGradient id="SVGID_7_" gradientUnits="userSpaceOnUse" x1="-2340.3079" y1="150.6238" x2="-2340.3081" y2="-641.3284" gradientTransform="matrix(0.4072 0.2978 -0.5904 0.8071 3640.4932 2688.7908)">
			<stop  offset="0.2203" style="stop-color:#99D4DD;stop-opacity:0"/>
			<stop  offset="1" style="stop-color:#99D4DD"/>
		</linearGradient>
		<polygon display="inline" opacity="0.3" fill="url(#SVGID_7_)" enable-background="new    " points="2621.965,2130.509 
			2580.801,2100.398 3020.178,1488.045 3043.27,1480.674 3088.748,1490.75 		"/>
		
			<linearGradient id="SVGID_8_" gradientUnits="userSpaceOnUse" x1="-6433.106" y1="274.6296" x2="-6433.106" y2="-551.9016" gradientTransform="matrix(0.1954 0.1429 -0.7322 1.001 4210.5117 2937.4163)">
			<stop  offset="0.2203" style="stop-color:#99D4DD;stop-opacity:0"/>
			<stop  offset="1" style="stop-color:#99D4DD"/>
		</linearGradient>
		<polygon display="inline" opacity="0.2" fill="url(#SVGID_8_)" enable-background="new    " points="2760.064,2298.636 
			2740.311,2284.187 3332.658,1477.323 3359.73,1472.227 3369.674,1474.513 		"/>
		
			<linearGradient id="SVGID_9_" gradientUnits="userSpaceOnUse" x1="-7713.6201" y1="-741.6814" x2="-7713.6201" y2="-1437.0251" gradientTransform="matrix(0.2003 0.1465 -0.3133 0.4283 3980.8411 3225.4399)">
			<stop  offset="0.2203" style="stop-color:#99D4DD;stop-opacity:0"/>
			<stop  offset="1" style="stop-color:#99D4DD"/>
		</linearGradient>
		<polygon display="inline" opacity="0.2" fill="url(#SVGID_9_)" enable-background="new    " points="2682.277,1788.05 
			2662.033,1773.24 2866.578,1476.899 2878.686,1483.738 2893.295,1485.237 		"/>
		
			<linearGradient id="SVGID_10_" gradientUnits="userSpaceOnUse" x1="-13115.7822" y1="124.241" x2="-13115.7822" y2="-667.4465" gradientTransform="matrix(0.0983 0.0719 -0.7322 1.001 4444.7622 3108.8813)">
			<stop  offset="0.2203" style="stop-color:#99D4DD;stop-opacity:0"/>
			<stop  offset="1" style="stop-color:#99D4DD"/>
		</linearGradient>
		<polygon display="inline" opacity="0.3" fill="url(#SVGID_10_)" enable-background="new    " points="3070.389,2294.521 
			3060.447,2287.248 3634.416,1498.767 3650.021,1502.012 		"/>
		
			<linearGradient id="SVGID_11_" gradientUnits="userSpaceOnUse" x1="-14898.2393" y1="246.3967" x2="-14898.2393" y2="-563.4968" gradientTransform="matrix(0.0983 0.0719 -0.7322 1.001 4444.7622 3108.8813)">
			<stop  offset="0.2203" style="stop-color:#99D4DD;stop-opacity:0"/>
			<stop  offset="1" style="stop-color:#99D4DD"/>
		</linearGradient>
		<polygon display="inline" opacity="0.3" fill="url(#SVGID_11_)" enable-background="new    " points="2805.395,2288.394 
			2795.453,2281.121 3379.748,1476.078 3400.236,1479.035 		"/>
		
			<linearGradient id="SVGID_12_" gradientUnits="userSpaceOnUse" x1="-16988.1484" y1="348.9285" x2="-16988.1484" y2="-405.4246" gradientTransform="matrix(0.0983 0.0719 -0.7322 1.001 4444.7622 3108.8813)">
			<stop  offset="0.2203" style="stop-color:#99D4DD;stop-opacity:0"/>
			<stop  offset="1" style="stop-color:#99D4DD"/>
		</linearGradient>
		<polygon display="inline" opacity="0.3" fill="url(#SVGID_12_)" enable-background="new    " points="2525.08,2240.908 
			2515.141,2233.638 3051.102,1483.738 3084.068,1490.666 		"/>
		
			<linearGradient id="SVGID_13_" gradientUnits="userSpaceOnUse" x1="-916.1602" y1="-1983.6951" x2="-916.1602" y2="-2767.6697" gradientTransform="matrix(0.3795 0.2776 -0.2909 0.3977 3554.553 2831.9038)">
			<stop  offset="0.2203" style="stop-color:#99D4DD;stop-opacity:0"/>
			<stop  offset="1" style="stop-color:#99D4DD"/>
		</linearGradient>
		<polygon display="inline" opacity="0.3" fill="url(#SVGID_13_)" enable-background="new    " points="3804.547,1803.742 
			3766.184,1775.683 3962.342,1494.3 4036.023,1494.459 		"/>
		<polygon display="inline" opacity="0.4" fill="#99D4DD" enable-background="new    " points="2115.193,1508.245 2173.4,1492.928 
			2201.469,1500.586 2197.908,1506.714 		"/>
		<polygon display="inline" opacity="0.4" fill="#99D4DD" enable-background="new    " points="2210.162,1495.991 
			2219.354,1499.054 2228.543,1499.054 2213.227,1506.714 2204.035,1505.182 2206.143,1501.352 		"/>
		<polygon display="inline" opacity="0.4" fill="#99D4DD" enable-background="new    " points="2254.584,1499.054 
			2263.773,1499.054 2285.219,1492.928 2269.9,1508.245 2259.178,1506.714 		"/>
		<polygon display="inline" opacity="0.4" fill="#99D4DD" enable-background="new    " points="2504.26,1488.332 2533.109,1500.586 
			2549.76,1502.118 2536.428,1514.373 2499.666,1506.714 2478.84,1504.031 		"/>
		<polygon display="inline" opacity="0.4" fill="#99D4DD" enable-background="new    " points="2416.951,1506.714 
			2395.506,1509.778 2378.656,1506.714 2378.656,1515.905 2393.975,1520.5 2413.887,1515.905 2429.205,1506.714 		"/>
		<polygon display="inline" opacity="0.4" fill="#99D4DD" enable-background="new    " points="2830.525,1471.484 
			2861.162,1488.332 2815.209,1479.142 		"/>
		<polygon display="inline" opacity="0.4" fill="#99D4DD" enable-background="new    " points="2804.486,1485.269 
			2758.533,1492.928 2771.207,1502.118 2827.463,1492.928 		"/>
		<polygon display="inline" opacity="0.4" fill="#99D4DD" enable-background="new    " points="2708.766,1501.352 
			2701.184,1502.118 2671.746,1501.352 2683.477,1506.714 2714.113,1512.841 2721.771,1499.054 		"/>
		<polygon display="inline" opacity="0.4" fill="#99D4DD" enable-background="new    " points="4134.059,1489.865 
			4157.033,1499.054 4168.982,1504.444 4147.746,1504.444 4131.688,1502.118 4105.27,1504.444 4104.953,1497.524 		"/>
		<polygon display="inline" opacity="0.4" fill="#99D4DD" enable-background="new    " points="3904.293,1499.054 
			3839.959,1482.205 3780.221,1474.546 3757.244,1485.269 3792.475,1486.801 		"/>
		<polygon display="inline" opacity="0.4" fill="#99D4DD" enable-background="new    " points="4082.479,1502.118 
			4044.146,1502.118 4048.279,1509.778 4069.725,1509.778 		"/>
		
			<linearGradient id="SVGID_14_" gradientUnits="userSpaceOnUse" x1="2169.1465" y1="-794.8079" x2="2845.541" y2="-794.8079" gradientTransform="matrix(1 0 0 1 1078.0195 2646.8008)">
			<stop  offset="0.2203" style="stop-color:#99D4DD;stop-opacity:0"/>
			<stop  offset="1" style="stop-color:#99D4DD"/>
		</linearGradient>
		<polygon display="inline" opacity="0.3" fill="url(#SVGID_14_)" enable-background="new    " points="3379.561,2244.757 
			3247.166,2180.69 3763.371,1459.229 3923.561,1493.812 		"/>
		
			<linearGradient id="SVGID_15_" gradientUnits="userSpaceOnUse" x1="-4627.4287" y1="-2.4514" x2="-4627.4287" y2="-793.5979" gradientTransform="matrix(0.1954 0.1429 -0.7322 1.001 4210.5117 2937.4163)">
			<stop  offset="0.2203" style="stop-color:#99D4DD;stop-opacity:0"/>
			<stop  offset="1" style="stop-color:#99D4DD"/>
		</linearGradient>
		<polygon display="inline" opacity="0.2" fill="url(#SVGID_15_)" enable-background="new    " points="3319.158,2281.785 
			3299.402,2267.334 3870.309,1481.918 3897.367,1489.066 		"/>
		
			<linearGradient id="SVGID_16_" gradientUnits="userSpaceOnUse" x1="-11339.5127" y1="-458.8162" x2="-11339.5127" y2="-1266.657" gradientTransform="matrix(0.1004 0.0734 -0.4998 0.6834 4374.0166 3176.877)">
			<stop  offset="0.2203" style="stop-color:#99D4DD;stop-opacity:0"/>
			<stop  offset="1" style="stop-color:#99D4DD"/>
		</linearGradient>
		<polygon display="inline" opacity="0.3" fill="url(#SVGID_16_)" enable-background="new    " points="3470.229,2034.937 
			3460.082,2024.449 3858.34,1479.142 3875.189,1483.738 		"/>
		<polygon display="inline" opacity="0.4" fill="#99D4DD" enable-background="new    " points="3702.102,1499.054 
			3656.146,1512.841 3617.996,1505.948 3650.021,1525.095 		"/>
		<polygon display="inline" opacity="0.4" fill="#99D4DD" enable-background="new    " points="3523.736,1502.118 3488.75,1504.444 
			3447.012,1497.155 3460.082,1520.5 3543.391,1512.841 		"/>
		<polygon display="inline" opacity="0.4" fill="#99D4DD" enable-background="new    " points="3262.484,1499.054 
			3205.809,1499.054 3169.314,1505.948 3220.547,1512.075 		"/>
		<polygon display="inline" opacity="0.4" fill="#99D4DD" enable-background="new    " points="3060.447,1502.118 3043.551,1494.3 
			3013.799,1508.827 		"/>
		<polygon display="inline" opacity="0.4" fill="#99D4DD" enable-background="new    " points="3080.857,1501.563 
			3048.037,1509.778 3098.586,1512.841 3119.861,1502.884 		"/>
		<polygon display="inline" opacity="0.4" fill="#99D4DD" enable-background="new    " points="3355.922,1485.269 
			3336.008,1494.459 3392.277,1489.865 		"/>
		<polygon display="inline" opacity="0.4" fill="#99D4DD" enable-background="new    " points="3680.883,1512.841 3712.566,1520.5 
			3650.021,1534.285 		"/>
		<g display="inline">
			<g>
				<g>
					<defs>
						<rect id="SVGID_17_" x="889.373" y="1308.179" width="1205" height="479"/>
					</defs>
					<clipPath id="SVGID_18_">
						<use xlink:href="#SVGID_17_"  overflow="visible"/>
					</clipPath>
					<polygon opacity="0.9" clip-path="url(#SVGID_18_)" fill="#FFFFFF" enable-background="new    " points="3141.373,1516.179 
						3124.373,1508.179 3086.373,1494.179 3046.373,1507.179 2871.373,1507.179 2793.373,1487.179 2717.373,1473.179 
						2610.064,1515.884 2542.373,1502.179 2444.373,1507.179 2312.373,1485.179 2228.373,1502.179 2024.373,1502.179 
						1996.373,1494.179 1960.373,1507.179 1889.373,1507.179 1829.373,1494.179 1791.373,1473.179 1751.373,1493.179 
						1653.373,1505.179 1491.373,1505.179 1457.373,1493.179 1431.373,1505.179 1348.373,1515.179 1258.373,1493.179 
						1215.373,1505.179 1174.373,1505.179 1128.373,1493.179 1047.373,1516.179 					"/>
				</g>
			</g>
			<g>
				<g>
					<defs>
						<rect id="SVGID_19_" x="889.373" y="1308.179" width="1205" height="479"/>
					</defs>
					<clipPath id="SVGID_20_">
						<use xlink:href="#SVGID_19_"  overflow="visible"/>
					</clipPath>
					<polygon opacity="0.9" clip-path="url(#SVGID_20_)" fill="#4EBDC8" enable-background="new    " points="3142.373,1516.179 
						3125.373,1508.179 3087.373,1494.179 3047.373,1507.179 2872.373,1507.179 2794.373,1487.179 2718.373,1473.179 
						2611.064,1515.884 2543.373,1502.179 2445.373,1507.179 2313.373,1485.179 2229.373,1502.179 2025.373,1502.179 
						1997.373,1494.179 1961.373,1507.179 1890.373,1507.179 1830.373,1494.179 1792.373,1473.179 1752.373,1493.179 
						1654.373,1505.179 1492.373,1505.179 1458.373,1493.179 1432.373,1505.179 1349.373,1515.179 1259.373,1493.179 
						1216.373,1505.179 1175.373,1505.179 1129.373,1493.179 1048.373,1516.179 					"/>
				</g>
			</g>
			<g>
				<g>
					<defs>
						<rect id="SVGID_21_" x="889.373" y="1308.179" width="1205" height="479"/>
					</defs>
					<clipPath id="SVGID_22_">
						<use xlink:href="#SVGID_21_"  overflow="visible"/>
					</clipPath>
					<polygon opacity="0.4" clip-path="url(#SVGID_22_)" fill="#99D4DD" enable-background="new    " points="1070.192,1522.245 
						1128.399,1506.928 1156.469,1514.586 1152.908,1520.714 					"/>
				</g>
			</g>
			<g>
				<g>
					<defs>
						<rect id="SVGID_23_" x="889.373" y="1308.179" width="1205" height="479"/>
					</defs>
					<clipPath id="SVGID_24_">
						<use xlink:href="#SVGID_23_"  overflow="visible"/>
					</clipPath>
					<polygon opacity="0.4" clip-path="url(#SVGID_24_)" fill="#99D4DD" enable-background="new    " points="1165.162,1509.991 
						1174.352,1513.054 1183.542,1513.054 1168.225,1520.714 1159.035,1519.182 1161.143,1515.352 					"/>
				</g>
			</g>
			<g>
				<g>
					<defs>
						<rect id="SVGID_25_" x="889.373" y="1308.179" width="1205" height="479"/>
					</defs>
					<clipPath id="SVGID_26_">
						<use xlink:href="#SVGID_25_"  overflow="visible"/>
					</clipPath>
					<polygon opacity="0.4" clip-path="url(#SVGID_26_)" fill="#99D4DD" enable-background="new    " points="1209.583,1513.054 
						1218.771,1513.054 1240.219,1506.928 1224.899,1522.245 1214.178,1520.714 					"/>
				</g>
			</g>
			<g>
				<g>
					<defs>
						<rect id="SVGID_27_" x="889.373" y="1308.179" width="1205" height="479"/>
					</defs>
					<clipPath id="SVGID_28_">
						<use xlink:href="#SVGID_27_"  overflow="visible"/>
					</clipPath>
					<polygon opacity="0.4" clip-path="url(#SVGID_28_)" fill="#99D4DD" enable-background="new    " points="1459.26,1502.332 
						1488.109,1514.586 1504.759,1516.118 1491.427,1528.373 1454.666,1520.714 1433.839,1518.031 					"/>
				</g>
			</g>
			<g>
				<g>
					<defs>
						<rect id="SVGID_29_" x="889.373" y="1308.179" width="1205" height="479"/>
					</defs>
					<clipPath id="SVGID_30_">
						<use xlink:href="#SVGID_29_"  overflow="visible"/>
					</clipPath>
					<polygon opacity="0.4" clip-path="url(#SVGID_30_)" fill="#99D4DD" enable-background="new    " points="1371.951,1520.714 
						1350.505,1523.778 1333.656,1520.714 1333.656,1529.905 1348.975,1534.5 1368.887,1529.905 1384.205,1520.714 					"/>
				</g>
			</g>
			<g>
				<g>
					<defs>
						<rect id="SVGID_31_" x="889.373" y="1308.179" width="1205" height="479"/>
					</defs>
					<clipPath id="SVGID_32_">
						<use xlink:href="#SVGID_31_"  overflow="visible"/>
					</clipPath>
					<polygon opacity="0.4" clip-path="url(#SVGID_32_)" fill="#99D4DD" enable-background="new    " points="1785.527,1485.484 
						1816.162,1502.332 1770.208,1493.142 					"/>
				</g>
			</g>
			<g>
				<g>
					<defs>
						<rect id="SVGID_33_" x="889.373" y="1308.179" width="1205" height="479"/>
					</defs>
					<clipPath id="SVGID_34_">
						<use xlink:href="#SVGID_33_"  overflow="visible"/>
					</clipPath>
					<polygon opacity="0.4" clip-path="url(#SVGID_34_)" fill="#99D4DD" enable-background="new    " points="1759.486,1499.269 
						1713.533,1506.928 1726.207,1516.118 1782.462,1506.928 					"/>
				</g>
			</g>
			<g>
				<g>
					<defs>
						<rect id="SVGID_35_" x="889.373" y="1308.179" width="1205" height="479"/>
					</defs>
					<clipPath id="SVGID_36_">
						<use xlink:href="#SVGID_35_"  overflow="visible"/>
					</clipPath>
					<polygon opacity="0.4" clip-path="url(#SVGID_36_)" fill="#99D4DD" enable-background="new    " points="1663.766,1515.352 
						1656.184,1516.118 1626.746,1515.352 1638.477,1520.714 1669.113,1526.841 1676.771,1513.054 					"/>
				</g>
			</g>
			<g>
				<g>
					<defs>
						<rect id="SVGID_37_" x="889.373" y="1308.179" width="1205" height="479"/>
					</defs>
					<clipPath id="SVGID_38_">
						<use xlink:href="#SVGID_37_"  overflow="visible"/>
					</clipPath>
					<polygon opacity="0.4" clip-path="url(#SVGID_38_)" fill="#99D4DD" enable-background="new    " points="2217.484,1513.054 
						2160.809,1513.054 2124.314,1519.948 2175.547,1526.075 					"/>
				</g>
			</g>
			<g>
				<g>
					<defs>
						<rect id="SVGID_39_" x="889.373" y="1308.179" width="1205" height="479"/>
					</defs>
					<clipPath id="SVGID_40_">
						<use xlink:href="#SVGID_39_"  overflow="visible"/>
					</clipPath>
					<polygon opacity="0.4" clip-path="url(#SVGID_40_)" fill="#99D4DD" enable-background="new    " points="2015.449,1516.118 
						1998.551,1508.3 1968.799,1522.827 					"/>
				</g>
			</g>
			<g>
				<g>
					<defs>
						<rect id="SVGID_41_" x="889.373" y="1308.179" width="1205" height="479"/>
					</defs>
					<clipPath id="SVGID_42_">
						<use xlink:href="#SVGID_41_"  overflow="visible"/>
					</clipPath>
					<polygon opacity="0.4" clip-path="url(#SVGID_42_)" fill="#99D4DD" enable-background="new    " points="2035.857,1515.563 
						2003.037,1523.778 2053.586,1526.841 2074.861,1516.884 					"/>
				</g>
			</g>
		</g>
	</g>
	<g id="searocks" display="none">
		<polygon display="inline" fill="#00292D" points="2347.301,3021 2512.831,2962.405 2848.29,3066.412 2558.243,3066.412 
			2328.256,3085.455 		"/>
		<polygon display="inline" fill="#1C1C1C" points="2821.938,3240 2848.29,3066.412 2558.243,3066.412 2328.256,3085.455 
			2348.707,3240 		"/>
		<polygon display="inline" fill="#00292D" points="3699.165,3001.674 3768.409,3041.931 3972.919,2987.18 3876.301,3048.373 
			4113.016,3059.644 4185.52,2967.063 4185.521,2926.664 3834.432,2934.039 		"/>
		<polygon display="inline" fill="#1C1C1C" points="4185.654,3205.365 4181.684,3240 3711.444,3240 3699.165,3001.674 
			3768.409,3041.931 3972.919,2987.18 3876.301,3048.373 4113.016,3059.644 4185.52,2967.063 		"/>
		<polygon display="inline" fill="#042325" points="3598.085,3081.463 3505.737,3059.252 3398.191,3115.362 3598.085,3143.418 
			3649.521,3101.334 		"/>
		<polygon display="inline" fill="#1B1B1B" points="3649.311,3102.025 3628.438,3240 3408.139,3240 3398.191,3115.822 
			3598.258,3143.418 		"/>
	</g>
	
		<linearGradient id="ground_1_" gradientUnits="userSpaceOnUse" x1="-31.8252" y1="593.1995" x2="-31.8255" y2="-1137.8005" gradientTransform="matrix(1 0 0 1 1078.0195 2646.8008)">
		<stop  offset="0.1599" style="stop-color:#292618"/>
		<stop  offset="0.5657" style="stop-color:#544519"/>
		<stop  offset="0.6605" style="stop-color:#54461A"/>
		<stop  offset="0.755" style="stop-color:#524A1C"/>
		<stop  offset="0.8495" style="stop-color:#4C5021"/>
		<stop  offset="0.9434" style="stop-color:#3C582C"/>
		<stop  offset="0.9743" style="stop-color:#345B2F"/>
	</linearGradient>
	<polygon id="ground" fill="url(#ground_1_)" points="2092.389,3240 0,3240 0,1516.176 0,1509 602.018,1509 932.5,1516.176 
		1046.619,1516.176 1238.619,1575 1407.619,1610 1570.619,1679 1724.619,1944 1909.619,2101 2050.619,2246 2092.389,2499.782 	"/>
	<g id="trees" display="none">
		
			<image display="inline" overflow="visible" enable-background="new    " width="778" height="1144" xlink:href="C2293386.png"  transform="matrix(-0.7738 0 0 0.7738 602.0166 666.0002)">
		</image>
	</g>
</g>
<g id="guide">
</g>
</svg>
