<?xml version="1.0" encoding="utf-8"?>
<!-- Generator: Adobe Illustrator 16.0.0, SVG Export Plug-In . SVG Version: 6.00 Build 0)  -->
<!DOCTYPE svg PUBLIC "-//W3C//DTD SVG 1.1//EN" "http://www.w3.org/Graphics/SVG/1.1/DTD/svg11.dtd">
<svg version="1.1" id="Layer_1" xmlns="http://www.w3.org/2000/svg" xmlns:xlink="http://www.w3.org/1999/xlink" x="0px" y="0px"
	 width="500px" height="500px" viewBox="0 0 500 500" enable-background="new 0 0 500 500" xml:space="preserve">
<title>logo</title>
<g id="Layer_2">
	<g id="Layer_1-2">
		<path d="M478.919,371.622l-41.71-41.669c0,0,2.694-2.715,8.741-8.74c6.046-6.026,14.294-4.793,20.278,1.192l29.534,29.555
			C507.877,364.012,491.362,384.045,478.919,371.622z"/>
		<path d="M237.691,249.743L237.691,249.743z"/>
		<path d="M241.495,281.293c-0.432-1.79-0.843-3.579-1.213-5.369C240.632,277.734,241.064,279.503,241.495,281.293z"/>
		<path d="M239.459,271.276c-0.103-0.556-0.205-1.11-0.288-1.666C239.254,270.166,239.357,270.721,239.459,271.276z"/>
		<path d="M350.17,126.753l1.811-3.394l1.419-0.144l2.982-0.268l1.563-0.123l0.946-1.687l1.028-1.687l-0.885-0.124l-0.863-0.124
			l-2.468-0.596c-12.343,1.141-24.449,4.093-35.931,8.761c-10.411,4.199-20.235,9.73-29.226,16.454c0,0,0.206,0.884,0.823,0.473
			c1.018-0.748,2.288-1.065,3.537-0.884c2.005-0.018,4.006,0.189,5.964,0.617l3.723,0.658l0.741-0.74
			c0.561-0.584,0.982-1.287,1.233-2.057c0.474-1.107,1.175-2.102,2.057-2.921l1.584-1.666h1.707
			c1.012,0.051,2.014-0.223,2.858-0.782c1.674-0.925,3.466-1.617,5.327-2.057c0.556-0.124,3.723-0.411,7.055-0.658l6.025-0.535
			l0.638-0.617c0.35-0.329,1.09-1.152,1.646-1.81c0.987-1.193,1.028-1.213,2.057-1.213c1.575,0.039,3.141,0.252,4.669,0.637
			c0.319,0.142,0.565,0.41,0.679,0.741c0.126,0.403,0.313,0.785,0.555,1.131c0.322,0.461,0.44,1.033,0.329,1.584
			c-0.103,0.905,0,0.987,0.247,0.822c0.836-0.71,1.626-1.473,2.365-2.283C347.951,130.669,349.24,128.802,350.17,126.753z"/>
		<path d="M374.645,118.938l-1.049,2.057c-0.904,1.341-1.371,2.928-1.337,4.545c-0.126,0.949-0.126,1.91,0,2.858
			c1.198,0.51,2.446,0.896,3.723,1.152c0.173-0.602,0.31-1.213,0.411-1.831c0.329-1.666,0.412-1.851,1.316-2.735l0.967-0.946
			l6.561,2.92c3.6,1.625,7.486,3.414,8.68,3.99l2.057,1.07l5.409-0.412l5.389-0.452l1.501-1.481c0.498-0.54,1.041-1.035,1.625-1.481
			c0,0,3.578,1.666,7.795,3.682l7.671,3.702h6.931l1.399-0.206c-9.3-5.373-19.227-9.579-29.555-12.525
			c-9.255-2.903-18.871-4.495-28.567-4.73L374.645,118.938z"/>
		<path d="M497.82,228.168c-4.328-26.898-16.955-51.771-36.115-71.141l-1.83-0.556c0,0-1.625-0.514-3.559-1.234
			c-2.694-1.008-4.442-3.167-6.561-4.113c-4.483-1.954-8.351-2.53-10.283-4.113l-0.987-0.823l-7.631-0.596l-7.65-0.617l-1.707,1.707
			c-0.674,0.592-1.25,1.286-1.707,2.057c0.227,0.701,0.494,1.387,0.802,2.057l0.782,1.851h1.46c0.509-0.019,1.017,0.05,1.501,0.206
			c0,0,0.124,1.296,0.268,2.715s0.247,2.591,0.247,2.612c0,0.021-1.132-0.617-2.469-1.419c-1.912-1.131-2.468-1.398-2.611-1.172
			l-1.666,2.9c-1.275,2.304-1.543,2.612-1.893,2.509c-0.54-0.127-1.091-0.21-1.646-0.247c-0.557-0.02-1.109-0.11-1.645-0.267
			c-0.298-0.118-0.608-0.201-0.926-0.247c-0.37,0-0.617-0.288-0.885-0.844c-0.267-0.555-0.555-0.863-2.221-0.555
			c-0.639,0.116-1.235,0.4-1.728,0.823l-0.617,0.597l-0.926-0.699c-0.884-0.658-1.008-0.72-2.632-0.72c-1.625,0-1.729,0-2.181,1.378
			c-0.123,0.391,0,0.453,0.905,0.576l1.028,0.144l-0.926,1.151c-0.843,1.09-0.884,1.193-0.617,1.625
			c0.268,0.432,0.411,0.679-0.473,0.679c-1.809-0.2-3.581-0.649-5.266-1.337c-1.333-0.603-2.842-0.69-4.236-0.247
			c-0.864,0.35-2.057,1.563-4.792,4.627l-2.057,2.345l1.625,1.625l1.624,1.625h1.173c0.919,0.046,1.83,0.198,2.715,0.452
			c1.316,0.391,1.563,0.535,1.728,1.028c0.164,0.494,0.493,0.679,4.113,0.432l2.057-0.124l2.406-1.913
			c1.528-1.59,3.616-2.52,5.82-2.591c1.337-0.227,1.357-0.227,3.559,0.658c2.2,0.884,2.303,0.864,3.373,0.74
			c3.146-0.37,3.578-0.391,3.435-0.165c-0.145,0.226,0.432,1.687,1.645,3.538c0.785,1.319,1.473,2.694,2.057,4.113
			c0.594,1.415,1.281,2.79,2.058,4.113c0.728,0.854,1.154,1.923,1.213,3.044c0.165,1.439,0.186,1.501,0.679,1.46
			c1.017-0.002,2.033,0.053,3.044,0.164c0.873,0.113,1.753,0.154,2.633,0.124c-0.141-0.467-0.364-0.906-0.658-1.295
			c-0.572-0.9-1.347-1.654-2.263-2.201c-1.255-0.864-1.542-1.172-1.851-2.057c-0.309-0.885-0.987-2.592-1.769-4.607
			c-0.782-2.016-1.399-3.702-1.357-3.723c0.315-0.167,0.646-0.305,0.986-0.412c1.07-0.411,1.049-0.432,2.057,1.522
			c0.329,0.617,1.05,1.831,1.625,2.653c1.008,1.522,1.069,1.563,3.455,2.776l2.427,1.255v1.769c0.165,2.674,0.494,3.064,3.497,4.113
			l2.365,0.864l1.748-0.925c2.468-1.316,2.488-1.337,3.044-2.345l0.514-0.926l-0.863-1.151l-0.864-1.152h4.483l1.749,1.913
			c1.258,1.523,2.897,2.687,4.75,3.373c2.428,1.193,3.003,1.563,2.921,1.851s-0.144,0.905-0.227,1.563l-0.144,1.213l1.81,1.81
			l1.811,1.831l-0.699,0.72c-0.245,0.287-0.537,0.531-0.864,0.72c-3.616-1.462-7.152-3.117-10.592-4.957l-2.715-1.522l-4.566,0.247
			c-2.529,0.144-4.977,0.309-5.429,0.371l-0.844,0.123v1.892c0,1.049,0.123,2.057,0.165,2.324c0.041,0.268,1.151,1.131,3.455,2.633
			c2.181,1.485,4.52,2.727,6.972,3.702c3.326,1.393,6.514,3.094,9.522,5.08c0.032,0.763-0.01,1.528-0.123,2.283
			c-0.071,1.462-0.525,2.881-1.316,4.113c-0.316,0.734-0.724,1.425-1.214,2.057c-0.625-0.314-1.224-0.679-1.789-1.09
			c-1.948-1.486-3.752-3.153-5.389-4.977l-3.743-3.887h-1.049c-1.008,0-1.131,0-4.257-2.529l-3.229-2.509h-1.48h-1.48l-0.433,1.748
			l-0.432,1.748h-0.72c-1.316-0.124-1.419-0.206-1.439-1.131c0.013-0.41-0.036-0.818-0.145-1.213c0-0.186-2.776-2.304-6.006-4.689
			c-3.229-2.386-5.82-4.401-5.8-4.442c0.416-0.559,0.862-1.095,1.337-1.604c0.671-1.074,1.76-1.819,3.003-2.057
			c0.586-0.111,1.149-0.32,1.666-0.617c-0.284-0.542-0.614-1.058-0.987-1.542l-0.967-1.419h-1.11c-1.008,0-1.316-0.226-3.517-1.748
			l-2.447-1.666l-2.365,0.576l-2.365,0.576l-1.481-1.193l-2.591-2.324l-1.563-1.316l-2.057,0.123
			c-2.96,0.171-5.923-0.277-8.699-1.316l-2.242-0.864l-2.776,0.247l-2.776,0.247l-2.982,2.057l-2.982,2.057l-2.776,0.473
			c-1.501,0.07-2.956,0.539-4.216,1.357c-0.939,0.559-1.94,1.007-2.982,1.337c-0.992,0.116-1.869,0.696-2.365,1.563l-0.802,1.111
			l-2.612-0.103l-2.551-0.123l-2.776,2.468c-1.125,0.929-2.108,2.017-2.92,3.229c0,0.309-0.474,2.057-0.905,3.867l-0.761,3.291
			l-2.715,2.879c-2.633,2.776-2.715,2.9-3.044,4.237c-0.235,1.095-0.353,2.212-0.35,3.332c-0.076,1.581,0.279,3.152,1.028,4.545
			c1.974,4.636,4.227,9.148,6.746,13.513l3.023,5.471l1.172,0.72c1.017,0.644,2.215,0.939,3.414,0.843l2.18,0.144l2.839,2.242
			c0.99,0.936,2.14,1.688,3.394,2.221l4.668,0.309l4.319,0.309c0.389,0.312,0.705,0.705,0.926,1.151l0.699,1.131l1.069-0.124
			l1.069-0.144l1.893,2.201l1.912,2.18h0.844l1.687-0.247l0.822-0.144l0.515,3.682l0.514,3.66l-1.274,1.831
			c-0.837,1.136-1.781,2.19-2.818,3.146l-1.521,1.316l0.597,3.435c0.308,1.913,0.802,6.17,1.069,9.646
			c0.514,6.17,0.514,6.17,0.103,7.65c-0.781,2.817-0.781,2.817-3.476,4.607l-2.447,1.624l-2.941,8.762l-2.962,8.556l0.905,4.463
			l0.905,4.463l-0.576,3.846l-0.576,3.867l-1.81,2.365l-1.81,2.365l-0.145,2.345c-0.048,1.269-0.255,2.526-0.617,3.743l-0.473,1.378
			l1.81,0.534l1.811,0.535l2.057-0.926l2.057-0.926h5.101l4.277,1.379l4.278,1.377l2.694-1.357c1.501-0.76,4.73-2.57,7.178-4.113
			l4.463-2.652l2.2-0.227c0.808-0.045,1.604-0.203,2.365-0.473c0,0,0.247-1.707,0.412-3.518l0.267-3.311l1.173-1.357l1.192-1.379
			l2.057-0.246c2,0.105,3.95-0.643,5.368-2.057l1.893-1.563h3.208l5.718-5.224c6.458-5.8,5.923-5.039,6.561-9.256
			c0.186-1.172,0.535-3.125,0.802-4.339c0.474-2.181,0.494-2.222,2.694-5.471l2.181-3.271l1.378-0.144
			c0.74,0,1.707-0.124,2.057-0.124c1.107-0.192,2.182-0.545,3.188-1.049c2.512-1.195,4.866-2.694,7.014-4.463l4.647-3.393
			l1.522-2.592c2.735-4.648,3.702-6.335,3.702-6.52c-0.465-0.339-0.987-0.59-1.543-0.74l-1.542-0.535l-0.782,0.822l-0.761,0.822
			l-1.912-1.542c-2.406-1.954-2.283-1.872-2.469-1.337c-0.185,0.535-0.246-0.432-0.411-2.283c-0.168-1.021-0.168-2.063,0-3.084
			c0.474-0.905,0.247-1.522-1.09-2.921c-1.763-2.001-3.043-4.379-3.743-6.952c-0.781-1.901-1.206-3.93-1.255-5.985
			c-0.251-1.56-0.251-3.15,0-4.71c0.187-1.149,0.228-2.316,0.124-3.476c-0.124-2.242,0-9.132,0.144-10.613l0.103-0.843l1.543,0.35
			c0.567,0.119,1.125,0.284,1.666,0.494c-0.019,1.611-0.143,3.218-0.37,4.813l-0.515,4.668l0.987,2.057l0.987,2.057v3.64
			c-0.205,4.031,0.354,8.064,1.646,11.888l1.069,3.127l2.488,3.146c1.357,1.707,2.489,3.167,2.53,3.188
			c0.418-0.209,0.812-0.464,1.172-0.761c1.09-0.844,1.11-0.844,2.941-0.844h1.81l5.861-6.479l5.862-6.479l0.35-1.687
			c0.185-0.925,0.35-1.83,0.37-2.057c-1.144-2.123-2.523-4.11-4.113-5.923c-2.057-2.756-2.263-2.818-3.97-1.584
			c-0.37,0.317-0.806,0.549-1.275,0.679c-0.166-0.677-0.289-1.364-0.37-2.057c-0.104-1.22-0.499-2.398-1.151-3.435
			c-0.74-1.296-0.967-1.563-1.337-1.522s-0.556-0.124-0.781-0.473c-0.227-0.35-0.329-0.823-0.206-2.324
			c0-0.987,0.268-2.345,0.391-3.003c0.247-1.213,0.247-1.234,1.543-1.933c0.416-0.269,0.865-0.483,1.337-0.638
			c0.205,0.288,2.262,6.17,2.632,7.568l0.474,1.728l2.776,2.386c1.521,1.316,4.257,3.805,6.067,5.553l3.27,3.167l0.905,2.879
			c0.514,1.583,1.214,4.339,1.563,6.17l0.657,3.188l1.42,0.555l1.439,0.535v4.113c0,2.242-0.309,7.672-0.576,12.053
			s-0.493,8.021-0.452,8.041l0.946,0.494c0.473,0.246,0.863,0.534,0.863,0.637l1.132-0.617c2.759-9.693,4.069-19.743,3.887-29.821
			C499.836,243.261,499.182,235.659,497.82,228.168z"/>
		<path d="M93.353,270.577c-14.952,14.952,6.088,30.583,18.284,18.243l122.27-122.229c-5.514-6.661-11.627-12.802-18.264-18.346
			L93.353,270.577z"/>
		<path d="M237.568,250.051c0.045,58.429-47.284,105.833-105.713,105.878c-58.43,0.046-105.833-47.283-105.879-105.713
			C25.93,191.788,73.26,144.384,131.689,144.338c23.697-0.019,46.714,7.919,65.362,22.541l18.51-18.51
			C159.407,102.2,76.46,110.294,30.291,166.447C-15.878,222.6-7.784,305.549,48.369,351.717
			c56.152,46.169,139.101,38.074,185.27-18.078c30.119-36.632,38.203-86.634,21.163-130.891
			C249.805,189.503,237.568,225.598,237.568,250.051z"/>
		<path d="M239.11,262.289c-0.875-9.584-0.771-19.231,0.309-28.794c0.224-2.393,0.63-4.765,1.214-7.096c0,0,0.761,2.53,1.521,5.615
			s1.789,7.733,2.283,10.284l0.905,4.751l-0.165,4.504l-0.164,4.504l1.933,3.518c0.715,1.209,1.36,2.459,1.934,3.742
			c0,0.124-0.432,1.749-0.946,3.579l-0.946,3.414l-0.185,6.17l-0.206,6.171l1.255,3.578c1.558,4.677,2.632,9.501,3.208,14.396
			c0,0,2.777-1.295,2.448-2.365l-0.576-1.912l0.35-2.797c0.247-2.057,0.432-2.859,0.679-3.004l1.584-1.027l1.254-0.823v-1.131
			c0-0.617,0-2.057-0.164-3.394v-2.263l2.057-1.583l2.098-1.789v-4.34l4.956-6.459c2.715-3.558,5.019-6.561,5.122-6.663
			c0.706-0.024,1.408,0.108,2.057,0.391l1.912,0.556l0.803-0.905c0.514-0.556,2.899-4.751,6.17-10.859l5.367-9.934l2.962-0.596
			l2.962-0.597l0.843-0.946c1.646-1.872,1.584-1.728,1.337-3.229c-0.413-1.682-1.108-3.281-2.057-4.73l-1.789-3.332l-2.468-1.542
			l-2.469-1.542v-3.805v-3.785l-3.66-1.933l-3.641-1.933v-5.019v-5.018l0.822-1.522l0.844-1.522l-0.802-1.357
			c-0.803-1.296-0.967-1.44-3.044-2.612l-2.222-1.255l-0.493-2.159l-0.494-2.057l0.35-3.722c0.193-1.362,0.255-2.74,0.186-4.114
			c-0.247-0.411-4.607-6.17-4.669-6.17l-3.188,1.234c-1.555,0.853-3.308,1.279-5.08,1.234c-0.646,0.037-1.295,0.002-1.934-0.103
			h-1.09c-10.214,15.865-16.885,33.747-19.56,52.425c-0.938,6.262-1.344,12.591-1.213,18.921
			c-0.132,6.229,0.281,12.457,1.233,18.613C241.043,283.103,240.796,278.681,239.11,262.289z"/>
		<path d="M247.81,286.229l-1.255-3.578l0.206-6.171l0.226-6.17l0.946-3.331c0.515-1.831,0.946-3.456,0.946-3.579
			c-0.573-1.284-1.219-2.533-1.934-3.743l-1.933-3.518l0.164-4.504l0.165-4.504l-0.905-4.751c-0.494-2.591-1.522-7.26-2.283-10.283
			s-1.46-5.615-1.521-5.615c-0.584,2.331-0.99,4.703-1.214,7.095c-1.08,9.563-1.184,19.21-0.309,28.794
			c1.687,16.453,12.546,42.183,12.546,42.183l-0.638-3.949C250.441,295.716,249.365,290.898,247.81,286.229z"/>
		<path d="M437.209,329.953l2.386-2.385c-42.876,38.751-109.049,35.407-147.8-7.469c-10.479-11.595-18.229-25.389-22.679-40.37
			l-0.185,0.74c-0.535,2.427-1.131,4.813-1.789,7.198c-0.165,0.556-0.309,1.111-0.474,1.666c-1.151,3.949-2.488,7.836-3.969,11.641
			l-0.288,0.721c-1.591,4.003-3.366,7.938-5.327,11.805l0,0l-0.781,1.563l0,0l-0.124,0.227l0,0l-0.164,0.329l-0.288,0.556l0,0v0.123
			c23.6,40.469,66.929,65.346,113.775,65.32c17.031-0.139,33.888-3.445,49.71-9.748c13.521-5.541,26.029-13.283,37.021-22.912
			L437.209,329.953z"/>
	</g>
</g>
</svg>
