<?xml version="1.0" encoding="utf-8"?>
<!-- Generator: Adobe Illustrator 19.0.0, SVG Export Plug-In . SVG Version: 6.00 Build 0)  -->
<svg version="1.1" id="Layer_1" xmlns="http://www.w3.org/2000/svg" xmlns:xlink="http://www.w3.org/1999/xlink" x="0px" y="0px"
	 viewBox="-709 824 500 274" style="enable-background:new -709 824 500 274;" xml:space="preserve">
<style type="text/css">
	.st0{fill:#FFFFFF;}
</style>
<title>logo</title>
<g id="Layer_2">
	<g id="Layer_1-2">
		<path class="st0" d="M-471.3,963.1L-471.3,963.1z"/>
		<path class="st0" d="M-467.5,994.6c-0.4-1.8-0.8-3.6-1.2-5.4C-468.4,991.1-467.9,992.8-467.5,994.6z"/>
		<path class="st0" d="M-469.5,984.6c-0.1-0.6-0.2-1.1-0.3-1.7C-469.7,983.5-469.6,984-469.5,984.6z"/>
		<path class="st0" d="M-358.8,840.1l1.8-3.4l1.4-0.1l3-0.3l1.6-0.1l0.9-1.7l1-1.7l-0.9-0.1l-0.9-0.1l-2.5-0.6
			c-12.3,1.1-24.4,4.1-35.9,8.8c-10.4,4.2-20.2,9.7-29.2,16.5c0,0,0.2,0.9,0.8,0.5c1-0.7,2.3-1.1,3.5-0.9c2,0,4,0.2,6,0.6l3.7,0.7
			l0.7-0.7c0.6-0.6,1-1.3,1.2-2.1c0.5-1.1,1.2-2.1,2.1-2.9l1.6-1.7h1.7c1,0.1,2-0.2,2.9-0.8c1.7-0.9,3.5-1.6,5.3-2.1
			c0.6-0.1,3.7-0.4,7.1-0.7l6-0.5l0.6-0.6c0.4-0.3,1.1-1.2,1.6-1.8c1-1.2,1-1.2,2.1-1.2c1.6,0,3.1,0.3,4.7,0.6
			c0.3,0.1,0.6,0.4,0.7,0.7c0.1,0.4,0.3,0.8,0.6,1.1c0.3,0.5,0.4,1,0.3,1.6c-0.1,0.9,0,1,0.2,0.8c0.8-0.7,1.6-1.5,2.4-2.3
			C-361,844-359.8,842.1-358.8,840.1z"/>
		<path class="st0" d="M-334.4,832.3l-1,2.1c-0.9,1.3-1.4,2.9-1.3,4.5c-0.1,0.9-0.1,1.9,0,2.9c1.2,0.5,2.4,0.9,3.7,1.2
			c0.2-0.6,0.3-1.2,0.4-1.8c0.3-1.7,0.4-1.9,1.3-2.7l1-0.9l6.6,2.9c3.6,1.6,7.5,3.4,8.7,4l2.1,1.1l5.4-0.4l5.4-0.5l1.5-1.5
			c0.5-0.5,1-1,1.6-1.5c0,0,3.6,1.7,7.8,3.7l7.7,3.7h6.9l1.4-0.2c-9.3-5.4-19.2-9.6-29.6-12.5c-9.3-2.9-18.9-4.5-28.6-4.7
			L-334.4,832.3z"/>
		<path class="st0" d="M-211.2,941.5c-4.3-26.9-17-51.8-36.1-71.1l-1.8-0.6c0,0-1.6-0.5-3.6-1.2c-2.7-1-4.4-3.2-6.6-4.1
			c-4.5-2-8.4-2.5-10.3-4.1l-1-0.8l-7.6-0.6l-7.6-0.6l-1.7,1.7c-0.7,0.6-1.3,1.3-1.7,2.1c0.2,0.7,0.5,1.4,0.8,2.1l0.8,1.9h1.5
			c0.5,0,1,0,1.5,0.2c0,0,0.1,1.3,0.3,2.7c0.1,1.4,0.2,2.6,0.2,2.6s-1.1-0.6-2.5-1.4c-1.9-1.1-2.5-1.4-2.6-1.2l-1.7,2.9
			c-1.3,2.3-1.5,2.6-1.9,2.5c-0.5-0.1-1.1-0.2-1.6-0.2c-0.6,0-1.1-0.1-1.6-0.3c-0.3-0.1-0.6-0.2-0.9-0.2c-0.4,0-0.6-0.3-0.9-0.8
			c-0.3-0.6-0.6-0.9-2.2-0.6c-0.6,0.1-1.2,0.4-1.7,0.8l-0.6,0.6l-0.9-0.7c-0.9-0.7-1-0.7-2.6-0.7c-1.6,0-1.7,0-2.2,1.4
			c-0.1,0.4,0,0.5,0.9,0.6l1,0.1l-0.9,1.2c-0.8,1.1-0.9,1.2-0.6,1.6c0.3,0.4,0.4,0.7-0.5,0.7c-1.8-0.2-3.6-0.6-5.3-1.3
			c-1.3-0.6-2.8-0.7-4.2-0.2c-0.9,0.4-2.1,1.6-4.8,4.6l-2.1,2.3l1.6,1.6l1.6,1.6h1.2c0.9,0,1.8,0.2,2.7,0.5c1.3,0.4,1.6,0.5,1.7,1
			c0.2,0.5,0.5,0.7,4.1,0.4l2.1-0.1l2.4-1.9c1.5-1.6,3.6-2.5,5.8-2.6c1.3-0.2,1.4-0.2,3.6,0.7c2.2,0.9,2.3,0.9,3.4,0.7
			c3.1-0.4,3.6-0.4,3.4-0.2c-0.1,0.2,0.4,1.7,1.6,3.5c0.8,1.3,1.5,2.7,2.1,4.1c0.6,1.4,1.3,2.8,2.1,4.1c0.7,0.9,1.2,1.9,1.2,3
			c0.2,1.4,0.2,1.5,0.7,1.5c1,0,2,0.1,3,0.2c0.9,0.1,1.8,0.2,2.6,0.1c-0.1-0.5-0.4-0.9-0.7-1.3c-0.6-0.9-1.3-1.7-2.3-2.2
			c-1.3-0.9-1.5-1.2-1.9-2.1c-0.3-0.9-1-2.6-1.8-4.6c-0.8-2-1.4-3.7-1.4-3.7c0.3-0.2,0.6-0.3,1-0.4c1.1-0.4,1-0.4,2.1,1.5
			c0.3,0.6,1,1.8,1.6,2.7c1,1.5,1.1,1.6,3.5,2.8l2.4,1.3v1.8c0.2,2.7,0.5,3.1,3.5,4.1l2.4,0.9l1.7-0.9c2.5-1.3,2.5-1.3,3-2.3
			l0.5-0.9l-0.9-1.2l-0.9-1.2h4.5l1.7,1.9c1.3,1.5,2.9,2.7,4.8,3.4c2.4,1.2,3,1.6,2.9,1.9c-0.1,0.3-0.1,0.9-0.2,1.6l-0.1,1.2
			l1.8,1.8l1.8,1.8l-0.7,0.7c-0.2,0.3-0.5,0.5-0.9,0.7c-3.6-1.5-7.2-3.1-10.6-5l-2.7-1.5l-4.6,0.2c-2.5,0.1-5,0.3-5.4,0.4l-0.8,0.1
			v1.9c0,1,0.1,2.1,0.2,2.3c0,0.3,1.2,1.1,3.5,2.6c2.2,1.5,4.5,2.7,7,3.7c3.3,1.4,6.5,3.1,9.5,5.1c0,0.8,0,1.5-0.1,2.3
			c-0.1,1.5-0.5,2.9-1.3,4.1c-0.3,0.7-0.7,1.4-1.2,2.1c-0.6-0.3-1.2-0.7-1.8-1.1c-1.9-1.5-3.8-3.2-5.4-5l-3.7-3.9h-1
			c-1,0-1.1,0-4.3-2.5l-3.2-2.5h-1.5h-1.5l-0.4,1.7l-0.4,1.7h-0.7c-1.3-0.1-1.4-0.2-1.4-1.1c0-0.4,0-0.8-0.1-1.2
			c0-0.2-2.8-2.3-6-4.7c-3.2-2.4-5.8-4.4-5.8-4.4c0.4-0.6,0.9-1.1,1.3-1.6c0.7-1.1,1.8-1.8,3-2.1c0.6-0.1,1.1-0.3,1.7-0.6
			c-0.3-0.5-0.6-1.1-1-1.5l-1-1.4h-1.1c-1,0-1.3-0.2-3.5-1.7l-2.4-1.7l-2.4,0.6l-2.4,0.6l-1.5-1.2l-2.6-2.3l-1.6-1.3l-2.1,0.1
			c-3,0.2-5.9-0.3-8.7-1.3l-2.2-0.9l-2.8,0.2l-2.8,0.2l-3,2.1l-3,2.1l-2.8,0.5c-1.5,0.1-3,0.5-4.2,1.4c-0.9,0.6-1.9,1-3,1.3
			c-1,0.1-1.9,0.7-2.4,1.6l-0.8,1.1l-2.6-0.1l-2.6-0.1l-2.8,2.5c-1.1,0.9-2.1,2-2.9,3.2c0,0.3-0.5,2.1-0.9,3.9l-0.8,3.3l-2.7,2.9
			c-2.6,2.8-2.7,2.9-3,4.2c-0.2,1.1-0.4,2.2-0.4,3.3c-0.1,1.6,0.3,3.2,1,4.5c2,4.6,4.2,9.1,6.7,13.5l3,5.5l1.2,0.7
			c1,0.6,2.2,0.9,3.4,0.8l2.2,0.1l2.8,2.2c1,0.9,2.1,1.7,3.4,2.2l4.7,0.3l4.3,0.3c0.4,0.3,0.7,0.7,0.9,1.2l0.7,1.1l1.1-0.1l1.1-0.1
			l1.9,2.2l1.9,2.2h0.8l1.7-0.2l0.8-0.1l0.5,3.7l0.5,3.7l-1.3,1.8c-0.8,1.1-1.8,2.2-2.8,3.1l-1.5,1.3l0.6,3.4
			c0.3,1.9,0.8,6.2,1.1,9.6c0.5,6.2,0.5,6.2,0.1,7.7c-0.8,2.8-0.8,2.8-3.5,4.6l-2.4,1.6l-2.9,8.8l-3,8.6l0.9,4.5l0.9,4.5l-0.6,3.8
			l-0.6,3.9l-1.8,2.4l-1.8,2.4l-0.1,2.3c0,1.3-0.3,2.5-0.6,3.7l-0.5,1.4l1.8,0.5l1.8,0.5l2.1-0.9l2.1-0.9h5.1l4.3,1.4l4.3,1.4
			l2.7-1.4c1.5-0.8,4.7-2.6,7.2-4.1l4.5-2.7l2.2-0.2c0.8,0,1.6-0.2,2.4-0.5c0,0,0.2-1.7,0.4-3.5l0.3-3.3l1.2-1.4l1.2-1.4l2.1-0.2
			c2,0.1,4-0.6,5.4-2.1l1.9-1.6h3.2l5.7-5.2c6.5-5.8,5.9-5,6.6-9.3c0.2-1.2,0.5-3.1,0.8-4.3c0.5-2.2,0.5-2.2,2.7-5.5l2.2-3.3
			l1.4-0.1c0.7,0,1.7-0.1,2.1-0.1c1.1-0.2,2.2-0.5,3.2-1c2.5-1.2,4.9-2.7,7-4.5l4.6-3.4l1.5-2.6c2.7-4.6,3.7-6.3,3.7-6.5
			c-0.5-0.3-1-0.6-1.5-0.7l-1.5-0.5l-0.8,0.8l-0.8,0.8l-1.9-1.5c-2.4-2-2.3-1.9-2.5-1.3c-0.2,0.5-0.2-0.4-0.4-2.3
			c-0.2-1-0.2-2.1,0-3.1c0.5-0.9,0.2-1.5-1.1-2.9c-1.8-2-3-4.4-3.7-7c-0.8-1.9-1.2-3.9-1.3-6c-0.3-1.6-0.3-3.1,0-4.7
			c0.2-1.1,0.2-2.3,0.1-3.5c-0.1-2.2,0-9.1,0.1-10.6l0.1-0.8l1.5,0.3c0.6,0.1,1.1,0.3,1.7,0.5c0,1.6-0.1,3.2-0.4,4.8l-0.5,4.7l1,2.1
			l1,2.1v3.6c-0.2,4,0.4,8.1,1.6,11.9l1.1,3.1l2.5,3.1c1.4,1.7,2.5,3.2,2.5,3.2c0.4-0.2,0.8-0.5,1.2-0.8c1.1-0.8,1.1-0.8,2.9-0.8
			h1.8l5.9-6.5l5.9-6.5l0.4-1.7c0.2-0.9,0.4-1.8,0.4-2.1c-1.1-2.1-2.5-4.1-4.1-5.9c-2.1-2.8-2.3-2.8-4-1.6c-0.4,0.3-0.8,0.5-1.3,0.7
			c-0.2-0.7-0.3-1.4-0.4-2.1c-0.1-1.2-0.5-2.4-1.2-3.4c-0.7-1.3-1-1.6-1.3-1.5s-0.6-0.1-0.8-0.5c-0.2-0.3-0.3-0.8-0.2-2.3
			c0-1,0.3-2.3,0.4-3c0.2-1.2,0.2-1.2,1.5-1.9c0.4-0.3,0.9-0.5,1.3-0.6c0.2,0.3,2.3,6.2,2.6,7.6l0.5,1.7l2.8,2.4
			c1.5,1.3,4.3,3.8,6.1,5.6l3.3,3.2l0.9,2.9c0.5,1.6,1.2,4.3,1.6,6.2l0.7,3.2l1.4,0.6l1.4,0.5v4.1c0,2.2-0.3,7.7-0.6,12.1
			c-0.3,4.4-0.5,8-0.5,8l0.9,0.5c0.5,0.2,0.9,0.5,0.9,0.6l1.1-0.6c2.8-9.7,4.1-19.7,3.9-29.8C-209.2,956.6-209.8,949-211.2,941.5z"
			/>
		<path class="st0" d="M-454.2,916.1c-5-13.2-17.2,22.8-17.2,47.3c0,58.4-47.3,105.8-105.7,105.9c-58.4,0-105.8-47.3-105.9-105.7
			c0-58.4,47.3-105.8,105.7-105.9c23.7,0,46.7,7.9,65.4,22.5L-615.7,984c-15,15,6.1,30.6,18.3,18.2L-475.2,880
			c-5.5-6.7-11.6-12.8-18.3-18.3l0,0c-56.2-46.2-139.1-38.1-185.3,18.1c-46.2,56.2-38.1,139.1,18.1,185.3
			c56.2,46.2,139.1,38.1,185.3-18.1C-445.2,1010.3-437.2,960.3-454.2,916.1z"/>
		<path class="st0" d="M-469.9,975.6c-0.9-9.6-0.8-19.2,0.3-28.8c0.2-2.4,0.6-4.8,1.2-7.1c0,0,0.8,2.5,1.5,5.6
			c0.8,3.1,1.8,7.7,2.3,10.3l0.9,4.8l-0.2,4.5l-0.2,4.5l1.9,3.5c0.7,1.2,1.4,2.5,1.9,3.7c0,0.1-0.4,1.7-0.9,3.6l-0.9,3.4l-0.2,6.2
			l-0.2,6.2l1.3,3.6c1.6,4.7,2.6,9.5,3.2,14.4c0,0,2.8-1.3,2.4-2.4l-0.6-1.9l0.4-2.8c0.2-2.1,0.4-2.9,0.7-3l1.6-1l1.3-0.8v-1.1
			c0-0.6,0-2.1-0.2-3.4v-2.3l2.1-1.6l2.1-1.8v-4.3l5-6.5c2.7-3.6,5-6.6,5.1-6.7c0.7,0,1.4,0.1,2.1,0.4l1.9,0.6l0.8-0.9
			c0.5-0.6,2.9-4.8,6.2-10.9l5.4-9.9l3-0.6l3-0.6l0.8-0.9c1.6-1.9,1.6-1.7,1.3-3.2c-0.4-1.7-1.1-3.3-2.1-4.7l-1.8-3.3l-2.5-1.5
			l-2.5-1.5v-3.8v-3.8l-3.7-1.9l-3.6-1.9v-5v-5l0.8-1.5l0.8-1.5l-0.8-1.4c-0.8-1.3-1-1.4-3-2.6l-2.2-1.3l-0.5-2.2l-0.5-2.1l0.4-3.7
			c0.2-1.4,0.3-2.7,0.2-4.1c-0.2-0.4-4.6-6.2-4.7-6.2l-3.2,1.2c-1.6,0.9-3.3,1.3-5.1,1.2c-0.6,0-1.3,0-1.9-0.1h-1.1
			c-10.2,15.9-16.9,33.7-19.6,52.4c-0.9,6.3-1.3,12.6-1.2,18.9c-0.1,6.2,0.3,12.5,1.2,18.6C-468,996.4-468.2,992-469.9,975.6z"/>
		<path class="st0" d="M-461.2,999.6l-1.3-3.6l0.2-6.2l0.2-6.2l0.9-3.3c0.5-1.8,0.9-3.5,0.9-3.6c-0.6-1.3-1.2-2.5-1.9-3.7l-1.9-3.5
			l0.2-4.5l0.2-4.5l-0.9-4.8c-0.5-2.6-1.5-7.3-2.3-10.3c-0.8-3-1.5-5.6-1.5-5.6c-0.6,2.3-1,4.7-1.2,7.1c-1.1,9.6-1.2,19.2-0.3,28.8
			c1.7,16.5,12.5,42.2,12.5,42.2l-0.6-3.9C-458.6,1009-459.6,1004.2-461.2,999.6z"/>
		<path class="st0" d="M-213.2,1065.3l-29.5-29.6c-6-6-14.2-7.2-20.3-1.2c-2.9,2.9-5,5-6.4,6.4c-42.9,38.7-109,35.3-147.7-7.5
			c-10.5-11.6-18.2-25.4-22.7-40.4l-0.2,0.7c-0.5,2.4-1.1,4.8-1.8,7.2c-0.2,0.6-0.3,1.1-0.5,1.7c-1.2,3.9-2.5,7.8-4,11.6l-0.3,0.7
			c-1.6,4-3.4,7.9-5.3,11.8l-0.8,1.6l-0.1,0.2l-0.2,0.3l-0.3,0.6v0.1c23.6,40.5,66.9,65.3,113.8,65.3c17-0.1,33.9-3.4,49.7-9.7
			c13.5-5.5,26-13.3,37-22.9l22.7,22.7C-217.6,1097.4-201.1,1077.3-213.2,1065.3z"/>
	</g>
</g>
</svg>
